<svg xmlns="http://www.w3.org/2000/svg" xmlns:xlink="http://www.w3.org/1999/xlink" contentStyleType="text/css" height="192px" preserveAspectRatio="none" style="width:297px;height:192px;background:#FFFFFF;" version="1.1" viewBox="0 0 297 192" width="297px" zoomAndPan="magnify"><defs/><g><!--class Persona--><g id="elem_Persona"><rect codeLine="2" fill="#F1F1F1" height="42.2969" id="Persona" rx="2.5" ry="2.5" style="stroke:#181818;stroke-width:0.5;" width="62.123" x="113" y="143"/><text fill="#000000" font-family="sans-serif" font-size="14" lengthAdjust="spacing" textLength="56.123" x="116" y="160.9951">Persona</text><line style="stroke:#181818;stroke-width:0.5;" x1="114" x2="174.123" y1="169.2969" y2="169.2969"/><line style="stroke:#181818;stroke-width:0.5;" x1="114" x2="174.123" y1="177.2969" y2="177.2969"/></g><!--class manuel--><g id="elem_manuel"><rect fill="#F1F1F1" height="58.5938" id="manuel" rx="2.5" ry="2.5" style="stroke:#181818;stroke-width:0.5;" width="68.123" x="7" y="7"/><text fill="#000000" font-family="sans-serif" font-size="14" lengthAdjust="spacing" textLength="52.4658" x="14.8286" y="24.9951">manuel</text><line style="stroke:#181818;stroke-width:0.5;" x1="8" x2="74.123" y1="33.2969" y2="33.2969"/><text fill="#000000" font-family="sans-serif" font-size="14" lengthAdjust="spacing" textLength="56.123" x="13" y="50.292">Persona</text><line style="stroke:#181818;stroke-width:0.5;" x1="8" x2="74.123" y1="57.5938" y2="57.5938"/></g><!--class copia--><g id="elem_copia"><rect fill="#F1F1F1" height="58.5938" id="copia" rx="2.5" ry="2.5" style="stroke:#181818;stroke-width:0.5;" width="68.123" x="110" y="7"/><text fill="#000000" font-family="sans-serif" font-size="14" lengthAdjust="spacing" textLength="37.6182" x="125.2524" y="24.9951">copia</text><line style="stroke:#181818;stroke-width:0.5;" x1="111" x2="177.123" y1="33.2969" y2="33.2969"/><text fill="#000000" font-family="sans-serif" font-size="14" lengthAdjust="spacing" textLength="56.123" x="116" y="50.292">Persona</text><line style="stroke:#181818;stroke-width:0.5;" x1="111" x2="177.123" y1="57.5938" y2="57.5938"/></g><!--class referencia--><g id="elem_referencia"><rect fill="#F1F1F1" height="58.5938" id="referencia" rx="2.5" ry="2.5" style="stroke:#181818;stroke-width:0.5;" width="77.3193" x="213.5" y="7"/><text fill="#000000" font-family="sans-serif" font-size="14" lengthAdjust="spacing" textLength="71.3193" x="216.5" y="24.9951">referencia</text><line style="stroke:#181818;stroke-width:0.5;" x1="214.5" x2="289.8193" y1="33.2969" y2="33.2969"/><text fill="#000000" font-family="sans-serif" font-size="14" lengthAdjust="spacing" textLength="56.123" x="219.5" y="50.292">Persona</text><line style="stroke:#181818;stroke-width:0.5;" x1="214.5" x2="289.8193" y1="57.5938" y2="57.5938"/></g><!--link manuel to Persona--><g id="link_manuel_Persona"><path codeLine="10" d="M55.24,66.18 C63.25,80.93 74.03,98.74 86,113 C95.15,123.89 102.138,130.6184 112.578,139.1684 " fill="none" id="manuel-to-Persona" style="stroke:#181818;stroke-width:1;"/><polygon fill="#181818" points="117.22,142.97,112.7915,134.173,113.3517,139.802,107.7227,140.3622,117.22,142.97" style="stroke:#181818;stroke-width:1;"/><text fill="#000000" font-family="sans-serif" font-size="13" lengthAdjust="spacing" textLength="48.7183" x="87" y="109.0669">manuel</text></g><!--link copia to Persona--><g id="link_copia_Persona"><path codeLine="11" d="M144,66.29 C144,89.74 144,116.24 144,136.94 " fill="none" id="copia-to-Persona" style="stroke:#181818;stroke-width:1;"/><polygon fill="#181818" points="144,142.94,148,133.94,144,137.94,140,133.94,144,142.94" style="stroke:#181818;stroke-width:1;"/><text fill="#000000" font-family="sans-serif" font-size="13" lengthAdjust="spacing" textLength="34.9312" x="145" y="109.0669">copia</text></g><!--link referencia to Persona--><g id="link_referencia_Persona"><path codeLine="12" d="M227.81,66.29 C215.89,80.42 201.25,97.65 188,113 C179.53,122.8 174.0207,129.1018 166.0407,138.1418 " fill="none" id="referencia-to-Persona" style="stroke:#181818;stroke-width:1;"/><polygon fill="#181818" points="162.07,142.64,171.0248,138.5399,165.3789,138.8915,165.0273,133.2456,162.07,142.64" style="stroke:#181818;stroke-width:1;"/><text fill="#000000" font-family="sans-serif" font-size="13" lengthAdjust="spacing" textLength="48.7183" x="203" y="109.0669">manuel</text></g><!--SRC=[oyXCILL8pYnApadbIiv9B2vM24WjAixFIrIevb9GuAhbuifDp2jDpL6mWabm9USNP2OYyOjIqrABKlEIKGHXsdHrxU0cMYaeGKILe6QWIO85bP3DmwuR0000]--></g></svg>