<svg xmlns="http://www.w3.org/2000/svg" xmlns:xlink="http://www.w3.org/1999/xlink" contentStyleType="text/css" height="441px" preserveAspectRatio="none" style="width:916px;height:441px;background:#FFFFFF;" version="1.1" viewBox="0 0 916 441" width="916px" zoomAndPan="magnify"><defs/><g><!--class Persona--><g id="elem_Persona"><rect codeLine="3" fill="#F1F1F1" height="123.7813" id="Persona" rx="2.5" ry="2.5" style="stroke:#181818;stroke-width:0.5;" width="270.3916" x="22" y="126"/><text fill="#000000" font-family="sans-serif" font-size="14" lengthAdjust="spacing" textLength="56.123" x="129.1343" y="143.9951">Persona</text><line style="stroke:#181818;stroke-width:0.5;" x1="23" x2="291.3916" y1="152.2969" y2="152.2969"/><rect fill="none" height="6" style="stroke:#C82930;stroke-width:1;" width="6" x="30" y="162.9453"/><text fill="#000000" font-family="sans-serif" font-size="14" lengthAdjust="spacing" textLength="100.5635" x="42" y="169.292">String nombre</text><rect fill="none" height="6" style="stroke:#C82930;stroke-width:1;" width="6" x="30" y="179.2422"/><text fill="#000000" font-family="sans-serif" font-size="14" lengthAdjust="spacing" textLength="67.8809" x="42" y="185.5889">String dni</text><line style="stroke:#181818;stroke-width:0.5;" x1="23" x2="291.3916" y1="192.8906" y2="192.8906"/><ellipse cx="33" cy="206.5391" fill="#84BE84" rx="3" ry="3" style="stroke:#038048;stroke-width:1;"/><text fill="#000000" font-family="sans-serif" font-size="14" lengthAdjust="spacing" textLength="244.3916" x="42" y="209.8857">Persona(String nombre, String dni)</text><ellipse cx="33" cy="222.8359" fill="#84BE84" rx="3" ry="3" style="stroke:#038048;stroke-width:1;"/><text fill="#000000" font-family="sans-serif" font-size="14" lengthAdjust="spacing" textLength="184.1875" x="42" y="226.1826">Persona(Persona persona)</text><ellipse cx="33" cy="239.1328" fill="#84BE84" rx="3" ry="3" style="stroke:#038048;stroke-width:1;"/><text fill="#000000" font-family="sans-serif" font-size="14" lengthAdjust="spacing" textLength="222.8926" x="42" y="242.4795">void setNombre(String nombre)</text></g><!--class Principal--><g id="elem_Principal"><rect codeLine="11" fill="#F1F1F1" height="107.4844" id="Principal" rx="2.5" ry="2.5" style="stroke:#181818;stroke-width:0.5;" width="193.6514" x="60" y="327"/><text fill="#000000" font-family="sans-serif" font-size="14" lengthAdjust="spacing" textLength="59.9033" x="126.874" y="344.9951">Principal</text><line style="stroke:#181818;stroke-width:0.5;" x1="61" x2="252.6514" y1="353.2969" y2="353.2969"/><rect fill="none" height="6" style="stroke:#C82930;stroke-width:1;" width="6" x="68" y="363.9453"/><text fill="#000000" font-family="sans-serif" font-size="14" lengthAdjust="spacing" textLength="113.0391" x="80" y="370.292">Persona manuel</text><rect fill="none" height="6" style="stroke:#C82930;stroke-width:1;" width="6" x="68" y="380.2422"/><text fill="#000000" font-family="sans-serif" font-size="14" lengthAdjust="spacing" textLength="98.1914" x="80" y="386.5889">Persona copia</text><rect fill="none" height="6" style="stroke:#C82930;stroke-width:1;" width="6" x="68" y="396.5391"/><text fill="#000000" font-family="sans-serif" font-size="14" lengthAdjust="spacing" textLength="131.8926" x="80" y="402.8857">Persona referencia</text><line style="stroke:#181818;stroke-width:0.5;" x1="61" x2="252.6514" y1="410.1875" y2="410.1875"/><ellipse cx="71" cy="423.8359" fill="#84BE84" rx="3" ry="3" style="stroke:#038048;stroke-width:1;"/><text fill="#000000" font-family="sans-serif" font-size="14" lengthAdjust="spacing" textLength="167.6514" x="80" y="427.1826">void main(String[] args)</text></g><g id="elem_N1"><path d="M351.5,15.5 L351.5,40.6328 L670.04,40.6328 L670.04,25.5 L660.04,15.5 L351.5,15.5 " fill="#FEFFDD" style="stroke:#181818;stroke-width:0.5;"/><path d="M660.04,15.5 L660.04,25.5 L670.04,25.5 L660.04,15.5 " fill="#FEFFDD" style="stroke:#181818;stroke-width:1;"/><text fill="#000000" font-family="sans-serif" font-size="13" lengthAdjust="spacing" textLength="297.54" x="357.5" y="32.5669">manuel y referencia apuntan al mismo objeto</text></g><g id="elem_N2"><path d="M706,15.5 L706,40.6328 L909.6919,40.6328 L909.6919,25.5 L899.6919,15.5 L706,15.5 " fill="#FEFFDD" style="stroke:#181818;stroke-width:0.5;"/><path d="M899.6919,15.5 L899.6919,25.5 L909.6919,25.5 L899.6919,15.5 " fill="#FEFFDD" style="stroke:#181818;stroke-width:1;"/><text fill="#000000" font-family="sans-serif" font-size="13" lengthAdjust="spacing" textLength="182.6919" x="712" y="32.5669">copia es un objeto diferente</text></g><!--class manuel--><g id="elem_manuel"><rect fill="#F1F1F1" height="42.2969" id="manuel" rx="2.5" ry="2.5" style="stroke:#181818;stroke-width:0.5;" width="58.4658" x="7" y="7"/><text fill="#000000" font-family="sans-serif" font-size="14" lengthAdjust="spacing" textLength="52.4658" x="10" y="24.9951">manuel</text><line style="stroke:#181818;stroke-width:0.5;" x1="8" x2="64.4658" y1="33.2969" y2="33.2969"/><line style="stroke:#181818;stroke-width:0.5;" x1="8" x2="64.4658" y1="41.2969" y2="41.2969"/></g><!--class copia--><g id="elem_copia"><rect fill="#F1F1F1" height="42.2969" id="copia" rx="2.5" ry="2.5" style="stroke:#181818;stroke-width:0.5;" width="43.6182" x="135" y="7"/><text fill="#000000" font-family="sans-serif" font-size="14" lengthAdjust="spacing" textLength="37.6182" x="138" y="24.9951">copia</text><line style="stroke:#181818;stroke-width:0.5;" x1="136" x2="177.6182" y1="33.2969" y2="33.2969"/><line style="stroke:#181818;stroke-width:0.5;" x1="136" x2="177.6182" y1="41.2969" y2="41.2969"/></g><!--class referencia--><g id="elem_referencia"><rect fill="#F1F1F1" height="42.2969" id="referencia" rx="2.5" ry="2.5" style="stroke:#181818;stroke-width:0.5;" width="77.3193" x="239.5" y="7"/><text fill="#000000" font-family="sans-serif" font-size="14" lengthAdjust="spacing" textLength="71.3193" x="242.5" y="24.9951">referencia</text><line style="stroke:#181818;stroke-width:0.5;" x1="240.5" x2="315.8193" y1="33.2969" y2="33.2969"/><line style="stroke:#181818;stroke-width:0.5;" x1="240.5" x2="315.8193" y1="41.2969" y2="41.2969"/></g><!--reverse link Persona to Principal--><g id="link_Persona_Principal"><path codeLine="15" d="M157,256.06 C157,280.77 157,303.01 157,326.79 " fill="none" id="Persona-backto-Principal" style="stroke:#181818;stroke-width:1;"/><polygon fill="#181818" points="157,250.06,153,259.06,157,255.06,161,259.06,157,250.06" style="stroke:#181818;stroke-width:1;"/><text fill="#000000" font-family="sans-serif" font-size="13" lengthAdjust="spacing" textLength="56.2847" x="158" y="293.0669">contiene</text></g><!--link manuel to Persona--><g id="link_manuel_Persona"><path codeLine="24" d="M42.04,49.11 C46.75,62.99 54.16,81.5 64,96 C70.97,106.28 75.1935,111.929 83.8735,121.389 " fill="none" id="manuel-to-Persona" style="stroke:#181818;stroke-width:1;"/><polygon fill="#181818" points="87.93,125.81,84.7926,116.4742,84.5496,122.1258,78.898,121.8828,87.93,125.81" style="stroke:#181818;stroke-width:1;"/><text fill="#000000" font-family="sans-serif" font-size="13" lengthAdjust="spacing" textLength="79.0347" x="65" y="92.0669">instancia de</text></g><!--link copia to Persona--><g id="link_copia_Persona"><path codeLine="25" d="M155.5,49.42 C154.9,58.48 154.29,69.26 154,79 C153.54,94.19 153.5271,104.5819 153.9171,119.8819 " fill="none" id="copia-to-Persona" style="stroke:#181818;stroke-width:1;"/><polygon fill="#181818" points="154.07,125.88,157.8394,116.781,153.9426,120.8816,149.842,116.9849,154.07,125.88" style="stroke:#181818;stroke-width:1;"/><text fill="#000000" font-family="sans-serif" font-size="13" lengthAdjust="spacing" textLength="79.0347" x="155" y="92.0669">instancia de</text></g><!--link referencia to Persona--><g id="link_referencia_Persona"><path codeLine="26" d="M267.76,49.02 C260.42,62.7 249.95,81 239,96 C231.73,105.96 227.4586,111.5378 219.1386,121.2278 " fill="none" id="referencia-to-Persona" style="stroke:#181818;stroke-width:1;"/><polygon fill="#181818" points="215.23,125.78,224.1277,121.5574,218.4872,121.9865,218.0581,116.3459,215.23,125.78" style="stroke:#181818;stroke-width:1;"/><text fill="#000000" font-family="sans-serif" font-size="13" lengthAdjust="spacing" textLength="131.1743" x="250" y="92.0669">referencia a manuel</text></g><!--SRC=[VL3DJWCX4Bxp59EUR9H3FJR6HsXCF1eFKnZhc6NO06lI6DzT1Bh2eN8XpFSxlBCbC1pCH4gP2ME49mhH2yANWdpqSmei9n3lZe66aHKkxzkck1ceT_17suwyIy9SxuP-UhOGAHsAV3JRgk-rNXuRdd5g1QlE8KkJlBm2XbCiaalIWzQTS0_6IsAIl7C_rUlk3cMXwGfe_Cnu1GlqHe4oW4g9JmIRQWNd3WAS5qaeaCMEe_FWZn-K_0Ommc7NX2K6AC8Y3GVBnI9HPTuhrTorVbmhx84bPlVV84kgsln3w7gDhBvm-v4V]--></g></svg>