<svg xmlns="http://www.w3.org/2000/svg" xmlns:xlink="http://www.w3.org/1999/xlink" contentStyleType="text/css" height="224px" preserveAspectRatio="none" style="width:446px;height:224px;background:#FFFFFF;" version="1.1" viewBox="0 0 446 224" width="446px" zoomAndPan="magnify"><defs/><g><!--class Persona--><g id="elem_Persona"><rect codeLine="2" fill="#F1F1F1" height="42.2969" id="Persona" rx="2.5" ry="2.5" style="stroke:#181818;stroke-width:0.5;" width="62.123" x="56" y="175"/><text fill="#000000" font-family="sans-serif" font-size="14" lengthAdjust="spacing" textLength="56.123" x="59" y="192.9951">Persona</text><line style="stroke:#181818;stroke-width:0.5;" x1="57" x2="117.123" y1="201.2969" y2="201.2969"/><line style="stroke:#181818;stroke-width:0.5;" x1="57" x2="117.123" y1="209.2969" y2="209.2969"/></g><!--class Nodo--><g id="elem_Nodo"><rect codeLine="6" fill="#F1F1F1" height="42.2969" id="Nodo" rx="2.5" ry="2.5" style="stroke:#181818;stroke-width:0.5;" width="42.4902" x="309" y="175"/><text fill="#000000" font-family="sans-serif" font-size="14" lengthAdjust="spacing" textLength="36.4902" x="312" y="192.9951">Nodo</text><line style="stroke:#181818;stroke-width:0.5;" x1="310" x2="350.4902" y1="201.2969" y2="201.2969"/><line style="stroke:#181818;stroke-width:0.5;" x1="310" x2="350.4902" y1="209.2969" y2="209.2969"/></g><!--class manuel--><g id="elem_manuel"><rect fill="#F1F1F1" height="58.5938" id="manuel" rx="2.5" ry="2.5" style="stroke:#181818;stroke-width:0.5;" width="68.123" x="7" y="23"/><text fill="#000000" font-family="sans-serif" font-size="14" lengthAdjust="spacing" textLength="52.4658" x="14.8286" y="40.9951">manuel</text><line style="stroke:#181818;stroke-width:0.5;" x1="8" x2="74.123" y1="49.2969" y2="49.2969"/><text fill="#000000" font-family="sans-serif" font-size="14" lengthAdjust="spacing" textLength="56.123" x="13" y="66.292">Persona</text><line style="stroke:#181818;stroke-width:0.5;" x1="8" x2="74.123" y1="73.5938" y2="73.5938"/></g><!--class copia--><g id="elem_copia"><rect fill="#F1F1F1" height="58.5938" id="copia" rx="2.5" ry="2.5" style="stroke:#181818;stroke-width:0.5;" width="68.123" x="110" y="23"/><text fill="#000000" font-family="sans-serif" font-size="14" lengthAdjust="spacing" textLength="37.6182" x="125.2524" y="40.9951">copia</text><line style="stroke:#181818;stroke-width:0.5;" x1="111" x2="177.123" y1="49.2969" y2="49.2969"/><text fill="#000000" font-family="sans-serif" font-size="14" lengthAdjust="spacing" textLength="56.123" x="116" y="66.292">Persona</text><line style="stroke:#181818;stroke-width:0.5;" x1="111" x2="177.123" y1="73.5938" y2="73.5938"/></g><!--class lista--><g id="elem_lista"><rect fill="#F1F1F1" height="91.1875" id="lista" rx="2.5" ry="2.5" style="stroke:#181818;stroke-width:0.5;" width="96.4238" x="259" y="7"/><text fill="#000000" font-family="sans-serif" font-size="14" lengthAdjust="spacing" textLength="29.1416" x="292.6411" y="24.9951">lista</text><line style="stroke:#181818;stroke-width:0.5;" x1="260" x2="354.4238" y1="33.2969" y2="33.2969"/><text fill="#000000" font-family="sans-serif" font-size="14" lengthAdjust="spacing" textLength="84.4238" x="265" y="50.292">List&lt;Nodo&gt;</text><text fill="#000000" font-family="sans-serif" font-size="14" lengthAdjust="spacing" textLength="36.4902" x="265" y="66.5889">Nodo</text><text fill="#000000" font-family="sans-serif" font-size="14" lengthAdjust="spacing" textLength="36.4902" x="265" y="82.8857">Nodo</text><line style="stroke:#181818;stroke-width:0.5;" x1="260" x2="354.4238" y1="90.1875" y2="90.1875"/></g><!--link manuel to Persona--><g id="link_manuel_Persona"><path codeLine="17" d="M40.41,82 C40.91,100.52 43.27,124.86 51,145 C55.06,155.59 58.2402,161.2487 64.9002,169.7887 " fill="none" id="manuel-to-Persona" style="stroke:#181818;stroke-width:1;"/><polygon fill="#181818" points="68.59,174.52,66.2096,164.9631,65.5152,170.5772,59.9011,169.8828,68.59,174.52" style="stroke:#181818;stroke-width:1;"/><text fill="#000000" font-family="sans-serif" font-size="13" lengthAdjust="spacing" textLength="48.7183" x="52" y="141.0669">manuel</text></g><!--link copia to Persona--><g id="link_copia_Persona"><path codeLine="18" d="M132.47,82.13 C121.4,109.59 107.221,144.7842 97.441,169.0742 " fill="none" id="copia-to-Persona" style="stroke:#181818;stroke-width:1;"/><polygon fill="#181818" points="95.2,174.64,102.272,167.7853,97.0675,170.0018,94.8509,164.7973,95.2,174.64" style="stroke:#181818;stroke-width:1;"/><text fill="#000000" font-family="sans-serif" font-size="13" lengthAdjust="spacing" textLength="34.9312" x="115" y="141.0669">copia</text></g><!--link lista to Nodo--><g id="link_lista_Nodo"><path codeLine="19" d="M265.68,98.18 C256.8,113.08 252.16,129.76 260,145 C270.18,164.79 286.8212,175.8829 303.4612,183.8729 " fill="none" id="lista-to-Nodo" style="stroke:#181818;stroke-width:1;"/><polygon fill="#181818" points="308.87,186.47,302.4882,178.9685,304.3627,184.3057,299.0254,186.1802,308.87,186.47" style="stroke:#181818;stroke-width:1;"/><text fill="#000000" font-family="sans-serif" font-size="13" lengthAdjust="spacing" textLength="92.7456" x="261" y="141.0669">Nodo(manuel)</text></g><!--link lista to Nodo--><g id="link_lista_Nodo"><path codeLine="20" d="M343.76,98.14 C349.62,107.49 354.8,117.67 358,128 C362.99,144.14 358.3997,156.7354 349.7297,169.8454 " fill="none" id="lista-to-Nodo-1" style="stroke:#181818;stroke-width:1;"/><polygon fill="#181818" points="346.42,174.85,354.7209,169.5496,349.1781,170.6795,348.0481,165.1366,346.42,174.85" style="stroke:#181818;stroke-width:1;"/><text fill="#000000" font-family="sans-serif" font-size="13" lengthAdjust="spacing" textLength="78.9585" x="360" y="141.0669">Nodo(copia)</text></g><!--SRC=[oyXCILL8pYnApadbIiv9B2vM24WjAixFIrIevb9GuAhbWehwvQVaWuH08hc9UQMfEGfMCALSoVa5cOb8VAwSpE8Ia80FaBO1QRM32u5ug1oOURgwTd3BhHIK8A9AKCFH9C62Ib1pG79Wzm4bGBG6HAicJdcmRaqb0000]--></g></svg>