<svg xmlns="http://www.w3.org/2000/svg" xmlns:xlink="http://www.w3.org/1999/xlink" contentStyleType="text/css" height="653px" preserveAspectRatio="none" style="width:1704px;height:653px;background:#FFFFFF;" version="1.1" viewBox="0 0 1704 653" width="1704px" zoomAndPan="magnify"><title>Justificaci&#243;n de objetos Persona en memoria</title><defs/><g><text fill="#000000" font-family="sans-serif" font-size="14" font-weight="bold" lengthAdjust="spacing" textLength="351.709" x="669.3341" y="22.9951">Justificaci&#243;n de objetos Persona en memoria</text><!--class Persona--><g id="elem_Persona"><rect codeLine="3" fill="#F1F1F1" height="80.5938" id="Persona" rx="2.5" ry="2.5" style="stroke:#181818;stroke-width:0.5;" width="126.5635" x="473.65" y="565.9769"/><ellipse cx="505.9482" cy="581.9769" fill="#ADD1B2" rx="11" ry="11" style="stroke:#181818;stroke-width:1;"/><path d="M508.9169,587.6175 Q508.3388,587.9144 507.6982,588.055 Q507.0576,588.2113 506.3544,588.2113 Q503.8544,588.2113 502.5263,586.5706 Q501.2138,584.9144 501.2138,581.7894 Q501.2138,578.6644 502.5263,577.0081 Q503.8544,575.3519 506.3544,575.3519 Q507.0576,575.3519 507.6982,575.5081 Q508.3544,575.6644 508.9169,575.9613 L508.9169,578.68 Q508.2919,578.1019 507.6982,577.8363 Q507.1044,577.555 506.4794,577.555 Q505.1357,577.555 504.4482,578.6331 Q503.7607,579.6956 503.7607,581.7894 Q503.7607,583.8831 504.4482,584.9613 Q505.1357,586.0238 506.4794,586.0238 Q507.1044,586.0238 507.6982,585.7581 Q508.2919,585.4769 508.9169,584.8988 L508.9169,587.6175 Z " fill="#000000"/><text fill="#000000" font-family="sans-serif" font-size="14" lengthAdjust="spacing" textLength="56.123" x="523.7922" y="586.8236">Persona</text><line style="stroke:#181818;stroke-width:0.5;" x1="474.65" x2="599.2135" y1="597.9769" y2="597.9769"/><rect fill="none" height="6" style="stroke:#C82930;stroke-width:1;" width="6" x="481.65" y="608.6253"/><text fill="#000000" font-family="sans-serif" font-size="14" lengthAdjust="spacing" textLength="100.5635" x="493.65" y="614.972">String nombre</text><rect fill="none" height="6" style="stroke:#C82930;stroke-width:1;" width="6" x="481.65" y="624.9222"/><text fill="#000000" font-family="sans-serif" font-size="14" lengthAdjust="spacing" textLength="67.8809" x="493.65" y="631.2689">String dni</text><line style="stroke:#181818;stroke-width:0.5;" x1="474.65" x2="599.2135" y1="638.5706" y2="638.5706"/></g><!--class Principal--><g id="elem_Principal"><rect codeLine="8" fill="#F1F1F1" height="64.2969" id="Principal" rx="2.5" ry="2.5" style="stroke:#181818;stroke-width:0.5;" width="91.9033" x="376.98" y="44.2969"/><ellipse cx="391.98" cy="60.2969" fill="#ADD1B2" rx="11" ry="11" style="stroke:#181818;stroke-width:1;"/><path d="M394.9487,65.9375 Q394.3706,66.2344 393.73,66.375 Q393.0894,66.5313 392.3862,66.5313 Q389.8862,66.5313 388.5581,64.8906 Q387.2456,63.2344 387.2456,60.1094 Q387.2456,56.9844 388.5581,55.3281 Q389.8862,53.6719 392.3862,53.6719 Q393.0894,53.6719 393.73,53.8281 Q394.3862,53.9844 394.9487,54.2813 L394.9487,57 Q394.3237,56.4219 393.73,56.1563 Q393.1362,55.875 392.5112,55.875 Q391.1675,55.875 390.48,56.9531 Q389.7925,58.0156 389.7925,60.1094 Q389.7925,62.2031 390.48,63.2813 Q391.1675,64.3438 392.5112,64.3438 Q393.1362,64.3438 393.73,64.0781 Q394.3237,63.7969 394.9487,63.2188 L394.9487,65.9375 Z " fill="#000000"/><text fill="#000000" font-family="sans-serif" font-size="14" lengthAdjust="spacing" textLength="59.9033" x="405.98" y="65.1436">Principal</text><line style="stroke:#181818;stroke-width:0.5;" x1="377.98" x2="467.8833" y1="76.2969" y2="76.2969"/><line style="stroke:#181818;stroke-width:0.5;" x1="377.98" x2="467.8833" y1="84.2969" y2="84.2969"/><text fill="#000000" font-family="sans-serif" font-size="14" lengthAdjust="spacing" textLength="45.9033" x="382.98" y="101.292">main()</text></g><!--class Lista--><g id="elem_Lista"><rect codeLine="12" fill="#F1F1F1" height="113.1875" id="Lista" rx="2.5" ry="2.5" style="stroke:#181818;stroke-width:0.5;" width="285.7314" x="582.06" y="185.5969"/><ellipse cx="704.1498" cy="201.5969" fill="#ADD1B2" rx="11" ry="11" style="stroke:#181818;stroke-width:1;"/><path d="M707.1186,207.2375 Q706.5405,207.5344 705.8998,207.675 Q705.2592,207.8312 704.5561,207.8312 Q702.0561,207.8312 700.728,206.1906 Q699.4155,204.5344 699.4155,201.4094 Q699.4155,198.2844 700.728,196.6281 Q702.0561,194.9719 704.5561,194.9719 Q705.2592,194.9719 705.8998,195.1281 Q706.5561,195.2844 707.1186,195.5812 L707.1186,198.3 Q706.4936,197.7219 705.8998,197.4562 Q705.3061,197.175 704.6811,197.175 Q703.3373,197.175 702.6498,198.2531 Q701.9623,199.3156 701.9623,201.4094 Q701.9623,203.5031 702.6498,204.5812 Q703.3373,205.6437 704.6811,205.6437 Q705.3061,205.6437 705.8998,205.3781 Q706.4936,205.0969 707.1186,204.5187 L707.1186,207.2375 Z " fill="#000000"/><text fill="#000000" font-family="sans-serif" font-size="14" lengthAdjust="spacing" textLength="33.0518" x="724.6498" y="206.4436">Lista</text><line style="stroke:#181818;stroke-width:0.5;" x1="583.06" x2="866.7914" y1="217.5969" y2="217.5969"/><rect fill="none" height="6" style="stroke:#C82930;stroke-width:1;" width="6" x="590.06" y="228.2453"/><text fill="#000000" font-family="sans-serif" font-size="14" lengthAdjust="spacing" textLength="96.0449" x="602.06" y="234.592">Nodo primero</text><line style="stroke:#181818;stroke-width:0.5;" x1="583.06" x2="866.7914" y1="241.8937" y2="241.8937"/><ellipse cx="593.06" cy="255.5422" fill="#84BE84" rx="3" ry="3" style="stroke:#038048;stroke-width:1;"/><text fill="#000000" font-family="sans-serif" font-size="14" lengthAdjust="spacing" textLength="243.1543" x="602.06" y="258.8889">insertarPersona(persona: Persona)</text><ellipse cx="593.06" cy="271.8391" fill="#84BE84" rx="3" ry="3" style="stroke:#038048;stroke-width:1;"/><text fill="#000000" font-family="sans-serif" font-size="14" lengthAdjust="spacing" textLength="258.5352" x="602.06" y="275.1857">contiene(persona: Persona): boolean</text><ellipse cx="593.06" cy="288.1359" fill="#84BE84" rx="3" ry="3" style="stroke:#038048;stroke-width:1;"/><text fill="#000000" font-family="sans-serif" font-size="14" lengthAdjust="spacing" textLength="259.7314" x="602.06" y="291.4826">obtenerPersona(dni: String): Persona</text></g><!--class Nodo--><g id="elem_Nodo"><rect codeLine="19" fill="#F1F1F1" height="113.1875" id="Nodo" rx="2.5" ry="2.5" style="stroke:#181818;stroke-width:0.5;" width="181.3262" x="608.27" y="375.7869"/><ellipse cx="676.438" cy="391.7869" fill="#ADD1B2" rx="11" ry="11" style="stroke:#181818;stroke-width:1;"/><path d="M679.4067,397.4275 Q678.8286,397.7244 678.188,397.865 Q677.5473,398.0213 676.8442,398.0213 Q674.3442,398.0213 673.0161,396.3806 Q671.7036,394.7244 671.7036,391.5994 Q671.7036,388.4744 673.0161,386.8181 Q674.3442,385.1619 676.8442,385.1619 Q677.5473,385.1619 678.188,385.3181 Q678.8442,385.4744 679.4067,385.7713 L679.4067,388.49 Q678.7817,387.9119 678.188,387.6463 Q677.5942,387.365 676.9692,387.365 Q675.6255,387.365 674.938,388.4431 Q674.2505,389.5056 674.2505,391.5994 Q674.2505,393.6931 674.938,394.7713 Q675.6255,395.8338 676.9692,395.8338 Q677.5942,395.8338 678.188,395.5681 Q678.7817,395.2869 679.4067,394.7088 L679.4067,397.4275 Z " fill="#000000"/><text fill="#000000" font-family="sans-serif" font-size="14" lengthAdjust="spacing" textLength="36.4902" x="696.938" y="396.6336">Nodo</text><line style="stroke:#181818;stroke-width:0.5;" x1="609.27" x2="788.5962" y1="407.7869" y2="407.7869"/><rect fill="none" height="6" style="stroke:#C82930;stroke-width:1;" width="6" x="616.27" y="418.4353"/><text fill="#000000" font-family="sans-serif" font-size="14" lengthAdjust="spacing" textLength="117.1406" x="628.27" y="424.782">Persona persona</text><rect fill="none" height="6" style="stroke:#C82930;stroke-width:1;" width="6" x="616.27" y="434.7322"/><text fill="#000000" font-family="sans-serif" font-size="14" lengthAdjust="spacing" textLength="105.3623" x="628.27" y="441.0789">Nodo siguiente</text><line style="stroke:#181818;stroke-width:0.5;" x1="609.27" x2="788.5962" y1="448.3806" y2="448.3806"/><ellipse cx="619.27" cy="462.0291" fill="#84BE84" rx="3" ry="3" style="stroke:#038048;stroke-width:1;"/><text fill="#000000" font-family="sans-serif" font-size="14" lengthAdjust="spacing" textLength="145.585" x="628.27" y="465.3757">getSiguiente(): Nodo</text><ellipse cx="619.27" cy="478.3259" fill="#84BE84" rx="3" ry="3" style="stroke:#038048;stroke-width:1;"/><text fill="#000000" font-family="sans-serif" font-size="14" lengthAdjust="spacing" textLength="155.3262" x="628.27" y="481.6726">getPersona(): Persona</text></g><g id="elem_N1"><path d="M913.97,419.8169 L913.97,444.9497 A0,0 0 0 0 913.97,444.9497 L1174.68,444.9497 L600.6,589.4069 L1182.68,444.9497 L1539.8826,444.9497 A0,0 0 0 0 1539.8826,444.9497 L1539.8826,429.8169 L1529.8826,419.8169 L913.97,419.8169 A0,0 0 0 0 913.97,419.8169 " fill="#FEFFDD" style="stroke:#181818;stroke-width:0.5;"/><path d="M1529.8826,419.8169 L1529.8826,429.8169 L1539.8826,429.8169 L1529.8826,419.8169 " fill="#FEFFDD" style="stroke:#181818;stroke-width:0.5;"/><text fill="#000000" font-family="sans-serif" font-size="13" lengthAdjust="spacing" textLength="604.9126" x="919.97" y="436.8838">manuel, copia y referencia apuntan al mismo objeto base ('manuel') o a una copia profunda.</text></g><g id="elem_N2"><path d="M902.49,229.6269 L902.49,254.7597 A0,0 0 0 0 902.49,254.7597 L1257.42,254.7597 L789.94,402.8769 L1265.42,254.7597 L1697.3772,254.7597 A0,0 0 0 0 1697.3772,254.7597 L1697.3772,239.6269 L1687.3772,229.6269 L902.49,229.6269 A0,0 0 0 0 902.49,229.6269 " fill="#FEFFDD" style="stroke:#181818;stroke-width:0.5;"/><path d="M1687.3772,229.6269 L1687.3772,239.6269 L1697.3772,239.6269 L1687.3772,229.6269 " fill="#FEFFDD" style="stroke:#181818;stroke-width:0.5;"/><text fill="#000000" font-family="sans-serif" font-size="13" lengthAdjust="spacing" textLength="773.8872" x="908.49" y="246.6938">Lista contiene nodos con referencias al mismo objeto o copias, pero todas se basan en solo dos instancias de Persona.</text></g><!--link Principal to Persona--><g id="link_Principal_Persona"><path codeLine="27" d="M376.76,88.9069 C267.28,118.6069 6,205.6569 73.93,345.7869 C149.79,502.2969 359.6259,567.7619 467.7159,592.0419 " fill="none" id="Principal-to-Persona" style="stroke:#181818;stroke-width:1;"/><polygon fill="#181818" points="473.57,593.3569,465.6655,587.4816,468.6916,592.261,463.9121,595.2871,473.57,593.3569" style="stroke:#181818;stroke-width:1;"/><text fill="#000000" font-family="sans-serif" font-size="13" lengthAdjust="spacing" textLength="222.4028" x="74.93" y="341.8538">manuel: Persona('Manuel', '1234')</text></g><!--link Principal to Persona--><g id="link_Principal_Persona"><path codeLine="28" d="M399.68,108.9769 C365.59,159.2669 309.04,260.6369 337.93,345.7869 C368.39,435.5669 439.477,514.4762 488.217,561.3862 " fill="none" id="Principal-to-Persona-1" style="stroke:#181818;stroke-width:1;"/><polygon fill="#181818" points="492.54,565.5469,488.8293,556.4238,488.9375,562.0796,483.2817,562.1878,492.54,565.5469" style="stroke:#181818;stroke-width:1;"/><text fill="#000000" font-family="sans-serif" font-size="13" lengthAdjust="spacing" textLength="154.4194" x="338.93" y="341.8538">copia: Persona(manuel)</text></g><!--link Principal to Persona--><g id="link_Principal_Persona"><path codeLine="29" d="M433.94,108.7969 C450.13,155.9669 480.34,248.2669 497.93,328.7869 C516.14,412.1369 527.1342,505.5975 532.6142,559.5975 " fill="none" id="Principal-to-Persona-2" style="stroke:#181818;stroke-width:1;"/><polygon fill="#181818" points="533.22,565.5669,536.2909,556.209,532.7152,560.5924,528.3318,557.0167,533.22,565.5669" style="stroke:#181818;stroke-width:1;"/><text fill="#000000" font-family="sans-serif" font-size="13" lengthAdjust="spacing" textLength="123.4556" x="502.93" y="341.8538">referencia: manuel</text></g><!--link Principal to Lista--><g id="link_Principal_Lista"><path codeLine="30" d="M469.35,97.4569 C494.92,108.8569 527.05,123.7869 554.93,138.5969 C581.87,152.9169 605.3675,166.4793 631.2975,182.1793 " fill="none" id="Principal-to-Lista" style="stroke:#181818;stroke-width:1;"/><polygon fill="#181818" points="636.43,185.2869,630.803,177.2038,632.1529,182.6972,626.6595,184.0471,636.43,185.2869" style="stroke:#181818;stroke-width:1;"/><text fill="#000000" font-family="sans-serif" font-size="13" lengthAdjust="spacing" textLength="27.0601" x="584.93" y="151.6638">lista</text></g><!--link Lista to Nodo--><g id="link_Lista_Nodo"><path codeLine="31" d="M717.2,299.1469 C713.88,323.1969 710.8226,345.3135 707.4926,369.3735 " fill="none" id="Lista-to-Nodo" style="stroke:#181818;stroke-width:1;"/><polygon fill="#181818" points="706.67,375.3169,711.8661,366.9502,707.3555,370.3641,703.9416,365.8535,706.67,375.3169" style="stroke:#181818;stroke-width:1;"/><text fill="#000000" font-family="sans-serif" font-size="13" lengthAdjust="spacing" textLength="51.1685" x="713.93" y="341.8538">primero</text></g><!--link Nodo to Persona--><g id="link_Nodo_Persona"><path codeLine="32" d="M646.33,489.1869 C622.87,514.0869 599.8746,538.4799 578.5146,561.1499 " fill="none" id="Nodo-to-Persona" style="stroke:#181818;stroke-width:1;"/><polygon fill="#181818" points="574.4,565.5169,583.4832,561.7095,577.8288,561.8778,577.6606,556.2234,574.4,565.5169" style="stroke:#181818;stroke-width:1;"/><text fill="#000000" font-family="sans-serif" font-size="13" lengthAdjust="spacing" textLength="52.5269" x="618.93" y="532.0438">persona</text></g><!--link Nodo to Nodo--><g id="link_Nodo_Nodo"><path codeLine="33" d="M789.86,415.0269 C809.96,416.6569 824.59,422.4469 824.59,432.3769 C824.59,442.3169 815.9404,447.6119 795.8404,449.2419 " fill="none" id="Nodo-to-Nodo" style="stroke:#181818;stroke-width:1;"/><polygon fill="#181818" points="789.86,449.7269,799.1539,452.9863,794.8436,449.3227,798.5072,445.0125,789.86,449.7269" style="stroke:#181818;stroke-width:1;"/><text fill="#000000" font-family="sans-serif" font-size="13" lengthAdjust="spacing" textLength="59.8203" x="830.59" y="436.9438">siguiente</text></g><!--SRC=[VLD1JiCm4Bpx5QjSaeWMgOLJ3Zm0GONK5pZ9jZ9Al97j713YLJo1Zx69xJXj1RautftT6O_NJhaEuNcqJfrK8nlrywsXHQ3w7HrPU4DZIKj03JtsP9GKekcaJPbF0VnjuUYCqcVGrDS6BsEjLk9hgUDGemRPXSfUAbsKAV-Yh4jT3zGI34RrQ6WEtO7I5esJ9WWe1hzMKL4PS0rffr3ZBQ22cgX3gGEIQiUufI7BhOBqSYbA0cT9KLzq8N2iLLjr7fdVOM0vepl6KC6D9r1AHV9BHf7SscwV5hOAibxg4Ri5NEIlSo3VGBxRFppcPVPtRKE3IdOKljL_1GPFQ91pNENHrs1_QmpjffzC-FsKcRtWHBZ4JCo1Au9WtoePonONCo4qEOmdty1y2lY090xaC6edDR2eNjcUmXX3BIr2aVlAl0G22ICp-nQ3eTEeMtcVWUJhtGKUVuGuHJpOBRy7tgu8xGqJ-PvsCqq4WQEMGKpE2bWNlo9B7S7KYSUOfSvD-Bq5BuA4lJZirXQ9mtunvHS0]--></g></svg>