<svg xmlns="http://www.w3.org/2000/svg" xmlns:xlink="http://www.w3.org/1999/xlink" contentStyleType="text/css" height="697px" preserveAspectRatio="none" style="width:341px;height:697px;background:#FFFFFF;" version="1.1" viewBox="0 0 341 697" width="341px" zoomAndPan="magnify"><defs/><g><!--class Persona--><g id="elem_Persona"><rect codeLine="1" fill="#F1F1F1" height="145.7813" id="Persona" rx="2.5" ry="2.5" style="stroke:#181818;stroke-width:0.5;" width="185.5098" x="29.98" y="148.3"/><ellipse cx="90.4234" cy="164.3" fill="#ADD1B2" rx="11" ry="11" style="stroke:#181818;stroke-width:1;"/><path d="M93.3921,169.9406 Q92.814,170.2375 92.1734,170.3781 Q91.5327,170.5344 90.8296,170.5344 Q88.3296,170.5344 87.0015,168.8937 Q85.689,167.2375 85.689,164.1125 Q85.689,160.9875 87.0015,159.3312 Q88.3296,157.675 90.8296,157.675 Q91.5327,157.675 92.1734,157.8312 Q92.8296,157.9875 93.3921,158.2844 L93.3921,161.0031 Q92.7671,160.425 92.1734,160.1594 Q91.5796,159.8781 90.9546,159.8781 Q89.6109,159.8781 88.9234,160.9562 Q88.2359,162.0187 88.2359,164.1125 Q88.2359,166.2062 88.9234,167.2844 Q89.6109,168.3469 90.9546,168.3469 Q91.5796,168.3469 92.1734,168.0812 Q92.7671,167.8 93.3921,167.2219 L93.3921,169.9406 Z " fill="#000000"/><text fill="#000000" font-family="sans-serif" font-size="14" lengthAdjust="spacing" textLength="56.123" x="110.9234" y="169.1467">Persona</text><line style="stroke:#181818;stroke-width:0.5;" x1="30.98" x2="214.4898" y1="180.3" y2="180.3"/><rect fill="none" height="6" style="stroke:#C82930;stroke-width:1;" width="6" x="37.98" y="190.9484"/><text fill="#000000" font-family="sans-serif" font-size="14" lengthAdjust="spacing" textLength="105.2803" x="49.98" y="197.2951">nombre: String</text><rect fill="none" height="6" style="stroke:#C82930;stroke-width:1;" width="6" x="37.98" y="207.2453"/><text fill="#000000" font-family="sans-serif" font-size="14" lengthAdjust="spacing" textLength="72.5977" x="49.98" y="213.592">dni: String</text><line style="stroke:#181818;stroke-width:0.5;" x1="30.98" x2="214.4898" y1="220.8937" y2="220.8937"/><ellipse cx="40.98" cy="234.5422" fill="#84BE84" rx="3" ry="3" style="stroke:#038048;stroke-width:1;"/><text fill="#000000" font-family="sans-serif" font-size="14" lengthAdjust="spacing" textLength="159.5098" x="49.98" y="237.8889">Persona(String, String)</text><ellipse cx="40.98" cy="250.8391" fill="#84BE84" rx="3" ry="3" style="stroke:#038048;stroke-width:1;"/><text fill="#000000" font-family="sans-serif" font-size="14" lengthAdjust="spacing" textLength="123.1699" x="49.98" y="254.1857">Persona(Persona)</text><ellipse cx="40.98" cy="267.1359" fill="#84BE84" rx="3" ry="3" style="stroke:#038048;stroke-width:1;"/><text fill="#000000" font-family="sans-serif" font-size="14" lengthAdjust="spacing" textLength="140.793" x="49.98" y="270.4826">getNombre(): String</text><ellipse cx="40.98" cy="283.4328" fill="#84BE84" rx="3" ry="3" style="stroke:#038048;stroke-width:1;"/><text fill="#000000" font-family="sans-serif" font-size="14" lengthAdjust="spacing" textLength="108.4043" x="49.98" y="286.7795">getDni(): String</text></g><!--class Nodo--><g id="elem_Nodo"><rect codeLine="10" fill="#F1F1F1" height="129.4844" id="Nodo" rx="2.5" ry="2.5" style="stroke:#181818;stroke-width:0.5;" width="181.3262" x="44.07" y="371.08"/><ellipse cx="112.238" cy="387.08" fill="#ADD1B2" rx="11" ry="11" style="stroke:#181818;stroke-width:1;"/><path d="M115.2067,392.7206 Q114.6286,393.0175 113.988,393.1581 Q113.3473,393.3144 112.6442,393.3144 Q110.1442,393.3144 108.8161,391.6738 Q107.5036,390.0175 107.5036,386.8925 Q107.5036,383.7675 108.8161,382.1113 Q110.1442,380.455 112.6442,380.455 Q113.3473,380.455 113.988,380.6113 Q114.6442,380.7675 115.2067,381.0644 L115.2067,383.7831 Q114.5817,383.205 113.988,382.9394 Q113.3942,382.6581 112.7692,382.6581 Q111.4255,382.6581 110.738,383.7363 Q110.0505,384.7988 110.0505,386.8925 Q110.0505,388.9863 110.738,390.0644 Q111.4255,391.1269 112.7692,391.1269 Q113.3942,391.1269 113.988,390.8613 Q114.5817,390.58 115.2067,390.0019 L115.2067,392.7206 Z " fill="#000000"/><text fill="#000000" font-family="sans-serif" font-size="14" lengthAdjust="spacing" textLength="36.4902" x="132.738" y="391.9267">Nodo</text><line style="stroke:#181818;stroke-width:0.5;" x1="45.07" x2="224.3962" y1="403.08" y2="403.08"/><rect fill="none" height="6" style="stroke:#C82930;stroke-width:1;" width="6" x="52.07" y="413.7284"/><text fill="#000000" font-family="sans-serif" font-size="14" lengthAdjust="spacing" textLength="121.8574" x="64.07" y="420.0751">persona: Persona</text><rect fill="none" height="6" style="stroke:#C82930;stroke-width:1;" width="6" x="52.07" y="430.0253"/><text fill="#000000" font-family="sans-serif" font-size="14" lengthAdjust="spacing" textLength="110.0791" x="64.07" y="436.372">siguiente: Nodo</text><line style="stroke:#181818;stroke-width:0.5;" x1="45.07" x2="224.3962" y1="443.6738" y2="443.6738"/><ellipse cx="55.07" cy="457.3222" fill="#84BE84" rx="3" ry="3" style="stroke:#038048;stroke-width:1;"/><text fill="#000000" font-family="sans-serif" font-size="14" lengthAdjust="spacing" textLength="148.9277" x="64.07" y="460.6689">Nodo(Persona, Nodo)</text><ellipse cx="55.07" cy="473.6191" fill="#84BE84" rx="3" ry="3" style="stroke:#038048;stroke-width:1;"/><text fill="#000000" font-family="sans-serif" font-size="14" lengthAdjust="spacing" textLength="155.3262" x="64.07" y="476.9657">getPersona(): Persona</text><ellipse cx="55.07" cy="489.9159" fill="#84BE84" rx="3" ry="3" style="stroke:#038048;stroke-width:1;"/><text fill="#000000" font-family="sans-serif" font-size="14" lengthAdjust="spacing" textLength="145.585" x="64.07" y="493.2626">getSiguiente(): Nodo</text></g><!--class Lista--><g id="elem_Lista"><rect codeLine="18" fill="#F1F1F1" height="113.1875" id="Lista" rx="2.5" ry="2.5" style="stroke:#181818;stroke-width:0.5;" width="254.915" x="79.28" y="577.56"/><ellipse cx="185.9616" cy="593.56" fill="#ADD1B2" rx="11" ry="11" style="stroke:#181818;stroke-width:1;"/><path d="M188.9304,599.2006 Q188.3523,599.4975 187.7116,599.6381 Q187.071,599.7944 186.3679,599.7944 Q183.8679,599.7944 182.5398,598.1538 Q181.2273,596.4975 181.2273,593.3725 Q181.2273,590.2475 182.5398,588.5913 Q183.8679,586.935 186.3679,586.935 Q187.071,586.935 187.7116,587.0913 Q188.3679,587.2475 188.9304,587.5444 L188.9304,590.2631 Q188.3054,589.685 187.7116,589.4194 Q187.1179,589.1381 186.4929,589.1381 Q185.1491,589.1381 184.4616,590.2163 Q183.7741,591.2788 183.7741,593.3725 Q183.7741,595.4663 184.4616,596.5444 Q185.1491,597.6069 186.4929,597.6069 Q187.1179,597.6069 187.7116,597.3413 Q188.3054,597.06 188.9304,596.4819 L188.9304,599.2006 Z " fill="#000000"/><text fill="#000000" font-family="sans-serif" font-size="14" lengthAdjust="spacing" textLength="33.0518" x="206.4616" y="598.4067">Lista</text><line style="stroke:#181818;stroke-width:0.5;" x1="80.28" x2="333.195" y1="609.56" y2="609.56"/><rect fill="none" height="6" style="stroke:#C82930;stroke-width:1;" width="6" x="87.28" y="620.2084"/><text fill="#000000" font-family="sans-serif" font-size="14" lengthAdjust="spacing" textLength="100.7617" x="99.28" y="626.5551">primero: Nodo</text><line style="stroke:#181818;stroke-width:0.5;" x1="80.28" x2="333.195" y1="633.8569" y2="633.8569"/><ellipse cx="90.28" cy="647.5053" fill="#84BE84" rx="3" ry="3" style="stroke:#038048;stroke-width:1;"/><text fill="#000000" font-family="sans-serif" font-size="14" lengthAdjust="spacing" textLength="177.4199" x="99.28" y="650.852">insertarPersona(Persona)</text><ellipse cx="90.28" cy="663.8022" fill="#84BE84" rx="3" ry="3" style="stroke:#038048;stroke-width:1;"/><text fill="#000000" font-family="sans-serif" font-size="14" lengthAdjust="spacing" textLength="192.8008" x="99.28" y="667.1489">contiene(Persona): boolean</text><ellipse cx="90.28" cy="680.0991" fill="#84BE84" rx="3" ry="3" style="stroke:#038048;stroke-width:1;"/><text fill="#000000" font-family="sans-serif" font-size="14" lengthAdjust="spacing" textLength="228.915" x="99.28" y="683.4457">obtenerPersona(String): Persona</text></g><!--class Principal--><g id="elem_Principal"><rect codeLine="25" fill="#F1F1F1" height="64.2969" id="Principal" rx="2.5" ry="2.5" style="stroke:#181818;stroke-width:0.5;" width="163.4023" x="68.04" y="7"/><ellipse cx="115.5395" cy="23" fill="#ADD1B2" rx="11" ry="11" style="stroke:#181818;stroke-width:1;"/><path d="M118.5083,28.6406 Q117.9301,28.9375 117.2895,29.0781 Q116.6489,29.2344 115.9458,29.2344 Q113.4458,29.2344 112.1176,27.5938 Q110.8051,25.9375 110.8051,22.8125 Q110.8051,19.6875 112.1176,18.0313 Q113.4458,16.375 115.9458,16.375 Q116.6489,16.375 117.2895,16.5313 Q117.9458,16.6875 118.5083,16.9844 L118.5083,19.7031 Q117.8833,19.125 117.2895,18.8594 Q116.6958,18.5781 116.0708,18.5781 Q114.727,18.5781 114.0395,19.6563 Q113.352,20.7188 113.352,22.8125 Q113.352,24.9063 114.0395,25.9844 Q114.727,27.0469 116.0708,27.0469 Q116.6958,27.0469 117.2895,26.7813 Q117.8833,26.5 118.5083,25.9219 L118.5083,28.6406 Z " fill="#000000"/><text fill="#000000" font-family="sans-serif" font-size="14" lengthAdjust="spacing" textLength="59.9033" x="136.0395" y="27.8467">Principal</text><line style="stroke:#181818;stroke-width:0.5;" x1="69.04" x2="230.4423" y1="39" y2="39"/><line style="stroke:#181818;stroke-width:0.5;" x1="69.04" x2="230.4423" y1="47" y2="47"/><ellipse cx="79.04" cy="60.6484" fill="#84BE84" rx="3" ry="3" style="stroke:#038048;stroke-width:1;"/><text fill="#000000" font-family="sans-serif" font-size="14" lengthAdjust="spacing" textLength="137.4023" x="88.04" y="63.9951">main(String[]): void</text></g><!--reverse link Persona to Nodo--><g id="link_Persona_Nodo"><path codeLine="29" d="M127.8345,312.4414 C129.2345,337.2414 129.77,346.84 131.13,370.93 " fill="none" id="Persona-backto-Nodo" style="stroke:#181818;stroke-width:1;"/><polygon fill="none" points="126.82,294.47,121.8441,312.7796,133.825,312.1032,126.82,294.47" style="stroke:#181818;stroke-width:1;"/><text fill="#000000" font-family="sans-serif" font-size="13" lengthAdjust="spacing" textLength="55.0278" x="130.74" y="337.1469">contains</text></g><!--reverse link Nodo to Lista--><g id="link_Nodo_Lista"><path codeLine="30" d="M162.3421,512.1061 C171.3721,536.7261 177.47,553.35 186.2,577.15 " fill="none" id="Nodo-backto-Lista" style="stroke:#181818;stroke-width:1;"/><polygon fill="#181818" points="158.21,500.84,156.5207,507.8504,162.3421,512.1061,164.0314,505.0957,158.21,500.84" style="stroke:#181818;stroke-width:1;"/><text fill="#000000" font-family="sans-serif" font-size="13" lengthAdjust="spacing" textLength="55.0278" x="176.74" y="543.6269">contains</text><text fill="#000000" font-family="sans-serif" font-size="13" lengthAdjust="spacing" textLength="8.271" x="152.3551" y="520.8458">1</text><text fill="#000000" font-family="sans-serif" font-size="13" lengthAdjust="spacing" textLength="8.271" x="175.226" y="566.3636">1</text></g><!--link Principal to Persona--><g id="link_Principal_Persona"><path codeLine="32" d="M67.81,61.46 C48.49,70.52 30.2,83.3 18.74,101.3 C6,121.31 9.7501,136.8889 25.5901,154.6789 " fill="none" id="Principal-to-Persona" style="stroke:#181818;stroke-width:1;"/><polygon fill="#181818" points="29.58,159.16,26.5825,149.7784,26.2551,155.4257,20.6077,155.0983,29.58,159.16" style="stroke:#181818;stroke-width:1;"/><text fill="#000000" font-family="sans-serif" font-size="13" lengthAdjust="spacing" textLength="48.7183" x="19.74" y="114.3669">manuel</text></g><!--link Principal to Persona--><g id="link_Principal_Persona"><path codeLine="33" d="M123.53,71.64 C117.48,80.67 111.9,90.9 108.74,101.3 C104.23,116.11 103.0397,126.3901 104.3197,142.0001 " fill="none" id="Principal-to-Persona-1" style="stroke:#181818;stroke-width:1;"/><polygon fill="#181818" points="104.81,147.98,108.0611,138.6832,104.4014,142.9967,100.0879,139.337,104.81,147.98" style="stroke:#181818;stroke-width:1;"/><text fill="#000000" font-family="sans-serif" font-size="13" lengthAdjust="spacing" textLength="34.9312" x="109.74" y="114.3669">copia</text></g><!--link Principal to Persona--><g id="link_Principal_Persona"><path codeLine="34" d="M151.03,71.45 C151.18,85.79 150.76,102.96 148.74,118.3 C147.46,127.98 146.8715,132.2107 144.6915,142.1007 " fill="none" id="Principal-to-Persona-2" style="stroke:#181818;stroke-width:1;"/><polygon fill="#181818" points="143.4,147.96,149.2435,140.032,144.4763,143.0772,141.4311,138.31,143.4,147.96" style="stroke:#181818;stroke-width:1;"/><text fill="#000000" font-family="sans-serif" font-size="13" lengthAdjust="spacing" textLength="66.2251" x="151.74" y="114.3669">referencia</text></g><!--link Principal to Lista--><g id="link_Principal_Lista"><path codeLine="35" d="M200.96,71.57 C210.99,80.01 220.37,90 226.74,101.3 C237.08,119.64 230.93,127.32 232.74,148.3 C246.18,304.34 246.07,343.97 242.74,500.56 C242.29,521.47 245.1,527.12 240.74,547.56 C238.63,557.41 237.5456,561.9559 234.0256,571.7159 " fill="none" id="Principal-to-Lista" style="stroke:#181818;stroke-width:1;"/><polygon fill="#181818" points="231.99,577.36,238.8062,570.2508,233.6863,572.6565,231.2806,567.5367,231.99,577.36" style="stroke:#181818;stroke-width:1;"/><text fill="#000000" font-family="sans-serif" font-size="13" lengthAdjust="spacing" textLength="27.0601" x="245.74" y="337.1469">lista</text></g><!--SRC=[VLAnReCm4Dtv2YjJQEAXAwewTQoYI1ch3WQkw2IuGxQJ3ct_lMTZ4uZQi1n-xzsxvuEcDywf8rZ7PDHNeUJHYdYeBLJgv2rIby2MS8NiSjjs0lU9B6_OL3FSWJz4-srvOoVC2-42_YcA9kOxSCjpk77og_A013lipWZa9NQG9y_mcXFiuscH8oSirrwHEsMxm4R3ESqhEd_TrMXn0CkhgKWEh3VsdnKqJ5wyOSOhLJFtO2W9kFP2s_L-5oddA4SX6XnDd-Bir62GKiFRkxHS6DkWpv_uwLlhQPzLp25oLyJpvd6Z7eGCTRhYGb5S9-cMFqa_ppzD9JFf3FrTISCZchiA2nzWGUY_P3bF7-el]--></g></svg>