<svg xmlns="http://www.w3.org/2000/svg" xmlns:xlink="http://www.w3.org/1999/xlink" contentStyleType="text/css" height="474px" preserveAspectRatio="none" style="width:321px;height:474px;background:#FFFFFF;" version="1.1" viewBox="0 0 321 474" width="321px" zoomAndPan="magnify"><defs/><g><!--class Persona--><g id="elem_Persona"><rect codeLine="1" fill="#F1F1F1" height="145.7813" id="Persona" rx="2.5" ry="2.5" style="stroke:#181818;stroke-width:0.5;" width="279.8252" x="21" y="322"/><ellipse cx="128.6011" cy="338" fill="#ADD1B2" rx="11" ry="11" style="stroke:#181818;stroke-width:1;"/><path d="M131.5698,343.6406 Q130.9917,343.9375 130.3511,344.0781 Q129.7104,344.2344 129.0073,344.2344 Q126.5073,344.2344 125.1792,342.5938 Q123.8667,340.9375 123.8667,337.8125 Q123.8667,334.6875 125.1792,333.0313 Q126.5073,331.375 129.0073,331.375 Q129.7104,331.375 130.3511,331.5313 Q131.0073,331.6875 131.5698,331.9844 L131.5698,334.7031 Q130.9448,334.125 130.3511,333.8594 Q129.7573,333.5781 129.1323,333.5781 Q127.7886,333.5781 127.1011,334.6563 Q126.4136,335.7188 126.4136,337.8125 Q126.4136,339.9063 127.1011,340.9844 Q127.7886,342.0469 129.1323,342.0469 Q129.7573,342.0469 130.3511,341.7813 Q130.9448,341.5 131.5698,340.9219 L131.5698,343.6406 Z " fill="#000000"/><text fill="#000000" font-family="sans-serif" font-size="14" lengthAdjust="spacing" textLength="56.123" x="149.1011" y="342.8467">Persona</text><line style="stroke:#181818;stroke-width:0.5;" x1="22" x2="299.8252" y1="354" y2="354"/><rect fill="none" height="6" style="stroke:#C82930;stroke-width:1;" width="6" x="29" y="364.6484"/><text fill="#000000" font-family="sans-serif" font-size="14" lengthAdjust="spacing" textLength="105.2803" x="41" y="370.9951">nombre: String</text><rect fill="none" height="6" style="stroke:#C82930;stroke-width:1;" width="6" x="29" y="380.9453"/><text fill="#000000" font-family="sans-serif" font-size="14" lengthAdjust="spacing" textLength="72.5977" x="41" y="387.292">dni: String</text><line style="stroke:#181818;stroke-width:0.5;" x1="22" x2="299.8252" y1="394.5938" y2="394.5938"/><ellipse cx="32" cy="408.2422" fill="#84BE84" rx="3" ry="3" style="stroke:#038048;stroke-width:1;"/><text fill="#000000" font-family="sans-serif" font-size="14" lengthAdjust="spacing" textLength="253.8252" x="41" y="411.5889">Persona(nombre: String, dni: String)</text><ellipse cx="32" cy="424.5391" fill="#84BE84" rx="3" ry="3" style="stroke:#038048;stroke-width:1;"/><text fill="#000000" font-family="sans-serif" font-size="14" lengthAdjust="spacing" textLength="188.9043" x="41" y="427.8857">Persona(persona: Persona)</text><ellipse cx="32" cy="440.8359" fill="#84BE84" rx="3" ry="3" style="stroke:#038048;stroke-width:1;"/><text fill="#000000" font-family="sans-serif" font-size="14" lengthAdjust="spacing" textLength="232.3262" x="41" y="444.1826">setNombre(nombre: String): void</text><ellipse cx="32" cy="457.1328" fill="#84BE84" rx="3" ry="3" style="stroke:#038048;stroke-width:1;"/><text fill="#000000" font-family="sans-serif" font-size="14" lengthAdjust="spacing" textLength="140.793" x="41" y="460.4795">getNombre(): String</text></g><!--class Lista--><g id="elem_Lista"><rect codeLine="10" fill="#F1F1F1" height="96.8906" id="Lista" rx="2.5" ry="2.5" style="stroke:#181818;stroke-width:0.5;" width="307.9482" x="7" y="148"/><ellipse cx="140.1982" cy="164" fill="#ADD1B2" rx="11" ry="11" style="stroke:#181818;stroke-width:1;"/><path d="M143.167,169.6406 Q142.5889,169.9375 141.9482,170.0781 Q141.3076,170.2344 140.6045,170.2344 Q138.1045,170.2344 136.7764,168.5938 Q135.4639,166.9375 135.4639,163.8125 Q135.4639,160.6875 136.7764,159.0313 Q138.1045,157.375 140.6045,157.375 Q141.3076,157.375 141.9482,157.5313 Q142.6045,157.6875 143.167,157.9844 L143.167,160.7031 Q142.542,160.125 141.9482,159.8594 Q141.3545,159.5781 140.7295,159.5781 Q139.3857,159.5781 138.6982,160.6563 Q138.0107,161.7188 138.0107,163.8125 Q138.0107,165.9063 138.6982,166.9844 Q139.3857,168.0469 140.7295,168.0469 Q141.3545,168.0469 141.9482,167.7813 Q142.542,167.5 143.167,166.9219 L143.167,169.6406 Z " fill="#000000"/><text fill="#000000" font-family="sans-serif" font-size="14" lengthAdjust="spacing" textLength="33.0518" x="160.6982" y="168.8467">Lista</text><line style="stroke:#181818;stroke-width:0.5;" x1="8" x2="313.9482" y1="180" y2="180"/><rect fill="none" height="6" style="stroke:#C82930;stroke-width:1;" width="6" x="15" y="190.6484"/><text fill="#000000" font-family="sans-serif" font-size="14" lengthAdjust="spacing" textLength="215.0381" x="27" y="196.9951">personas: ArrayList&lt;Persona&gt;</text><line style="stroke:#181818;stroke-width:0.5;" x1="8" x2="313.9482" y1="204.2969" y2="204.2969"/><ellipse cx="18" cy="217.9453" fill="#84BE84" rx="3" ry="3" style="stroke:#038048;stroke-width:1;"/><text fill="#000000" font-family="sans-serif" font-size="14" lengthAdjust="spacing" textLength="281.9482" x="27" y="221.292">insertarPersona(persona: Persona): void</text><ellipse cx="18" cy="234.2422" fill="#84BE84" rx="3" ry="3" style="stroke:#038048;stroke-width:1;"/><text fill="#000000" font-family="sans-serif" font-size="14" lengthAdjust="spacing" textLength="137.8467" x="27" y="237.5889">mostrarLista(): void</text></g><!--class Principal--><g id="elem_Principal"><rect codeLine="16" fill="#F1F1F1" height="64.2969" id="Principal" rx="2.5" ry="2.5" style="stroke:#181818;stroke-width:0.5;" width="203.085" x="59.5" y="7"/><ellipse cx="126.8408" cy="23" fill="#ADD1B2" rx="11" ry="11" style="stroke:#181818;stroke-width:1;"/><path d="M129.8096,28.6406 Q129.2314,28.9375 128.5908,29.0781 Q127.9502,29.2344 127.2471,29.2344 Q124.7471,29.2344 123.4189,27.5938 Q122.1064,25.9375 122.1064,22.8125 Q122.1064,19.6875 123.4189,18.0313 Q124.7471,16.375 127.2471,16.375 Q127.9502,16.375 128.5908,16.5313 Q129.2471,16.6875 129.8096,16.9844 L129.8096,19.7031 Q129.1846,19.125 128.5908,18.8594 Q127.9971,18.5781 127.3721,18.5781 Q126.0283,18.5781 125.3408,19.6563 Q124.6533,20.7188 124.6533,22.8125 Q124.6533,24.9063 125.3408,25.9844 Q126.0283,27.0469 127.3721,27.0469 Q127.9971,27.0469 128.5908,26.7813 Q129.1846,26.5 129.8096,25.9219 L129.8096,28.6406 Z " fill="#000000"/><text fill="#000000" font-family="sans-serif" font-size="14" lengthAdjust="spacing" textLength="59.9033" x="147.3408" y="27.8467">Principal</text><line style="stroke:#181818;stroke-width:0.5;" x1="60.5" x2="261.585" y1="39" y2="39"/><line style="stroke:#181818;stroke-width:0.5;" x1="60.5" x2="261.585" y1="47" y2="47"/><ellipse cx="70.5" cy="60.6484" fill="#84BE84" rx="3" ry="3" style="stroke:#038048;stroke-width:1;"/><text fill="#000000" font-family="sans-serif" font-size="14" lengthAdjust="spacing" textLength="177.085" x="79.5" y="63.9951">main(args: String[]): void</text></g><!--link Principal to Lista--><g id="link_Principal_Lista"><path codeLine="20" d="M161,71.09 C161,93.07 161,116.95 161,141.91 " fill="none" id="Principal-to-Lista" style="stroke:#181818;stroke-width:1;"/><polygon fill="#181818" points="161,147.91,165,138.91,161,142.91,157,138.91,161,147.91" style="stroke:#181818;stroke-width:1;"/><text fill="#000000" font-family="sans-serif" font-size="13" lengthAdjust="spacing" textLength="22.9785" x="162" y="114.0669">usa</text></g><!--link Lista to Persona--><g id="link_Lista_Persona"><path codeLine="21" d="M161,245.07 C161,268.12 161,290.31 161,315.93 " fill="none" id="Lista-to-Persona" style="stroke:#181818;stroke-width:1;"/><polygon fill="#181818" points="161,321.93,165,312.93,161,316.93,157,312.93,161,321.93" style="stroke:#181818;stroke-width:1;"/><text fill="#000000" font-family="sans-serif" font-size="13" lengthAdjust="spacing" textLength="56.2847" x="162" y="288.0669">contiene</text></g><!--SRC=[TP7F2i8m3CRlUueSDtGlK6JWNMJWKJp4hep2bewa2YA-kzjizm_ifUNBB_c-KDsW29I6nH72Eu7-v42klRDHSF5igGvYHNQbx69RkiRtIpBReDtlLb68TJ7-F4xP3CiKF9sj0bLFL3P5-II97fSuMV7p2i5851oPyJKK3y6p2DCiYM6F_3VRohjruXbvT4bZQJ8l-opQTjY403sFbbBaMcBIwstHDVDvNeJe2Xw2oUyzgF5N56X7tXeoNm00]--></g></svg>