<svg xmlns="http://www.w3.org/2000/svg" xmlns:xlink="http://www.w3.org/1999/xlink" contentStyleType="text/css" height="206px" preserveAspectRatio="none" style="width:1686px;height:206px;background:#FFFFFF;" version="1.1" viewBox="0 0 1686 206" width="1686px" zoomAndPan="magnify"><defs/><g><!--class Lista--><g id="elem_Lista"><rect codeLine="1" fill="#F1F1F1" height="96.8906" id="Lista" rx="2.5" ry="2.5" style="stroke:#181818;stroke-width:0.5;" width="285.7314" x="308.74" y="86.64"/><ellipse cx="430.8298" cy="102.64" fill="#ADD1B2" rx="11" ry="11" style="stroke:#181818;stroke-width:1;"/><path d="M433.7986,108.2806 Q433.2205,108.5775 432.5798,108.7181 Q431.9392,108.8744 431.2361,108.8744 Q428.7361,108.8744 427.408,107.2338 Q426.0955,105.5775 426.0955,102.4525 Q426.0955,99.3275 427.408,97.6713 Q428.7361,96.015 431.2361,96.015 Q431.9392,96.015 432.5798,96.1713 Q433.2361,96.3275 433.7986,96.6244 L433.7986,99.3431 Q433.1736,98.765 432.5798,98.4994 Q431.9861,98.2181 431.3611,98.2181 Q430.0173,98.2181 429.3298,99.2963 Q428.6423,100.3588 428.6423,102.4525 Q428.6423,104.5463 429.3298,105.6244 Q430.0173,106.6869 431.3611,106.6869 Q431.9861,106.6869 432.5798,106.4213 Q433.1736,106.14 433.7986,105.5619 L433.7986,108.2806 Z " fill="#000000"/><text fill="#000000" font-family="sans-serif" font-size="14" lengthAdjust="spacing" textLength="33.0518" x="451.3298" y="107.4867">Lista</text><line style="stroke:#181818;stroke-width:0.5;" x1="309.74" x2="593.4714" y1="118.64" y2="118.64"/><line style="stroke:#181818;stroke-width:0.5;" x1="309.74" x2="593.4714" y1="126.64" y2="126.64"/><ellipse cx="319.74" cy="140.2884" fill="#84BE84" rx="3" ry="3" style="stroke:#038048;stroke-width:1;"/><text fill="#000000" font-family="sans-serif" font-size="14" lengthAdjust="spacing" textLength="243.1543" x="328.74" y="143.6351">insertarPersona(persona: Persona)</text><ellipse cx="319.74" cy="156.5853" fill="#84BE84" rx="3" ry="3" style="stroke:#038048;stroke-width:1;"/><text fill="#000000" font-family="sans-serif" font-size="14" lengthAdjust="spacing" textLength="258.5352" x="328.74" y="159.932">contiene(persona: Persona): boolean</text><ellipse cx="319.74" cy="172.8822" fill="#84BE84" rx="3" ry="3" style="stroke:#038048;stroke-width:1;"/><text fill="#000000" font-family="sans-serif" font-size="14" lengthAdjust="spacing" textLength="259.7314" x="328.74" y="176.2289">obtenerPersona(dni: String): Persona</text></g><!--class Nodo--><g id="elem_Nodo"><rect codeLine="7" fill="#F1F1F1" height="113.1875" id="Nodo" rx="2.5" ry="2.5" style="stroke:#181818;stroke-width:0.5;" width="181.3262" x="631.94" y="78.49"/><ellipse cx="700.108" cy="94.49" fill="#ADD1B2" rx="11" ry="11" style="stroke:#181818;stroke-width:1;"/><path d="M703.0767,100.1306 Q702.4986,100.4275 701.858,100.5681 Q701.2173,100.7244 700.5142,100.7244 Q698.0142,100.7244 696.6861,99.0838 Q695.3736,97.4275 695.3736,94.3025 Q695.3736,91.1775 696.6861,89.5213 Q698.0142,87.865 700.5142,87.865 Q701.2173,87.865 701.858,88.0213 Q702.5142,88.1775 703.0767,88.4744 L703.0767,91.1931 Q702.4517,90.615 701.858,90.3494 Q701.2642,90.0681 700.6392,90.0681 Q699.2955,90.0681 698.608,91.1463 Q697.9205,92.2088 697.9205,94.3025 Q697.9205,96.3963 698.608,97.4744 Q699.2955,98.5369 700.6392,98.5369 Q701.2642,98.5369 701.858,98.2713 Q702.4517,97.99 703.0767,97.4119 L703.0767,100.1306 Z " fill="#000000"/><text fill="#000000" font-family="sans-serif" font-size="14" lengthAdjust="spacing" textLength="36.4902" x="720.608" y="99.3367">Nodo</text><line style="stroke:#181818;stroke-width:0.5;" x1="632.94" x2="812.2662" y1="110.49" y2="110.49"/><rect fill="none" height="6" style="stroke:#C82930;stroke-width:1;" width="6" x="639.94" y="121.1384"/><text fill="#000000" font-family="sans-serif" font-size="14" lengthAdjust="spacing" textLength="121.8574" x="651.94" y="127.4851">persona: Persona</text><rect fill="none" height="6" style="stroke:#C82930;stroke-width:1;" width="6" x="639.94" y="137.4353"/><text fill="#000000" font-family="sans-serif" font-size="14" lengthAdjust="spacing" textLength="110.0791" x="651.94" y="143.782">siguiente: Nodo</text><line style="stroke:#181818;stroke-width:0.5;" x1="632.94" x2="812.2662" y1="151.0838" y2="151.0838"/><ellipse cx="642.94" cy="164.7322" fill="#84BE84" rx="3" ry="3" style="stroke:#038048;stroke-width:1;"/><text fill="#000000" font-family="sans-serif" font-size="14" lengthAdjust="spacing" textLength="155.3262" x="651.94" y="168.0789">getPersona(): Persona</text><ellipse cx="642.94" cy="181.0291" fill="#84BE84" rx="3" ry="3" style="stroke:#038048;stroke-width:1;"/><text fill="#000000" font-family="sans-serif" font-size="14" lengthAdjust="spacing" textLength="145.585" x="651.94" y="184.3757">getSiguiente(): Nodo</text></g><!--class Persona--><g id="elem_Persona"><rect codeLine="14" fill="#F1F1F1" height="129.4844" id="Persona" rx="2.5" ry="2.5" style="stroke:#181818;stroke-width:0.5;" width="258.3262" x="1421.44" y="70.35"/><ellipse cx="1518.2916" cy="86.35" fill="#ADD1B2" rx="11" ry="11" style="stroke:#181818;stroke-width:1;"/><path d="M1521.2603,91.9906 Q1520.6822,92.2875 1520.0416,92.4281 Q1519.4009,92.5844 1518.6978,92.5844 Q1516.1978,92.5844 1514.8697,90.9438 Q1513.5572,89.2875 1513.5572,86.1625 Q1513.5572,83.0375 1514.8697,81.3813 Q1516.1978,79.725 1518.6978,79.725 Q1519.4009,79.725 1520.0416,79.8813 Q1520.6978,80.0375 1521.2603,80.3344 L1521.2603,83.0531 Q1520.6353,82.475 1520.0416,82.2094 Q1519.4478,81.9281 1518.8228,81.9281 Q1517.4791,81.9281 1516.7916,83.0063 Q1516.1041,84.0688 1516.1041,86.1625 Q1516.1041,88.2563 1516.7916,89.3344 Q1517.4791,90.3969 1518.8228,90.3969 Q1519.4478,90.3969 1520.0416,90.1313 Q1520.6353,89.85 1521.2603,89.2719 L1521.2603,91.9906 Z " fill="#000000"/><text fill="#000000" font-family="sans-serif" font-size="14" lengthAdjust="spacing" textLength="56.123" x="1538.7916" y="91.1967">Persona</text><line style="stroke:#181818;stroke-width:0.5;" x1="1422.44" x2="1678.7662" y1="102.35" y2="102.35"/><rect fill="none" height="6" style="stroke:#C82930;stroke-width:1;" width="6" x="1429.44" y="112.9984"/><text fill="#000000" font-family="sans-serif" font-size="14" lengthAdjust="spacing" textLength="105.2803" x="1441.44" y="119.3451">nombre: String</text><rect fill="none" height="6" style="stroke:#C82930;stroke-width:1;" width="6" x="1429.44" y="129.2953"/><text fill="#000000" font-family="sans-serif" font-size="14" lengthAdjust="spacing" textLength="72.5977" x="1441.44" y="135.642">dni: String</text><line style="stroke:#181818;stroke-width:0.5;" x1="1422.44" x2="1678.7662" y1="142.9438" y2="142.9438"/><ellipse cx="1432.44" cy="156.5922" fill="#84BE84" rx="3" ry="3" style="stroke:#038048;stroke-width:1;"/><text fill="#000000" font-family="sans-serif" font-size="14" lengthAdjust="spacing" textLength="140.793" x="1441.44" y="159.9389">getNombre(): String</text><ellipse cx="1432.44" cy="172.8891" fill="#84BE84" rx="3" ry="3" style="stroke:#038048;stroke-width:1;"/><text fill="#000000" font-family="sans-serif" font-size="14" lengthAdjust="spacing" textLength="108.4043" x="1441.44" y="176.2357">getDni(): String</text><ellipse cx="1432.44" cy="189.1859" fill="#84BE84" rx="3" ry="3" style="stroke:#038048;stroke-width:1;"/><text fill="#000000" font-family="sans-serif" font-size="14" lengthAdjust="spacing" textLength="232.3262" x="1441.44" y="192.5326">setNombre(nombre: String): void</text></g><!--class Usuario--><g id="elem_Usuario"><rect fill="#F1F1F1" height="48" id="Usuario" rx="2.5" ry="2.5" style="stroke:#181818;stroke-width:0.5;" width="85.2041" x="7" y="111.09"/><ellipse cx="22" cy="127.09" fill="#ADD1B2" rx="11" ry="11" style="stroke:#181818;stroke-width:1;"/><path d="M24.9688,132.7306 Q24.3906,133.0275 23.75,133.1681 Q23.1094,133.3244 22.4063,133.3244 Q19.9063,133.3244 18.5781,131.6838 Q17.2656,130.0275 17.2656,126.9025 Q17.2656,123.7775 18.5781,122.1213 Q19.9063,120.465 22.4063,120.465 Q23.1094,120.465 23.75,120.6213 Q24.4063,120.7775 24.9688,121.0744 L24.9688,123.7931 Q24.3438,123.215 23.75,122.9494 Q23.1563,122.6681 22.5313,122.6681 Q21.1875,122.6681 20.5,123.7463 Q19.8125,124.8088 19.8125,126.9025 Q19.8125,128.9963 20.5,130.0744 Q21.1875,131.1369 22.5313,131.1369 Q23.1563,131.1369 23.75,130.8713 Q24.3438,130.59 24.9688,130.0119 L24.9688,132.7306 Z " fill="#000000"/><text fill="#000000" font-family="sans-serif" font-size="14" lengthAdjust="spacing" textLength="53.2041" x="36" y="131.9367">Usuario</text><line style="stroke:#181818;stroke-width:0.5;" x1="8" x2="91.2041" y1="143.09" y2="143.09"/><line style="stroke:#181818;stroke-width:0.5;" x1="8" x2="91.2041" y1="151.09" y2="151.09"/></g><g id="elem_GMN11"><path d="M850.11,99.82 L850.11,131.09 L813.67,135.09 L850.11,139.09 L850.11,170.3513 A0,0 0 0 0 850.11,170.3513 L1223.0939,170.3513 A0,0 0 0 0 1223.0939,170.3513 L1223.0939,109.82 L1213.0939,99.82 L850.11,99.82 A0,0 0 0 0 850.11,99.82 " fill="#FEFFDD" style="stroke:#181818;stroke-width:0.5;"/><path d="M1213.0939,99.82 L1213.0939,109.82 L1223.0939,109.82 L1213.0939,99.82 " fill="#FEFFDD" style="stroke:#181818;stroke-width:0.5;"/><text fill="#000000" font-family="sans-serif" font-size="13" lengthAdjust="spacing" textLength="341.3325" x="856.11" y="116.8869">En la Implementaci&#243;n A, como el Nodo contiene una</text><text fill="#000000" font-family="sans-serif" font-size="13" lengthAdjust="spacing" textLength="234.895" x="856.11" y="132.0197">copia de la persona, solo el nodo de</text><text fill="#000000" font-family="sans-serif" font-size="13" lengthAdjust="spacing" textLength="351.9839" x="856.11" y="147.1525">"manuel" y "referencia" (que apunta al mismo objeto)</text><text fill="#000000" font-family="sans-serif" font-size="13" lengthAdjust="spacing" textLength="128.1401" x="856.11" y="162.2853">se ver&#225;n afectados.</text></g><!--link Usuario to Lista--><g id="link_Usuario_Lista"><path codeLine="22" d="M92.49,149.48 C101.16,151.81 110.28,153.86 118.97,155.09 C180.69,163.81 243.4154,162.1912 302.2754,156.7612 " fill="none" id="Usuario-to-Lista" style="stroke:#181818;stroke-width:1;"/><polygon fill="#181818" points="308.25,156.21,298.9206,153.0537,303.2711,156.6693,299.6555,161.0199,308.25,156.21" style="stroke:#181818;stroke-width:1;"/><text fill="#000000" font-family="sans-serif" font-size="13" lengthAdjust="spacing" textLength="161.3511" x="119.97" y="151.1569">insertarPersona(manuel)</text></g><!--link Usuario to Lista--><g id="link_Usuario_Lista"><path codeLine="23" d="M92.41,119.16 C98.4,117.48 104.54,116.04 110.47,115.09 C149.97,108.77 250.55,112.62 290.47,115.09 C296.38,115.45 296.4202,115.3982 302.5002,115.8982 " fill="none" id="Usuario-to-Lista-1" style="stroke:#181818;stroke-width:1;"/><polygon fill="#181818" points="308.48,116.39,299.8381,111.6658,303.4968,115.9802,299.1824,119.6389,308.48,116.39" style="stroke:#181818;stroke-width:1;"/><text fill="#000000" font-family="sans-serif" font-size="13" lengthAdjust="spacing" textLength="147.564" x="126.97" y="105.1569">insertarPersona(copia)</text></g><!--link Usuario to Lista--><g id="link_Usuario_Lista"><path codeLine="24" d="M92.62,135.09 C143.87,135.09 226.12,135.09 302.3,135.09 " fill="none" id="Usuario-to-Lista-2" style="stroke:#181818;stroke-width:1;"/><polygon fill="#181818" points="308.3,135.09,299.3,131.09,303.3,135.09,299.3,139.09,308.3,135.09" style="stroke:#181818;stroke-width:1;"/><text fill="#000000" font-family="sans-serif" font-size="13" lengthAdjust="spacing" textLength="178.8579" x="111.47" y="128.1569">insertarPersona(referencia)</text></g><!--link Nodo to Persona--><g id="link_Nodo_Persona"><path codeLine="27" d="M763.23,78.02 C777.16,62.97 794.09,48.67 813.1,40.55 C885.24,9.74 1088.23,31.12 1166.1,40.55 C1252.43,51.01 1341.5544,72.5946 1415.4644,93.3946 " fill="none" id="Nodo-to-Persona" style="stroke:#181818;stroke-width:1;"/><polygon fill="#181818" points="1421.24,95.02,1413.6601,88.7315,1416.427,93.6655,1411.4929,96.4323,1421.24,95.02" style="stroke:#181818;stroke-width:1;"/><text fill="#000000" font-family="sans-serif" font-size="13" lengthAdjust="spacing" textLength="351.6221" x="814.1" y="36.4169">new Persona(persona.getNombre(), persona.getDni())</text></g><!--link Usuario to Persona--><g id="link_Usuario_Persona"><path codeLine="30" d="M92.51,120.36 C140.22,104.74 219.9,80.9 290.6,70.35 C678.09,12.53 779.88,47.17 1171.6,40.55 C1282.7,38.67 1316,6 1421.6,40.55 C1441.39,47.03 1455.7293,54.4012 1473.0793,66.4312 " fill="none" id="Usuario-to-Persona" style="stroke:#181818;stroke-width:1;"/><polygon fill="#181818" points="1478.01,69.85,1472.8932,61.4347,1473.9011,67.001,1468.3348,68.0089,1478.01,69.85" style="stroke:#181818;stroke-width:1;"/><text fill="#000000" font-family="sans-serif" font-size="13" lengthAdjust="spacing" textLength="248.1489" x="1172.6" y="36.4169">manuel.setNombre("Manuel Antonio")</text></g><!--SRC=[ZLDBJiCm4Dtd5ADieABq05aW8M2110W9SG37cHOZPoRO3XyX3iCPE08NOsmdQKbPq4sbcJVlpNlZQAkyXolZWuBt0kHtPCYZ2yhTelDCwh3B_nKCXKM6QQPWa72_Nq7DR55H1d8T13RHDMGgk0lEq6OnpHGVHQ7JAZVSyB39yPmvLxtPz28Si4hWBBB1C0eiVkDZwsuSYSqqDEaDq56IkAqTZWlcsix64-DDmaMwMUESpBpg9_XlTe4zisdYBlU-Lyum79yCjwXWVePMKOzsyH-eviweVo4Thj4XwGWl3k2oxIos4fJIvlkBuBI2CuSA4Y7uNWwoDWAsq20Crm6a76cwd6YDYLP0-0ApLxJQoMu9EyMKMrhYh5SaJ1v1gxOMNRIGWukgEOPTRrkzt5jjyowlKmLEAJ0PBXF_nMjdZHuSDj9DCXnzMBKVGK4S49pPF0JWzVR9NVmDNqfOBSUTKnxZLmBzy1npb694XWVxI_1iETkKaGOJiCnkIdY3Sdkc4WwVUWJLzI89SeZMU97Z-X43vozJWdj6z_r9eDQeWshOhmga1gAH7m00]--></g></svg>