<svg xmlns="http://www.w3.org/2000/svg" xmlns:xlink="http://www.w3.org/1999/xlink" contentStyleType="text/css" height="190px" preserveAspectRatio="none" style="width:1702px;height:190px;background:#FFFFFF;" version="1.1" viewBox="0 0 1702 190" width="1702px" zoomAndPan="magnify"><defs/><g><!--class Lista--><g id="elem_Lista"><rect codeLine="1" fill="#F1F1F1" height="96.8906" id="Lista" rx="2.5" ry="2.5" style="stroke:#181818;stroke-width:0.5;" width="285.7314" x="306.74" y="69.8559"/><ellipse cx="428.8298" cy="85.8559" fill="#ADD1B2" rx="11" ry="11" style="stroke:#181818;stroke-width:1;"/><path d="M431.7986,91.4965 Q431.2205,91.7934 430.5798,91.934 Q429.9392,92.0903 429.2361,92.0903 Q426.7361,92.0903 425.408,90.4497 Q424.0955,88.7934 424.0955,85.6684 Q424.0955,82.5434 425.408,80.8872 Q426.7361,79.2309 429.2361,79.2309 Q429.9392,79.2309 430.5798,79.3872 Q431.2361,79.5434 431.7986,79.8403 L431.7986,82.559 Q431.1736,81.9809 430.5798,81.7153 Q429.9861,81.434 429.3611,81.434 Q428.0173,81.434 427.3298,82.5122 Q426.6423,83.5747 426.6423,85.6684 Q426.6423,87.7622 427.3298,88.8403 Q428.0173,89.9028 429.3611,89.9028 Q429.9861,89.9028 430.5798,89.6372 Q431.1736,89.3559 431.7986,88.7778 L431.7986,91.4965 Z " fill="#000000"/><text fill="#000000" font-family="sans-serif" font-size="14" lengthAdjust="spacing" textLength="33.0518" x="449.3298" y="90.7026">Lista</text><line style="stroke:#181818;stroke-width:0.5;" x1="307.74" x2="591.4714" y1="101.8559" y2="101.8559"/><line style="stroke:#181818;stroke-width:0.5;" x1="307.74" x2="591.4714" y1="109.8559" y2="109.8559"/><ellipse cx="317.74" cy="123.5044" fill="#84BE84" rx="3" ry="3" style="stroke:#038048;stroke-width:1;"/><text fill="#000000" font-family="sans-serif" font-size="14" lengthAdjust="spacing" textLength="243.1543" x="326.74" y="126.851">insertarPersona(persona: Persona)</text><ellipse cx="317.74" cy="139.8012" fill="#84BE84" rx="3" ry="3" style="stroke:#038048;stroke-width:1;"/><text fill="#000000" font-family="sans-serif" font-size="14" lengthAdjust="spacing" textLength="258.5352" x="326.74" y="143.1479">contiene(persona: Persona): boolean</text><ellipse cx="317.74" cy="156.0981" fill="#84BE84" rx="3" ry="3" style="stroke:#038048;stroke-width:1;"/><text fill="#000000" font-family="sans-serif" font-size="14" lengthAdjust="spacing" textLength="259.7314" x="326.74" y="159.4448">obtenerPersona(dni: String): Persona</text></g><!--class Nodo--><g id="elem_Nodo"><rect codeLine="7" fill="#F1F1F1" height="113.1875" id="Nodo" rx="2.5" ry="2.5" style="stroke:#181818;stroke-width:0.5;" width="181.3262" x="1023.94" y="61.7059"/><ellipse cx="1092.108" cy="77.7059" fill="#ADD1B2" rx="11" ry="11" style="stroke:#181818;stroke-width:1;"/><path d="M1095.0767,83.3465 Q1094.4986,83.6434 1093.858,83.784 Q1093.2173,83.9403 1092.5142,83.9403 Q1090.0142,83.9403 1088.6861,82.2997 Q1087.3736,80.6434 1087.3736,77.5184 Q1087.3736,74.3934 1088.6861,72.7372 Q1090.0142,71.0809 1092.5142,71.0809 Q1093.2173,71.0809 1093.858,71.2372 Q1094.5142,71.3934 1095.0767,71.6903 L1095.0767,74.409 Q1094.4517,73.8309 1093.858,73.5653 Q1093.2642,73.284 1092.6392,73.284 Q1091.2955,73.284 1090.608,74.3622 Q1089.9205,75.4247 1089.9205,77.5184 Q1089.9205,79.6122 1090.608,80.6903 Q1091.2955,81.7528 1092.6392,81.7528 Q1093.2642,81.7528 1093.858,81.4872 Q1094.4517,81.2059 1095.0767,80.6278 L1095.0767,83.3465 Z " fill="#000000"/><text fill="#000000" font-family="sans-serif" font-size="14" lengthAdjust="spacing" textLength="36.4902" x="1112.608" y="82.5526">Nodo</text><line style="stroke:#181818;stroke-width:0.5;" x1="1024.94" x2="1204.2662" y1="93.7059" y2="93.7059"/><rect fill="none" height="6" style="stroke:#C82930;stroke-width:1;" width="6" x="1031.94" y="104.3544"/><text fill="#000000" font-family="sans-serif" font-size="14" lengthAdjust="spacing" textLength="121.8574" x="1043.94" y="110.701">persona: Persona</text><rect fill="none" height="6" style="stroke:#C82930;stroke-width:1;" width="6" x="1031.94" y="120.6512"/><text fill="#000000" font-family="sans-serif" font-size="14" lengthAdjust="spacing" textLength="110.0791" x="1043.94" y="126.9979">siguiente: Nodo</text><line style="stroke:#181818;stroke-width:0.5;" x1="1024.94" x2="1204.2662" y1="134.2997" y2="134.2997"/><ellipse cx="1034.94" cy="147.9481" fill="#84BE84" rx="3" ry="3" style="stroke:#038048;stroke-width:1;"/><text fill="#000000" font-family="sans-serif" font-size="14" lengthAdjust="spacing" textLength="155.3262" x="1043.94" y="151.2948">getPersona(): Persona</text><ellipse cx="1034.94" cy="164.245" fill="#84BE84" rx="3" ry="3" style="stroke:#038048;stroke-width:1;"/><text fill="#000000" font-family="sans-serif" font-size="14" lengthAdjust="spacing" textLength="145.585" x="1043.94" y="167.5917">getSiguiente(): Nodo</text></g><!--class Persona--><g id="elem_Persona"><rect codeLine="14" fill="#F1F1F1" height="129.4844" id="Persona" rx="2.5" ry="2.5" style="stroke:#181818;stroke-width:0.5;" width="258.3262" x="1437.44" y="53.5659"/><ellipse cx="1534.2916" cy="69.5659" fill="#ADD1B2" rx="11" ry="11" style="stroke:#181818;stroke-width:1;"/><path d="M1537.2603,75.2065 Q1536.6822,75.5034 1536.0416,75.644 Q1535.4009,75.8003 1534.6978,75.8003 Q1532.1978,75.8003 1530.8697,74.1597 Q1529.5572,72.5034 1529.5572,69.3784 Q1529.5572,66.2534 1530.8697,64.5972 Q1532.1978,62.9409 1534.6978,62.9409 Q1535.4009,62.9409 1536.0416,63.0972 Q1536.6978,63.2534 1537.2603,63.5503 L1537.2603,66.269 Q1536.6353,65.6909 1536.0416,65.4253 Q1535.4478,65.144 1534.8228,65.144 Q1533.4791,65.144 1532.7916,66.2222 Q1532.1041,67.2847 1532.1041,69.3784 Q1532.1041,71.4722 1532.7916,72.5503 Q1533.4791,73.6128 1534.8228,73.6128 Q1535.4478,73.6128 1536.0416,73.3472 Q1536.6353,73.0659 1537.2603,72.4878 L1537.2603,75.2065 Z " fill="#000000"/><text fill="#000000" font-family="sans-serif" font-size="14" lengthAdjust="spacing" textLength="56.123" x="1554.7916" y="74.4126">Persona</text><line style="stroke:#181818;stroke-width:0.5;" x1="1438.44" x2="1694.7662" y1="85.5659" y2="85.5659"/><rect fill="none" height="6" style="stroke:#C82930;stroke-width:1;" width="6" x="1445.44" y="96.2144"/><text fill="#000000" font-family="sans-serif" font-size="14" lengthAdjust="spacing" textLength="105.2803" x="1457.44" y="102.561">nombre: String</text><rect fill="none" height="6" style="stroke:#C82930;stroke-width:1;" width="6" x="1445.44" y="112.5112"/><text fill="#000000" font-family="sans-serif" font-size="14" lengthAdjust="spacing" textLength="72.5977" x="1457.44" y="118.8579">dni: String</text><line style="stroke:#181818;stroke-width:0.5;" x1="1438.44" x2="1694.7662" y1="126.1597" y2="126.1597"/><ellipse cx="1448.44" cy="139.8081" fill="#84BE84" rx="3" ry="3" style="stroke:#038048;stroke-width:1;"/><text fill="#000000" font-family="sans-serif" font-size="14" lengthAdjust="spacing" textLength="140.793" x="1457.44" y="143.1548">getNombre(): String</text><ellipse cx="1448.44" cy="156.105" fill="#84BE84" rx="3" ry="3" style="stroke:#038048;stroke-width:1;"/><text fill="#000000" font-family="sans-serif" font-size="14" lengthAdjust="spacing" textLength="108.4043" x="1457.44" y="159.4517">getDni(): String</text><ellipse cx="1448.44" cy="172.4019" fill="#84BE84" rx="3" ry="3" style="stroke:#038048;stroke-width:1;"/><text fill="#000000" font-family="sans-serif" font-size="14" lengthAdjust="spacing" textLength="232.3262" x="1457.44" y="175.7485">setNombre(nombre: String): void</text></g><!--class Usuario--><g id="elem_Usuario"><rect fill="#F1F1F1" height="48" id="Usuario" rx="2.5" ry="2.5" style="stroke:#181818;stroke-width:0.5;" width="85.2041" x="7" y="94.3059"/><ellipse cx="22" cy="110.3059" fill="#ADD1B2" rx="11" ry="11" style="stroke:#181818;stroke-width:1;"/><path d="M24.9688,115.9465 Q24.3906,116.2434 23.75,116.384 Q23.1094,116.5403 22.4063,116.5403 Q19.9063,116.5403 18.5781,114.8997 Q17.2656,113.2434 17.2656,110.1184 Q17.2656,106.9934 18.5781,105.3372 Q19.9063,103.6809 22.4063,103.6809 Q23.1094,103.6809 23.75,103.8372 Q24.4063,103.9934 24.9688,104.2903 L24.9688,107.009 Q24.3438,106.4309 23.75,106.1653 Q23.1563,105.884 22.5313,105.884 Q21.1875,105.884 20.5,106.9622 Q19.8125,108.0247 19.8125,110.1184 Q19.8125,112.2122 20.5,113.2903 Q21.1875,114.3528 22.5313,114.3528 Q23.1563,114.3528 23.75,114.0872 Q24.3438,113.8059 24.9688,113.2278 L24.9688,115.9465 Z " fill="#000000"/><text fill="#000000" font-family="sans-serif" font-size="14" lengthAdjust="spacing" textLength="53.2041" x="36" y="115.1526">Usuario</text><line style="stroke:#181818;stroke-width:0.5;" x1="8" x2="91.2041" y1="126.3059" y2="126.3059"/><line style="stroke:#181818;stroke-width:0.5;" x1="8" x2="91.2041" y1="134.3059" y2="134.3059"/></g><g id="elem_GMN11"><path d="M627.83,83.0359 L627.83,153.5672 A0,0 0 0 0 627.83,153.5672 L989.3754,153.5672 A0,0 0 0 0 989.3754,153.5672 L989.3754,122.3059 L1023.85,118.3059 L989.3754,114.3059 L989.3754,93.0359 L979.3754,83.0359 L627.83,83.0359 A0,0 0 0 0 627.83,83.0359 " fill="#FEFFDD" style="stroke:#181818;stroke-width:0.5;"/><path d="M979.3754,83.0359 L979.3754,93.0359 L989.3754,93.0359 L979.3754,83.0359 " fill="#FEFFDD" style="stroke:#181818;stroke-width:0.5;"/><text fill="#000000" font-family="sans-serif" font-size="13" lengthAdjust="spacing" textLength="302.5166" x="633.83" y="100.1028">En la Implementaci&#243;n B, como el Nodo guarda</text><text fill="#000000" font-family="sans-serif" font-size="13" lengthAdjust="spacing" textLength="272.0796" x="633.83" y="115.2356">la referencia directa del objeto, el cambio</text><text fill="#000000" font-family="sans-serif" font-size="13" lengthAdjust="spacing" textLength="339.0029" x="633.83" y="130.3684">afectar&#225; a todos los nodos que compartan la misma</text><text fill="#000000" font-family="sans-serif" font-size="13" lengthAdjust="spacing" textLength="340.5454" x="633.83" y="145.5013">referencia (manuel y referencia), pero no a la copia.</text></g><!--link Usuario to Lista--><g id="link_Usuario_Lista"><path codeLine="22" d="M92.59,132.8859 C100.92,135.1459 109.65,137.1159 117.97,138.3059 C179.35,147.0959 241.6854,145.5276 300.2754,140.1176 " fill="none" id="Usuario-to-Lista" style="stroke:#181818;stroke-width:1;"/><polygon fill="#181818" points="306.25,139.5659,296.9203,136.4104,301.2712,140.0256,297.6559,144.3765,306.25,139.5659" style="stroke:#181818;stroke-width:1;"/><text fill="#000000" font-family="sans-serif" font-size="13" lengthAdjust="spacing" textLength="161.3511" x="118.97" y="134.3728">insertarPersona(manuel)</text></g><!--link Usuario to Lista--><g id="link_Usuario_Lista"><path codeLine="23" d="M92.68,102.0959 C98.26,100.5359 103.95,99.1959 109.47,98.3059 C148.95,91.8859 249.55,95.8159 289.47,98.3059 C295.06,98.6559 294.7799,98.5771 300.5299,99.0471 " fill="none" id="Usuario-to-Lista-1" style="stroke:#181818;stroke-width:1;"/><polygon fill="#181818" points="306.51,99.5359,297.8658,94.816,301.5266,99.1286,297.214,102.7894,306.51,99.5359" style="stroke:#181818;stroke-width:1;"/><text fill="#000000" font-family="sans-serif" font-size="13" lengthAdjust="spacing" textLength="147.564" x="125.97" y="88.3728">insertarPersona(copia)</text></g><!--link Usuario to Lista--><g id="link_Usuario_Lista"><path codeLine="24" d="M92.41,118.3059 C143.3,118.3059 224.87,118.3059 300.56,118.3059 " fill="none" id="Usuario-to-Lista-2" style="stroke:#181818;stroke-width:1;"/><polygon fill="#181818" points="306.56,118.3059,297.56,114.3059,301.56,118.3059,297.56,122.3059,306.56,118.3059" style="stroke:#181818;stroke-width:1;"/><text fill="#000000" font-family="sans-serif" font-size="13" lengthAdjust="spacing" textLength="178.8579" x="110.47" y="111.3728">insertarPersona(referencia)</text></g><!--link Nodo to Persona--><g id="link_Nodo_Persona"><path codeLine="27" d="M1205.53,118.3059 C1272.04,118.3059 1357.2,118.3059 1431.29,118.3059 " fill="none" id="Nodo-to-Persona" style="stroke:#181818;stroke-width:1;"/><polygon fill="#181818" points="1437.29,118.3059,1428.29,114.3059,1432.29,118.3059,1428.29,122.3059,1437.29,118.3059" style="stroke:#181818;stroke-width:1;"/><text fill="#000000" font-family="sans-serif" font-size="13" lengthAdjust="spacing" textLength="196.1743" x="1223.35" y="111.3728">persona = persona (sin copia)</text></g><!--link Usuario to Persona--><g id="link_Usuario_Persona"><path codeLine="30" d="M92.44,104.2559 C140.04,89.2359 219.47,65.9059 289.6,53.5659 C289.6,53.5659 1222.6,53.5659 1222.6,53.5659 C1293.93,63.4459 1367.0562,76.8706 1431.3362,89.7106 " fill="none" id="Usuario-to-Persona" style="stroke:#181818;stroke-width:1;"/><polygon fill="#181818" points="1437.22,90.8859,1429.1779,85.2005,1432.3169,89.9065,1427.6108,93.0455,1437.22,90.8859" style="stroke:#181818;stroke-width:1;"/><text fill="#000000" font-family="sans-serif" font-size="13" lengthAdjust="spacing" textLength="248.1489" x="640.6" y="19.6328">manuel.setNombre("Manuel Antonio")</text></g><!--SRC=[ZL9jIiGm4FtVKmpxnosk7g2WuDSFGKLOF42QpYwHTAOcgIZYOJo3H_1YJfAs-w62XT8oy-QzDo_HLdaFDyO71My5o7DeoACBojsZyqngtkLl1KEXp33D50mI_knNK3DRL9I1N0U1JNGDcGgMmHbQbzDCyLuKEbcvuuO79qVxpBdgpReNuO1L0cUHDOPHeDp5nzPo78dDD3Jf3T1HahYj7Ou6SstBySHubt2HRgznIMQ_wYVuBhl0djaqqSk3xvKp34UdmrbKi7yChQ8URVaVgEREg7yX7QxG8Ua8BmxWkkqijXAKqkRha-2yWZE9M-BP0A4n3hMmDGZ30G5IJZKTdiYDeLOJucJwctj3C3WKoOjUaGnv1AtQMkZHGeuf2kIbjpVPKEVUyIRTsMsgm1a59iEpn7_rqbcZXtqQwIOPZfQj-hbmGHmGBAu2y6fplwv-HozaaPQZvRJvMbms-TRPFoApmFKZ1bx0P2NXrIe2tDS7A0Z2vS7AI-dlgSUeqoavkUIZDRxDCbiQmmM1rwrYkOYni_08hGocs8yBf0RYdjy0]--></g></svg>