<svg xmlns="http://www.w3.org/2000/svg" xmlns:xlink="http://www.w3.org/1999/xlink" contentStyleType="text/css" height="232px" preserveAspectRatio="none" style="width:1185px;height:232px;background:#FFFFFF;" version="1.1" viewBox="0 0 1185 232" width="1185px" zoomAndPan="magnify"><defs/><g><!--class Persona--><g id="elem_Persona"><rect codeLine="2" fill="#F1F1F1" height="80.5938" id="Persona" rx="2.5" ry="2.5" style="stroke:#181818;stroke-width:0.5;" width="131.2803" x="972.5" y="7"/><ellipse cx="1006.9208" cy="23" fill="#ADD1B2" rx="11" ry="11" style="stroke:#181818;stroke-width:1;"/><path d="M1009.8895,28.6406 Q1009.3114,28.9375 1008.6708,29.0781 Q1008.0301,29.2344 1007.327,29.2344 Q1004.827,29.2344 1003.4989,27.5938 Q1002.1864,25.9375 1002.1864,22.8125 Q1002.1864,19.6875 1003.4989,18.0313 Q1004.827,16.375 1007.327,16.375 Q1008.0301,16.375 1008.6708,16.5313 Q1009.327,16.6875 1009.8895,16.9844 L1009.8895,19.7031 Q1009.2645,19.125 1008.6708,18.8594 Q1008.077,18.5781 1007.452,18.5781 Q1006.1083,18.5781 1005.4208,19.6563 Q1004.7333,20.7188 1004.7333,22.8125 Q1004.7333,24.9063 1005.4208,25.9844 Q1006.1083,27.0469 1007.452,27.0469 Q1008.077,27.0469 1008.6708,26.7813 Q1009.2645,26.5 1009.8895,25.9219 L1009.8895,28.6406 Z " fill="#000000"/><text fill="#000000" font-family="sans-serif" font-size="14" lengthAdjust="spacing" textLength="56.123" x="1025.2365" y="27.8467">Persona</text><line style="stroke:#181818;stroke-width:0.5;" x1="973.5" x2="1102.7803" y1="39" y2="39"/><rect fill="none" height="6" style="stroke:#C82930;stroke-width:1;" width="6" x="980.5" y="49.6484"/><text fill="#000000" font-family="sans-serif" font-size="14" lengthAdjust="spacing" textLength="105.2803" x="992.5" y="55.9951">nombre: String</text><rect fill="none" height="6" style="stroke:#C82930;stroke-width:1;" width="6" x="980.5" y="65.9453"/><text fill="#000000" font-family="sans-serif" font-size="14" lengthAdjust="spacing" textLength="72.5977" x="992.5" y="72.292">dni: String</text><line style="stroke:#181818;stroke-width:0.5;" x1="973.5" x2="1102.7803" y1="79.5938" y2="79.5938"/></g><g id="elem_persona1"><rect fill="#F1F1F1" height="60.8906" style="stroke:#181818;stroke-width:0.5;" width="151.4023" x="117.5" y="165"/><text fill="#000000" font-family="sans-serif" font-size="14" lengthAdjust="spacing" textLength="137.4023" x="124.5" y="179.9951">manuel / referencia</text><line style="stroke:#181818;stroke-width:0.5;" x1="118.5" x2="267.9023" y1="185.2969" y2="185.2969"/><text fill="#000000" font-family="sans-serif" font-size="14" lengthAdjust="spacing" textLength="138.749" x="123.5" y="202.292">nombre = "Manuel"</text><text fill="#000000" font-family="sans-serif" font-size="14" lengthAdjust="spacing" textLength="90.7881" x="123.5" y="218.5889">dni = "1234"</text></g><g id="elem_persona2"><rect fill="#F1F1F1" height="60.8906" style="stroke:#181818;stroke-width:0.5;" width="150.749" x="787.5" y="165"/><text fill="#000000" font-family="sans-serif" font-size="14" lengthAdjust="spacing" textLength="37.6182" x="844.0654" y="179.9951">copia</text><line style="stroke:#181818;stroke-width:0.5;" x1="788.5" x2="937.249" y1="185.2969" y2="185.2969"/><text fill="#000000" font-family="sans-serif" font-size="14" lengthAdjust="spacing" textLength="138.749" x="793.5" y="202.292">nombre = "Manuel"</text><text fill="#000000" font-family="sans-serif" font-size="14" lengthAdjust="spacing" textLength="90.7881" x="793.5" y="218.5889">dni = "1234"</text></g><!--class refManuel--><g id="elem_refManuel"><rect codeLine="20" fill="#F1F1F1" height="48" id="refManuel" rx="2.5" ry="2.5" style="stroke:#181818;stroke-width:0.5;" width="164.207" x="7" y="23.5"/><ellipse cx="22" cy="39.5" fill="#ADD1B2" rx="11" ry="11" style="stroke:#181818;stroke-width:1;"/><path d="M26.1094,45.5 L18.3906,45.5 L18.3906,33.1094 L26.1094,33.1094 L26.1094,35.2656 L20.8438,35.2656 L20.8438,37.9375 L25.6094,37.9375 L25.6094,40.0938 L20.8438,40.0938 L20.8438,43.3438 L26.1094,43.3438 L26.1094,45.5 Z " fill="#000000"/><text fill="#000000" font-family="sans-serif" font-size="14" lengthAdjust="spacing" textLength="132.207" x="36" y="44.3467">Referencia manuel</text><line style="stroke:#181818;stroke-width:0.5;" x1="8" x2="170.207" y1="55.5" y2="55.5"/><line style="stroke:#181818;stroke-width:0.5;" x1="8" x2="170.207" y1="63.5" y2="63.5"/></g><!--class refReferencia--><g id="elem_refReferencia"><rect codeLine="21" fill="#F1F1F1" height="48" id="refReferencia" rx="2.5" ry="2.5" style="stroke:#181818;stroke-width:0.5;" width="183.0605" x="206.5" y="23.5"/><ellipse cx="221.5" cy="39.5" fill="#ADD1B2" rx="11" ry="11" style="stroke:#181818;stroke-width:1;"/><path d="M225.6094,45.5 L217.8906,45.5 L217.8906,33.1094 L225.6094,33.1094 L225.6094,35.2656 L220.3438,35.2656 L220.3438,37.9375 L225.1094,37.9375 L225.1094,40.0938 L220.3438,40.0938 L220.3438,43.3438 L225.6094,43.3438 L225.6094,45.5 Z " fill="#000000"/><text fill="#000000" font-family="sans-serif" font-size="14" lengthAdjust="spacing" textLength="151.0605" x="235.5" y="44.3467">Referencia referencia</text><line style="stroke:#181818;stroke-width:0.5;" x1="207.5" x2="388.5605" y1="55.5" y2="55.5"/><line style="stroke:#181818;stroke-width:0.5;" x1="207.5" x2="388.5605" y1="63.5" y2="63.5"/></g><!--class refCopia--><g id="elem_refCopia"><rect codeLine="22" fill="#F1F1F1" height="48" id="refCopia" rx="2.5" ry="2.5" style="stroke:#181818;stroke-width:0.5;" width="149.3594" x="788.5" y="23.5"/><ellipse cx="803.5" cy="39.5" fill="#ADD1B2" rx="11" ry="11" style="stroke:#181818;stroke-width:1;"/><path d="M807.6094,45.5 L799.8906,45.5 L799.8906,33.1094 L807.6094,33.1094 L807.6094,35.2656 L802.3438,35.2656 L802.3438,37.9375 L807.1094,37.9375 L807.1094,40.0938 L802.3438,40.0938 L802.3438,43.3438 L807.6094,43.3438 L807.6094,45.5 Z " fill="#000000"/><text fill="#000000" font-family="sans-serif" font-size="14" lengthAdjust="spacing" textLength="117.3594" x="817.5" y="44.3467">Referencia copia</text><line style="stroke:#181818;stroke-width:0.5;" x1="789.5" x2="936.8594" y1="55.5" y2="55.5"/><line style="stroke:#181818;stroke-width:0.5;" x1="789.5" x2="936.8594" y1="63.5" y2="63.5"/></g><g id="elem_GMN11"><path d="M304,168 L304,191.5 L268.57,195.5 L304,199.5 L304,223.3984 A0,0 0 0 0 304,223.3984 L751.9561,223.3984 A0,0 0 0 0 751.9561,223.3984 L751.9561,178 L741.9561,168 L304,168 A0,0 0 0 0 304,168 " fill="#FEFFDD" style="stroke:#181818;stroke-width:0.5;"/><path d="M741.9561,168 L741.9561,178 L751.9561,178 L741.9561,168 " fill="#FEFFDD" style="stroke:#181818;stroke-width:0.5;"/><text fill="#000000" font-family="sans-serif" font-size="13" lengthAdjust="spacing" textLength="59.9282" x="310" y="185.0669">Objeto 1:</text><text fill="#000000" font-family="sans-serif" font-size="13" lengthAdjust="spacing" textLength="269.9531" x="310" y="200.1997">- Referenciado por 'manuel' y 'referencia'</text><text fill="#000000" font-family="sans-serif" font-size="13" lengthAdjust="spacing" textLength="426.9561" x="310" y="215.3325">- Ambos apuntan al mismo objeto (misma ubicaci&#243;n en memoria)</text></g><g id="elem_GMN14"><path d="M973.5,168 L973.5,191.5 L938.71,195.5 L973.5,199.5 L973.5,223.3984 A0,0 0 0 0 973.5,223.3984 L1178.728,223.3984 A0,0 0 0 0 1178.728,223.3984 L1178.728,178 L1168.728,168 L973.5,168 A0,0 0 0 0 973.5,168 " fill="#FEFFDD" style="stroke:#181818;stroke-width:0.5;"/><path d="M1168.728,168 L1168.728,178 L1178.728,178 L1168.728,168 " fill="#FEFFDD" style="stroke:#181818;stroke-width:0.5;"/><text fill="#000000" font-family="sans-serif" font-size="13" lengthAdjust="spacing" textLength="59.9282" x="979.5" y="185.0669">Objeto 2:</text><text fill="#000000" font-family="sans-serif" font-size="13" lengthAdjust="spacing" textLength="166.8354" x="979.5" y="200.1997">- Referenciado por 'copia'</text><text fill="#000000" font-family="sans-serif" font-size="13" lengthAdjust="spacing" textLength="184.228" x="979.5" y="215.3325">- Independiente del objeto 1</text></g><!--link refManuel to persona1--><g id="link_refManuel_persona1"><path codeLine="25" d="M105.48,71.63 C123.46,96.88 148.8286,132.4833 168.4486,160.0233 " fill="none" id="refManuel-to-persona1" style="stroke:#181818;stroke-width:1;"/><polygon fill="#181818" points="171.93,164.91,169.9657,155.259,169.0288,160.8377,163.4501,159.9009,171.93,164.91" style="stroke:#181818;stroke-width:1;"/><text fill="#000000" font-family="sans-serif" font-size="13" lengthAdjust="spacing" textLength="58.7856" x="152" y="131.0669">Apunta a</text></g><!--link refReferencia to persona1--><g id="link_refReferencia_persona1"><path codeLine="26" d="M281.36,71.63 C263.2,96.88 237.5825,132.4984 217.7825,160.0384 " fill="none" id="refReferencia-to-persona1" style="stroke:#181818;stroke-width:1;"/><polygon fill="#181818" points="214.28,164.91,222.7815,159.9376,217.1987,160.8503,216.286,155.2676,214.28,164.91" style="stroke:#181818;stroke-width:1;"/><text fill="#000000" font-family="sans-serif" font-size="13" lengthAdjust="spacing" textLength="260.9966" x="247" y="131.0669">Apunta a (misma instancia que manuel)</text></g><!--link refCopia to persona2--><g id="link_refCopia_persona2"><path codeLine="27" d="M863,71.63 C863,96.88 863,131.37 863,158.91 " fill="none" id="refCopia-to-persona2" style="stroke:#181818;stroke-width:1;"/><polygon fill="#181818" points="863,164.91,867,155.91,863,159.91,859,155.91,863,164.91" style="stroke:#181818;stroke-width:1;"/><text fill="#000000" font-family="sans-serif" font-size="13" lengthAdjust="spacing" textLength="175.9824" x="864" y="131.0669">Apunta a (nueva instancia)</text></g><!--SRC=[bLD1ZjH03BptAqgvX94OeGcSHW9fjIUaHQ3b1KxYNNgLjBFT7QGHubKyWO_XJcUI3EmSo2rssQugkqlSy-0vi8lKsD-_75f6HsWw2emlx8CuUesnjWsr17OfEP2FZ30ExAruax3XZCKF0_tsSDBNde_u6hrrZtEmTNQ9_3IcnEVwYQE4rBZdNhmb-8LGgub6Ue5r8P9hB0KZMj1437dQ0HHGzEH6xl16In_OSm8MCu_C0kzHV9f0nHHL6YbqgDw-AnAFowRLrBIHuN_Rb6fcfpQAuwGe-cHbsB0AEA5JKP9LQy7TN_bPocaJ10sZck507NeRr8vSRdI2ZISKzoiqbnV8NJFNbt1Rep9sJRw4dyt8qDlqazJUIYSD-N_k1UIzhUbIxAHfSQVbcfx4B2InttzObth4pQGPP2weNKFXLJA6rZl1yyYp6JjpfhojhYwg5VTzKxqpnebUkBUFtoBaOHcfMyy7YyFHf7jUgRM2GJpAFBHKjULgSZc1R_fQRRYopRE4wQNbbxY-YPtkf4NYT8LPjJAhhZ6RTfYPV7Gj3zhIwgfPTz6TIHoMGNy0]--></g></svg>