<svg xmlns="http://www.w3.org/2000/svg" xmlns:xlink="http://www.w3.org/1999/xlink" contentStyleType="text/css" height="495px" preserveAspectRatio="none" style="width:679px;height:495px;background:#FFFFFF;" version="1.1" viewBox="0 0 679 495" width="679px" zoomAndPan="magnify"><defs/><g><!--class Principal--><g id="elem_Principal"><rect codeLine="1" fill="#F1F1F1" height="64.2969" id="Principal" rx="2.5" ry="2.5" style="stroke:#181818;stroke-width:0.5;" width="193.6514" x="182.02" y="7"/><ellipse cx="244.644" cy="23" fill="#ADD1B2" rx="11" ry="11" style="stroke:#181818;stroke-width:1;"/><path d="M247.6128,28.6406 Q247.0346,28.9375 246.394,29.0781 Q245.7534,29.2344 245.0503,29.2344 Q242.5503,29.2344 241.2221,27.5938 Q239.9096,25.9375 239.9096,22.8125 Q239.9096,19.6875 241.2221,18.0313 Q242.5503,16.375 245.0503,16.375 Q245.7534,16.375 246.394,16.5313 Q247.0503,16.6875 247.6128,16.9844 L247.6128,19.7031 Q246.9878,19.125 246.394,18.8594 Q245.8003,18.5781 245.1753,18.5781 Q243.8315,18.5781 243.144,19.6563 Q242.4565,20.7188 242.4565,22.8125 Q242.4565,24.9063 243.144,25.9844 Q243.8315,27.0469 245.1753,27.0469 Q245.8003,27.0469 246.394,26.7813 Q246.9878,26.5 247.6128,25.9219 L247.6128,28.6406 Z " fill="#000000"/><text fill="#000000" font-family="sans-serif" font-size="14" lengthAdjust="spacing" textLength="59.9033" x="265.144" y="27.8467">Principal</text><line style="stroke:#181818;stroke-width:0.5;" x1="183.02" x2="374.6714" y1="39" y2="39"/><line style="stroke:#181818;stroke-width:0.5;" x1="183.02" x2="374.6714" y1="47" y2="47"/><ellipse cx="193.02" cy="60.6484" fill="#84BE84" rx="3" ry="3" style="stroke:#038048;stroke-width:1;"/><text fill="#000000" font-family="sans-serif" font-size="14" lengthAdjust="spacing" textLength="167.6514" x="202.02" y="63.9951">void main(String[] args)</text></g><!--class Persona1--><g id="elem_Persona1"><rect codeLine="5" fill="#F1F1F1" height="80.5938" id="Persona1" rx="2.5" ry="2.5" style="stroke:#181818;stroke-width:0.5;" width="215.6973" x="7" y="322.18"/><ellipse cx="78.0835" cy="338.18" fill="#ADD1B2" rx="11" ry="11" style="stroke:#181818;stroke-width:1;"/><path d="M81.0522,343.8206 Q80.4741,344.1175 79.8335,344.2581 Q79.1929,344.4144 78.4897,344.4144 Q75.9897,344.4144 74.6616,342.7738 Q73.3491,341.1175 73.3491,337.9925 Q73.3491,334.8675 74.6616,333.2113 Q75.9897,331.555 78.4897,331.555 Q79.1929,331.555 79.8335,331.7113 Q80.4897,331.8675 81.0522,332.1644 L81.0522,334.8831 Q80.4272,334.305 79.8335,334.0394 Q79.2397,333.7581 78.6147,333.7581 Q77.271,333.7581 76.5835,334.8363 Q75.896,335.8988 75.896,337.9925 Q75.896,340.0863 76.5835,341.1644 Q77.271,342.2269 78.6147,342.2269 Q79.2397,342.2269 79.8335,341.9613 Q80.4272,341.68 81.0522,341.1019 L81.0522,343.8206 Z " fill="#000000"/><text fill="#000000" font-family="sans-serif" font-size="14" lengthAdjust="spacing" textLength="65.0303" x="98.5835" y="343.0267">Persona1</text><line style="stroke:#181818;stroke-width:0.5;" x1="8" x2="221.6973" y1="354.18" y2="354.18"/><rect fill="none" height="6" style="stroke:#C82930;stroke-width:1;" width="6" x="15" y="364.8284"/><text fill="#000000" font-family="sans-serif" font-size="14" lengthAdjust="spacing" textLength="189.6973" x="27" y="371.1751">nombre: String = "Manuel"</text><rect fill="none" height="6" style="stroke:#C82930;stroke-width:1;" width="6" x="15" y="381.1253"/><text fill="#000000" font-family="sans-serif" font-size="14" lengthAdjust="spacing" textLength="141.7363" x="27" y="387.472">dni: String = "1234"</text><line style="stroke:#181818;stroke-width:0.5;" x1="8" x2="221.6973" y1="394.7738" y2="394.7738"/></g><!--class Persona2--><g id="elem_Persona2"><rect codeLine="10" fill="#F1F1F1" height="80.5938" id="Persona2" rx="2.5" ry="2.5" style="stroke:#181818;stroke-width:0.5;" width="215.6973" x="258" y="322.18"/><ellipse cx="329.0835" cy="338.18" fill="#ADD1B2" rx="11" ry="11" style="stroke:#181818;stroke-width:1;"/><path d="M332.0522,343.8206 Q331.4741,344.1175 330.8335,344.2581 Q330.1929,344.4144 329.4897,344.4144 Q326.9897,344.4144 325.6616,342.7738 Q324.3491,341.1175 324.3491,337.9925 Q324.3491,334.8675 325.6616,333.2113 Q326.9897,331.555 329.4897,331.555 Q330.1929,331.555 330.8335,331.7113 Q331.4897,331.8675 332.0522,332.1644 L332.0522,334.8831 Q331.4272,334.305 330.8335,334.0394 Q330.2397,333.7581 329.6147,333.7581 Q328.271,333.7581 327.5835,334.8363 Q326.896,335.8988 326.896,337.9925 Q326.896,340.0863 327.5835,341.1644 Q328.271,342.2269 329.6147,342.2269 Q330.2397,342.2269 330.8335,341.9613 Q331.4272,341.68 332.0522,341.1019 L332.0522,343.8206 Z " fill="#000000"/><text fill="#000000" font-family="sans-serif" font-size="14" lengthAdjust="spacing" textLength="65.0303" x="349.5835" y="343.0267">Persona2</text><line style="stroke:#181818;stroke-width:0.5;" x1="259" x2="472.6973" y1="354.18" y2="354.18"/><rect fill="none" height="6" style="stroke:#C82930;stroke-width:1;" width="6" x="266" y="364.8284"/><text fill="#000000" font-family="sans-serif" font-size="14" lengthAdjust="spacing" textLength="189.6973" x="278" y="371.1751">nombre: String = "Manuel"</text><rect fill="none" height="6" style="stroke:#C82930;stroke-width:1;" width="6" x="266" y="381.1253"/><text fill="#000000" font-family="sans-serif" font-size="14" lengthAdjust="spacing" textLength="141.7363" x="278" y="387.472">dni: String = "1234"</text><line style="stroke:#181818;stroke-width:0.5;" x1="259" x2="472.6973" y1="394.7738" y2="394.7738"/></g><!--class Referencias--><g id="elem_Referencias"><rect codeLine="15" fill="#F1F1F1" height="96.8906" id="Referencias" rx="2.5" ry="2.5" style="stroke:#181818;stroke-width:0.5;" width="162.6094" x="197.54" y="148.29"/><ellipse cx="234.151" cy="164.29" fill="#ADD1B2" rx="11" ry="11" style="stroke:#181818;stroke-width:1;"/><path d="M237.1197,169.9306 Q236.5416,170.2275 235.901,170.3681 Q235.2604,170.5244 234.5572,170.5244 Q232.0572,170.5244 230.7291,168.8838 Q229.4166,167.2275 229.4166,164.1025 Q229.4166,160.9775 230.7291,159.3213 Q232.0572,157.665 234.5572,157.665 Q235.2604,157.665 235.901,157.8213 Q236.5572,157.9775 237.1197,158.2744 L237.1197,160.9931 Q236.4947,160.415 235.901,160.1494 Q235.3072,159.8681 234.6822,159.8681 Q233.3385,159.8681 232.651,160.9463 Q231.9635,162.0088 231.9635,164.1025 Q231.9635,166.1963 232.651,167.2744 Q233.3385,168.3369 234.6822,168.3369 Q235.3072,168.3369 235.901,168.0713 Q236.4947,167.79 237.1197,167.2119 L237.1197,169.9306 Z " fill="#000000"/><text fill="#000000" font-family="sans-serif" font-size="14" lengthAdjust="spacing" textLength="82.585" x="252.9534" y="169.1367">Referencias</text><line style="stroke:#181818;stroke-width:0.5;" x1="198.54" x2="359.1494" y1="180.29" y2="180.29"/><ellipse cx="208.54" cy="193.9384" fill="none" rx="3" ry="3" style="stroke:#038048;stroke-width:1;"/><text fill="#000000" font-family="sans-serif" font-size="14" lengthAdjust="spacing" textLength="117.7559" x="217.54" y="197.2851">manuel: Persona</text><ellipse cx="208.54" cy="210.2353" fill="none" rx="3" ry="3" style="stroke:#038048;stroke-width:1;"/><text fill="#000000" font-family="sans-serif" font-size="14" lengthAdjust="spacing" textLength="102.9082" x="217.54" y="213.582">copia: Persona</text><ellipse cx="208.54" cy="226.5322" fill="none" rx="3" ry="3" style="stroke:#038048;stroke-width:1;"/><text fill="#000000" font-family="sans-serif" font-size="14" lengthAdjust="spacing" textLength="136.6094" x="217.54" y="229.8789">referencia: Persona</text><line style="stroke:#181818;stroke-width:0.5;" x1="198.54" x2="359.1494" y1="237.1806" y2="237.1806"/></g><g id="elem_N1"><path d="M55.27,463.78 L55.27,488.9128 A0,0 0 0 0 55.27,488.9128 L174.4175,488.9128 A0,0 0 0 0 174.4175,488.9128 L174.4175,473.78 L164.4175,463.78 L118.85,463.78 L114.85,403.23 L110.85,463.78 L55.27,463.78 A0,0 0 0 0 55.27,463.78 " fill="#FEFFDD" style="stroke:#181818;stroke-width:0.5;"/><path d="M164.4175,463.78 L164.4175,473.78 L174.4175,473.78 L164.4175,463.78 " fill="#FEFFDD" style="stroke:#181818;stroke-width:0.5;"/><text fill="#000000" font-family="sans-serif" font-size="13" lengthAdjust="spacing" textLength="98.1475" x="61.27" y="480.8469">Objeto Original</text></g><g id="elem_N2"><path d="M259.25,463.78 L259.25,488.9128 A0,0 0 0 0 259.25,488.9128 L472.4507,488.9128 A0,0 0 0 0 472.4507,488.9128 L472.4507,473.78 L462.4507,463.78 L369.85,463.78 L365.85,403.23 L361.85,463.78 L259.25,463.78 A0,0 0 0 0 259.25,463.78 " fill="#FEFFDD" style="stroke:#181818;stroke-width:0.5;"/><path d="M462.4507,463.78 L462.4507,473.78 L472.4507,473.78 L462.4507,463.78 " fill="#FEFFDD" style="stroke:#181818;stroke-width:0.5;"/><text fill="#000000" font-family="sans-serif" font-size="13" lengthAdjust="spacing" textLength="192.2007" x="265.25" y="480.8469">Objeto Copia (independiente)</text></g><g id="elem_N3"><path d="M508.79,349.91 L508.79,375.0428 A0,0 0 0 0 508.79,375.0428 L672.9106,375.0428 A0,0 0 0 0 672.9106,375.0428 L672.9106,359.91 L662.9106,349.91 L572.18,349.91 L360.42,240.55 L564.18,349.91 L508.79,349.91 A0,0 0 0 0 508.79,349.91 " fill="#FEFFDD" style="stroke:#181818;stroke-width:0.5;"/><path d="M662.9106,349.91 L662.9106,359.91 L672.9106,359.91 L662.9106,349.91 " fill="#FEFFDD" style="stroke:#181818;stroke-width:0.5;"/><text fill="#000000" font-family="sans-serif" font-size="13" lengthAdjust="spacing" textLength="143.1206" x="514.79" y="366.9769">Variables en memoria</text></g><!--link Principal to Referencias--><g id="link_Principal_Referencias"><path codeLine="21" d="M278.85,71.63 C278.85,93.56 278.85,117.22 278.85,142.04 " fill="none" id="Principal-to-Referencias" style="stroke:#181818;stroke-width:1;"/><polygon fill="#181818" points="278.85,148.04,282.85,139.04,278.85,143.04,274.85,139.04,278.85,148.04" style="stroke:#181818;stroke-width:1;"/><text fill="#000000" font-family="sans-serif" font-size="13" lengthAdjust="spacing" textLength="56.2847" x="279.85" y="114.3569">contiene</text></g><!--link Referencias to Persona1--><g id="link_Referencias_Persona1"><path codeLine="22" d="M197.36,224.84 C172.94,236.7 148.3,253.09 131.85,275.18 C121.91,288.53 118.0868,300.2054 116.1268,316.0454 " fill="none" id="Referencias-to-Persona1" style="stroke:#181818;stroke-width:1;"/><polygon fill="#181818" points="115.39,322,120.4649,313.5593,116.004,317.0378,112.5255,312.5769,115.39,322" style="stroke:#181818;stroke-width:1;"/><text fill="#000000" font-family="sans-serif" font-size="13" lengthAdjust="spacing" textLength="48.7183" x="132.85" y="288.2469">manuel</text></g><!--link Referencias to Persona1--><g id="link_Referencias_Persona1"><path codeLine="23" d="M232.2,245.48 C217.44,260.49 201.01,277.08 185.85,292.18 C176.08,301.91 169.7841,308.1294 159.8241,317.8494 " fill="none" id="Referencias-to-Persona1-1" style="stroke:#181818;stroke-width:1;"/><polygon fill="#181818" points="155.53,322.04,164.7648,318.6168,159.1084,318.5478,159.1774,312.8914,155.53,322.04" style="stroke:#181818;stroke-width:1;"/><text fill="#000000" font-family="sans-serif" font-size="13" lengthAdjust="spacing" textLength="66.2251" x="202.85" y="288.2469">referencia</text></g><!--link Referencias to Persona2--><g id="link_Referencias_Persona2"><path codeLine="24" d="M304.25,245.54 C317.14,269.8 329.7947,293.6215 342.0047,316.6015 " fill="none" id="Referencias-to-Persona2" style="stroke:#181818;stroke-width:1;"/><polygon fill="#181818" points="344.82,321.9,344.1294,312.0754,342.4739,317.4846,337.0648,315.8291,344.82,321.9" style="stroke:#181818;stroke-width:1;"/><text fill="#000000" font-family="sans-serif" font-size="13" lengthAdjust="spacing" textLength="34.9312" x="328.85" y="288.2469">copia</text></g><!--SRC=[jP0nJyGm38LtVeNLwKwe9pLbgWGBCnm2YGKnkAcfZ1gdIWeBuh_J9jSsfqF7H0TBzVlizsBTeVVmu5WqzzZ1rmKSlijFomqOPDay3QFUlhm2kjPl0_4TQYWwhY3dhM2HRCZ5cjfH1N4UhY6xG_cWBbkHHZZL2rLUPMSDrByPFD8REHhlW3uzWmaRgzb_5RJj6N_fksNFiPWOhlVEyviZumgqbO59A82fDA7BbIk8kVwYrZ3dI1Ly-mCKYjY18DlNxpHOs3jkMR3BO9oxBqw1ssaODYmDzIJDc7-WRQHLGZ-ZOwmxya02XemTVoDL9iUPq-zsizSISsgfavTCtV87]--></g></svg>