<svg xmlns="http://www.w3.org/2000/svg" xmlns:xlink="http://www.w3.org/1999/xlink" contentStyleType="text/css" height="697px" preserveAspectRatio="none" style="width:488px;height:697px;background:#FFFFFF;" version="1.1" viewBox="0 0 488 697" width="488px" zoomAndPan="magnify"><defs/><g><!--class Persona--><g id="elem_Persona"><rect codeLine="1" fill="#F1F1F1" height="129.4844" id="Persona" rx="2.5" ry="2.5" style="stroke:#181818;stroke-width:0.5;" width="270.3916" x="7" y="561.27"/><ellipse cx="109.8843" cy="577.27" fill="#ADD1B2" rx="11" ry="11" style="stroke:#181818;stroke-width:1;"/><path d="M112.853,582.9106 Q112.2749,583.2075 111.6343,583.3481 Q110.9937,583.5044 110.2905,583.5044 Q107.7905,583.5044 106.4624,581.8638 Q105.1499,580.2075 105.1499,577.0825 Q105.1499,573.9575 106.4624,572.3013 Q107.7905,570.645 110.2905,570.645 Q110.9937,570.645 111.6343,570.8013 Q112.2905,570.9575 112.853,571.2544 L112.853,573.9731 Q112.228,573.395 111.6343,573.1294 Q111.0405,572.8481 110.4155,572.8481 Q109.0718,572.8481 108.3843,573.9263 Q107.6968,574.9888 107.6968,577.0825 Q107.6968,579.1763 108.3843,580.2544 Q109.0718,581.3169 110.4155,581.3169 Q111.0405,581.3169 111.6343,581.0513 Q112.228,580.77 112.853,580.1919 L112.853,582.9106 Z " fill="#000000"/><text fill="#000000" font-family="sans-serif" font-size="14" lengthAdjust="spacing" textLength="56.123" x="130.3843" y="582.1167">Persona</text><line style="stroke:#181818;stroke-width:0.5;" x1="8" x2="276.3916" y1="593.27" y2="593.27"/><rect fill="none" height="6" style="stroke:#C82930;stroke-width:1;" width="6" x="15" y="603.9184"/><text fill="#000000" font-family="sans-serif" font-size="14" lengthAdjust="spacing" textLength="100.5635" x="27" y="610.2651">String nombre</text><rect fill="none" height="6" style="stroke:#C82930;stroke-width:1;" width="6" x="15" y="620.2153"/><text fill="#000000" font-family="sans-serif" font-size="14" lengthAdjust="spacing" textLength="67.8809" x="27" y="626.562">String dni</text><line style="stroke:#181818;stroke-width:0.5;" x1="8" x2="276.3916" y1="633.8638" y2="633.8638"/><ellipse cx="18" cy="647.5122" fill="#84BE84" rx="3" ry="3" style="stroke:#038048;stroke-width:1;"/><text fill="#000000" font-family="sans-serif" font-size="14" lengthAdjust="spacing" textLength="244.3916" x="27" y="650.8589">Persona(String nombre, String dni)</text><ellipse cx="18" cy="663.8091" fill="#84BE84" rx="3" ry="3" style="stroke:#038048;stroke-width:1;"/><text fill="#000000" font-family="sans-serif" font-size="14" lengthAdjust="spacing" textLength="184.1875" x="27" y="667.1557">Persona(Persona persona)</text><ellipse cx="18" cy="680.1059" fill="#84BE84" rx="3" ry="3" style="stroke:#038048;stroke-width:1;"/><text fill="#000000" font-family="sans-serif" font-size="14" lengthAdjust="spacing" textLength="188.8154" x="27" y="683.4526">setNombre(String nombre)</text></g><!--class Nodo--><g id="elem_Nodo"><rect codeLine="9" fill="#F1F1F1" height="145.7813" id="Nodo" rx="2.5" ry="2.5" style="stroke:#181818;stroke-width:0.5;" width="229.6973" x="145.35" y="338.48"/><ellipse cx="237.7035" cy="354.48" fill="#ADD1B2" rx="11" ry="11" style="stroke:#181818;stroke-width:1;"/><path d="M240.6723,360.1206 Q240.0941,360.4175 239.4535,360.5581 Q238.8129,360.7144 238.1098,360.7144 Q235.6098,360.7144 234.2816,359.0738 Q232.9691,357.4175 232.9691,354.2925 Q232.9691,351.1675 234.2816,349.5113 Q235.6098,347.855 238.1098,347.855 Q238.8129,347.855 239.4535,348.0113 Q240.1098,348.1675 240.6723,348.4644 L240.6723,351.1831 Q240.0473,350.605 239.4535,350.3394 Q238.8598,350.0581 238.2348,350.0581 Q236.891,350.0581 236.2035,351.1363 Q235.516,352.1988 235.516,354.2925 Q235.516,356.3863 236.2035,357.4644 Q236.891,358.5269 238.2348,358.5269 Q238.8598,358.5269 239.4535,358.2613 Q240.0473,357.98 240.6723,357.4019 L240.6723,360.1206 Z " fill="#000000"/><text fill="#000000" font-family="sans-serif" font-size="14" lengthAdjust="spacing" textLength="36.4902" x="258.2035" y="359.3267">Nodo</text><line style="stroke:#181818;stroke-width:0.5;" x1="146.35" x2="374.0473" y1="370.48" y2="370.48"/><rect fill="none" height="6" style="stroke:#C82930;stroke-width:1;" width="6" x="153.35" y="381.1284"/><text fill="#000000" font-family="sans-serif" font-size="14" lengthAdjust="spacing" textLength="117.1406" x="165.35" y="387.4751">Persona persona</text><rect fill="none" height="6" style="stroke:#C82930;stroke-width:1;" width="6" x="153.35" y="397.4253"/><text fill="#000000" font-family="sans-serif" font-size="14" lengthAdjust="spacing" textLength="105.3623" x="165.35" y="403.772">Nodo siguiente</text><line style="stroke:#181818;stroke-width:0.5;" x1="146.35" x2="374.0473" y1="411.0738" y2="411.0738"/><ellipse cx="156.35" cy="424.7222" fill="#84BE84" rx="3" ry="3" style="stroke:#038048;stroke-width:1;"/><text fill="#000000" font-family="sans-serif" font-size="14" lengthAdjust="spacing" textLength="164.5547" x="165.35" y="428.0689">Nodo(Persona persona)</text><ellipse cx="156.35" cy="441.0191" fill="#84BE84" rx="3" ry="3" style="stroke:#038048;stroke-width:1;"/><text fill="#000000" font-family="sans-serif" font-size="14" lengthAdjust="spacing" textLength="159.7764" x="165.35" y="444.3657">getPersona() : Persona</text><ellipse cx="156.35" cy="457.3159" fill="#84BE84" rx="3" ry="3" style="stroke:#038048;stroke-width:1;"/><text fill="#000000" font-family="sans-serif" font-size="14" lengthAdjust="spacing" textLength="150.0352" x="165.35" y="460.6626">getSiguiente() : Nodo</text><ellipse cx="156.35" cy="473.6128" fill="#84BE84" rx="3" ry="3" style="stroke:#038048;stroke-width:1;"/><text fill="#000000" font-family="sans-serif" font-size="14" lengthAdjust="spacing" textLength="203.6973" x="165.35" y="476.9595">setSiguiente(Nodo siguiente)</text></g><!--class Lista--><g id="elem_Lista"><rect codeLine="18" fill="#F1F1F1" height="113.1875" id="Lista" rx="2.5" ry="2.5" style="stroke:#181818;stroke-width:0.5;" width="264.4375" x="136.98" y="148.3"/><ellipse cx="248.4229" cy="164.3" fill="#ADD1B2" rx="11" ry="11" style="stroke:#181818;stroke-width:1;"/><path d="M251.3916,169.9406 Q250.8135,170.2375 250.1729,170.3781 Q249.5322,170.5344 248.8291,170.5344 Q246.3291,170.5344 245.001,168.8937 Q243.6885,167.2375 243.6885,164.1125 Q243.6885,160.9875 245.001,159.3312 Q246.3291,157.675 248.8291,157.675 Q249.5322,157.675 250.1729,157.8312 Q250.8291,157.9875 251.3916,158.2844 L251.3916,161.0031 Q250.7666,160.425 250.1729,160.1594 Q249.5791,159.8781 248.9541,159.8781 Q247.6104,159.8781 246.9229,160.9562 Q246.2354,162.0187 246.2354,164.1125 Q246.2354,166.2062 246.9229,167.2844 Q247.6104,168.3469 248.9541,168.3469 Q249.5791,168.3469 250.1729,168.0812 Q250.7666,167.8 251.3916,167.2219 L251.3916,169.9406 Z " fill="#000000"/><text fill="#000000" font-family="sans-serif" font-size="14" lengthAdjust="spacing" textLength="33.0518" x="268.9229" y="169.1467">Lista</text><line style="stroke:#181818;stroke-width:0.5;" x1="137.98" x2="400.4175" y1="180.3" y2="180.3"/><rect fill="none" height="6" style="stroke:#C82930;stroke-width:1;" width="6" x="144.98" y="190.9484"/><text fill="#000000" font-family="sans-serif" font-size="14" lengthAdjust="spacing" textLength="90.6445" x="156.98" y="197.2951">Nodo cabeza</text><line style="stroke:#181818;stroke-width:0.5;" x1="137.98" x2="400.4175" y1="204.5969" y2="204.5969"/><ellipse cx="147.98" cy="218.2453" fill="#84BE84" rx="3" ry="3" style="stroke:#038048;stroke-width:1;"/><text fill="#000000" font-family="sans-serif" font-size="14" lengthAdjust="spacing" textLength="43.9756" x="156.98" y="221.592">Lista()</text><ellipse cx="147.98" cy="234.5422" fill="#84BE84" rx="3" ry="3" style="stroke:#038048;stroke-width:1;"/><text fill="#000000" font-family="sans-serif" font-size="14" lengthAdjust="spacing" textLength="238.4375" x="156.98" y="237.8889">insertarPersona(Persona persona)</text><ellipse cx="147.98" cy="250.8391" fill="#84BE84" rx="3" ry="3" style="stroke:#038048;stroke-width:1;"/><text fill="#000000" font-family="sans-serif" font-size="14" lengthAdjust="spacing" textLength="103.3184" x="156.98" y="254.1857">imprimirLista()</text></g><!--class Principal--><g id="elem_Principal"><rect codeLine="25" fill="#F1F1F1" height="64.2969" id="Principal" rx="2.5" ry="2.5" style="stroke:#181818;stroke-width:0.5;" width="159.5742" x="33.41" y="7"/><ellipse cx="78.9954" cy="23" fill="#ADD1B2" rx="11" ry="11" style="stroke:#181818;stroke-width:1;"/><path d="M81.9642,28.6406 Q81.3861,28.9375 80.7454,29.0781 Q80.1048,29.2344 79.4017,29.2344 Q76.9017,29.2344 75.5736,27.5938 Q74.2611,25.9375 74.2611,22.8125 Q74.2611,19.6875 75.5736,18.0313 Q76.9017,16.375 79.4017,16.375 Q80.1048,16.375 80.7454,16.5313 Q81.4017,16.6875 81.9642,16.9844 L81.9642,19.7031 Q81.3392,19.125 80.7454,18.8594 Q80.1517,18.5781 79.5267,18.5781 Q78.1829,18.5781 77.4954,19.6563 Q76.8079,20.7188 76.8079,22.8125 Q76.8079,24.9063 77.4954,25.9844 Q78.1829,27.0469 79.5267,27.0469 Q80.1517,27.0469 80.7454,26.7813 Q81.3392,26.5 81.9642,25.9219 L81.9642,28.6406 Z " fill="#000000"/><text fill="#000000" font-family="sans-serif" font-size="14" lengthAdjust="spacing" textLength="59.9033" x="99.4954" y="27.8467">Principal</text><line style="stroke:#181818;stroke-width:0.5;" x1="34.41" x2="191.9842" y1="39" y2="39"/><line style="stroke:#181818;stroke-width:0.5;" x1="34.41" x2="191.9842" y1="47" y2="47"/><ellipse cx="44.41" cy="60.6484" fill="#84BE84" rx="3" ry="3" style="stroke:#038048;stroke-width:1;"/><text fill="#000000" font-family="sans-serif" font-size="14" lengthAdjust="spacing" textLength="133.5742" x="53.41" y="63.9951">main(String[] args)</text></g><!--link Nodo to Persona--><g id="link_Nodo_Persona"><path codeLine="29" d="M220.08,484.66 C206.32,509.46 193.9316,531.7738 180.5616,555.8638 " fill="none" id="Nodo-to-Persona" style="stroke:#181818;stroke-width:1;"/><polygon fill="#181818" points="177.65,561.11,185.5149,555.1818,180.0764,556.7382,178.52,551.2996,177.65,561.11" style="stroke:#181818;stroke-width:1;"/><text fill="#000000" font-family="sans-serif" font-size="13" lengthAdjust="spacing" textLength="56.2847" x="202.2" y="527.3369">contiene</text><text fill="#000000" font-family="sans-serif" font-size="13" lengthAdjust="spacing" textLength="8.271" x="207.8879" y="504.4335">1</text><text fill="#000000" font-family="sans-serif" font-size="13" lengthAdjust="spacing" textLength="8.271" x="173.1051" y="550.2652">1</text></g><!--link Nodo to Nodo--><g id="link_Nodo_Nodo"><path codeLine="30" d="M375.49,391.75 C395.85,394.34 410.04,400.88 410.04,411.37 C410.04,421.87 401.802,427.6528 381.442,430.2428 " fill="none" id="Nodo-to-Nodo" style="stroke:#181818;stroke-width:1;"/><polygon fill="#181818" points="375.49,431,384.9228,433.8323,380.45,430.369,383.9133,425.8962,375.49,431" style="stroke:#181818;stroke-width:1;"/><text fill="#000000" font-family="sans-serif" font-size="13" lengthAdjust="spacing" textLength="59.8203" x="416.04" y="415.9369">siguiente</text><text fill="#000000" font-family="sans-serif" font-size="13" lengthAdjust="spacing" textLength="8.271" x="383.1408" y="387.0837">1</text><text fill="#000000" font-family="sans-serif" font-size="13" lengthAdjust="spacing" textLength="8.271" x="383.1408" y="428.8482">1</text></g><!--link Lista to Nodo--><g id="link_Lista_Nodo"><path codeLine="31" d="M266.74,261.77 C265.7,285.3 264.7431,306.9958 263.6431,332.0558 " fill="none" id="Lista-to-Nodo" style="stroke:#181818;stroke-width:1;"/><polygon fill="#181818" points="263.38,338.05,267.7708,329.2341,263.5993,333.0548,259.7785,328.8832,263.38,338.05" style="stroke:#181818;stroke-width:1;"/><text fill="#000000" font-family="sans-serif" font-size="13" lengthAdjust="spacing" textLength="56.2847" x="266.2" y="304.5469">contiene</text><text fill="#000000" font-family="sans-serif" font-size="13" lengthAdjust="spacing" textLength="8.271" x="257.9694" y="281.6908">1</text><text fill="#000000" font-family="sans-serif" font-size="13" lengthAdjust="spacing" textLength="6.5" x="257.4211" y="327.42">*</text></g><!--link Principal to Persona--><g id="link_Principal_Persona"><path codeLine="32" d="M113.48,71.69 C114.31,144.47 117.4,329.77 128.2,484.27 C129.95,509.37 131.924,530.9717 134.404,555.0017 " fill="none" id="Principal-to-Persona" style="stroke:#181818;stroke-width:1;"/><polygon fill="#181818" points="135.02,560.97,138.0749,551.6069,134.5067,555.9964,130.1172,552.4282,135.02,560.97" style="stroke:#181818;stroke-width:1;"/><text fill="#000000" font-family="sans-serif" font-size="13" lengthAdjust="spacing" textLength="22.9785" x="120.2" y="304.5469">usa</text></g><!--link Principal to Lista--><g id="link_Principal_Lista"><path codeLine="33" d="M143.27,71.72 C163.82,93.28 187.461,118.0961 211.701,143.5361 " fill="none" id="Principal-to-Lista" style="stroke:#181818;stroke-width:1;"/><polygon fill="#181818" points="215.84,147.88,212.5275,138.6049,212.3909,144.2601,206.7357,144.1235,215.84,147.88" style="stroke:#181818;stroke-width:1;"/><text fill="#000000" font-family="sans-serif" font-size="13" lengthAdjust="spacing" textLength="22.9785" x="187.2" y="114.3669">usa</text></g><!--SRC=[XL0nRiCm3Dpz2Y9JdCH3LmzzGH04o5XaK1J2811BXgWi3VBtshGfsIwAQX70EzuTppuCCvmni7S6NWNqhu9B3EGQSBwz1LpExevaiDUbxO9ycF7A5L5Tkl5Nc36UP7UfL1Rleh0Ix-JlFcLRgKnJeJ0rJq8NSL8UXd-vDXWrLmcrgcRmebe23qevRiQMjhF8H-AO-nIQDJVyLWV1jng676E89lpJ5BLTe9Q2BYUtSz-RfSuy9iSzj8RSrEVN5KneMEWIPFEnWQhwb5-TQh3UnVuA_CsHGJrhTpmkKNQ9aZHoe86HJPviLjYe9SWF]--></g></svg>