<svg xmlns="http://www.w3.org/2000/svg" xmlns:xlink="http://www.w3.org/1999/xlink" contentStyleType="text/css" height="721px" preserveAspectRatio="none" style="width:403px;height:721px;background:#FFFFFF;" version="1.1" viewBox="0 0 403 721" width="403px" zoomAndPan="magnify"><defs/><g><!--class Persona--><g id="elem_Persona"><rect codeLine="1" fill="#F1F1F1" height="188.875" id="Persona" rx="2.5" ry="2.5" style="stroke:#181818;stroke-width:0.5;" width="242.3232" x="7" y="526"/><ellipse cx="97.8394" cy="542" fill="#ADD1B2" rx="11" ry="11" style="stroke:#181818;stroke-width:1;"/><path d="M100.605,537.875 Q100.7612,537.6563 100.9487,537.5469 Q101.1362,537.4375 101.355,537.4375 Q101.73,537.4375 101.9644,537.7031 Q102.1987,537.9531 102.1987,538.5625 L102.1987,540.0156 Q102.1987,540.625 101.9644,540.8906 Q101.73,541.1563 101.355,541.1563 Q101.0112,541.1563 100.8081,540.9531 Q100.605,540.7656 100.4956,540.25 Q100.4487,539.8906 100.2612,539.7031 Q99.9331,539.3281 99.3237,539.1094 Q98.7144,538.8906 98.0894,538.8906 Q97.3237,538.8906 96.6831,539.2188 Q96.0581,539.5469 95.5581,540.2969 Q95.0737,541.0469 95.0737,542.0781 L95.0737,543.1719 Q95.0737,544.4063 95.9644,545.2344 Q96.855,546.0469 98.4487,546.0469 Q99.3862,546.0469 100.0425,545.7969 Q100.4331,545.6406 100.855,545.2031 Q101.1206,544.9375 101.2612,544.8594 Q101.4175,544.7813 101.6206,544.7813 Q101.9487,544.7813 102.1987,545.0469 Q102.4644,545.2969 102.4644,545.6406 Q102.4644,545.9844 102.1206,546.3906 Q101.6206,546.9688 100.8237,547.2969 Q99.7456,547.75 98.4487,547.75 Q96.9331,547.75 95.73,547.125 Q94.7456,546.625 94.0581,545.5625 Q93.3706,544.4844 93.3706,543.2031 L93.3706,542.0469 Q93.3706,540.7188 93.98,539.5781 Q94.605,538.4219 95.6987,537.8125 Q96.7925,537.1875 98.0269,537.1875 Q98.7612,537.1875 99.4019,537.3594 Q100.0581,537.5156 100.605,537.875 Z " fill="#000000"/><text fill="#000000" font-family="sans-serif" font-size="14" lengthAdjust="spacing" textLength="52.1445" x="118.3394" y="547.7285">Persona</text><line style="stroke:#181818;stroke-width:0.5;" x1="8" x2="248.3232" y1="558" y2="558"/><rect fill="none" height="6" style="stroke:#C82930;stroke-width:1;" width="6" x="15" y="569.3047"/><text fill="#000000" font-family="sans-serif" font-size="14" lengthAdjust="spacing" textLength="87.9307" x="27" y="576.5332">String nombre</text><rect fill="none" height="6" style="stroke:#C82930;stroke-width:1;" width="6" x="15" y="586.9141"/><text fill="#000000" font-family="sans-serif" font-size="14" lengthAdjust="spacing" textLength="59.1445" x="27" y="594.1426">String dni</text><line style="stroke:#181818;stroke-width:0.5;" x1="8" x2="248.3232" y1="601.2188" y2="601.2188"/><ellipse cx="18" cy="615.5234" fill="#84BE84" rx="3" ry="3" style="stroke:#038048;stroke-width:1;"/><text fill="#000000" font-family="sans-serif" font-size="14" lengthAdjust="spacing" textLength="216.3232" x="27" y="619.752">Persona(String nombre, String dni)</text><ellipse cx="18" cy="633.1328" fill="#84BE84" rx="3" ry="3" style="stroke:#038048;stroke-width:1;"/><text fill="#000000" font-family="sans-serif" font-size="14" lengthAdjust="spacing" textLength="168.0957" x="27" y="637.3613">Persona(Persona persona)</text><ellipse cx="18" cy="650.7422" fill="#84BE84" rx="3" ry="3" style="stroke:#038048;stroke-width:1;"/><text fill="#000000" font-family="sans-serif" font-size="14" lengthAdjust="spacing" textLength="195.2959" x="27" y="654.9707">void setNombre(String nombre)</text><ellipse cx="18" cy="668.3516" fill="#84BE84" rx="3" ry="3" style="stroke:#038048;stroke-width:1;"/><text fill="#000000" font-family="sans-serif" font-size="14" lengthAdjust="spacing" textLength="119.041" x="27" y="672.5801">String getNombre()</text><ellipse cx="18" cy="685.9609" fill="#84BE84" rx="3" ry="3" style="stroke:#038048;stroke-width:1;"/><text fill="#000000" font-family="sans-serif" font-size="14" lengthAdjust="spacing" textLength="90.2549" x="27" y="690.1895">String getDni()</text><ellipse cx="18" cy="703.5703" fill="#84BE84" rx="3" ry="3" style="stroke:#038048;stroke-width:1;"/><text fill="#000000" font-family="sans-serif" font-size="14" lengthAdjust="spacing" textLength="98.0342" x="27" y="707.7988">String toString()</text></g><!--class Nodo--><g id="elem_Nodo"><rect codeLine="12" fill="#F1F1F1" height="100.8281" id="Nodo" rx="2.5" ry="2.5" style="stroke:#181818;stroke-width:0.5;" width="175.4199" x="149.5" y="347"/><ellipse cx="216.2256" cy="363" fill="#ADD1B2" rx="11" ry="11" style="stroke:#181818;stroke-width:1;"/><path d="M218.9912,358.875 Q219.1475,358.6563 219.335,358.5469 Q219.5225,358.4375 219.7412,358.4375 Q220.1162,358.4375 220.3506,358.7031 Q220.585,358.9531 220.585,359.5625 L220.585,361.0156 Q220.585,361.625 220.3506,361.8906 Q220.1162,362.1563 219.7412,362.1563 Q219.3975,362.1563 219.1943,361.9531 Q218.9912,361.7656 218.8818,361.25 Q218.835,360.8906 218.6475,360.7031 Q218.3193,360.3281 217.71,360.1094 Q217.1006,359.8906 216.4756,359.8906 Q215.71,359.8906 215.0693,360.2188 Q214.4443,360.5469 213.9443,361.2969 Q213.46,362.0469 213.46,363.0781 L213.46,364.1719 Q213.46,365.4063 214.3506,366.2344 Q215.2412,367.0469 216.835,367.0469 Q217.7725,367.0469 218.4287,366.7969 Q218.8193,366.6406 219.2412,366.2031 Q219.5068,365.9375 219.6475,365.8594 Q219.8037,365.7813 220.0068,365.7813 Q220.335,365.7813 220.585,366.0469 Q220.8506,366.2969 220.8506,366.6406 Q220.8506,366.9844 220.5068,367.3906 Q220.0068,367.9688 219.21,368.2969 Q218.1318,368.75 216.835,368.75 Q215.3193,368.75 214.1162,368.125 Q213.1318,367.625 212.4443,366.5625 Q211.7568,365.4844 211.7568,364.2031 L211.7568,363.0469 Q211.7568,361.7188 212.3662,360.5781 Q212.9912,359.4219 214.085,358.8125 Q215.1787,358.1875 216.4131,358.1875 Q217.1475,358.1875 217.7881,358.3594 Q218.4443,358.5156 218.9912,358.875 Z " fill="#000000"/><text fill="#000000" font-family="sans-serif" font-size="14" lengthAdjust="spacing" textLength="33.4688" x="236.7256" y="368.7285">Nodo</text><line style="stroke:#181818;stroke-width:0.5;" x1="150.5" x2="323.9199" y1="379" y2="379"/><ellipse cx="160.5" cy="393.3047" fill="none" rx="3" ry="3" style="stroke:#038048;stroke-width:1;"/><text fill="#000000" font-family="sans-serif" font-size="14" lengthAdjust="spacing" textLength="106.627" x="169.5" y="397.5332">Persona persona</text><ellipse cx="160.5" cy="410.9141" fill="none" rx="3" ry="3" style="stroke:#038048;stroke-width:1;"/><text fill="#000000" font-family="sans-serif" font-size="14" lengthAdjust="spacing" textLength="93.3994" x="169.5" y="415.1426">Nodo siguiente</text><line style="stroke:#181818;stroke-width:0.5;" x1="150.5" x2="323.9199" y1="422.2188" y2="422.2188"/><ellipse cx="160.5" cy="436.5234" fill="#84BE84" rx="3" ry="3" style="stroke:#038048;stroke-width:1;"/><text fill="#000000" font-family="sans-serif" font-size="14" lengthAdjust="spacing" textLength="149.4199" x="169.5" y="440.752">Nodo(Persona persona)</text></g><!--class Lista--><g id="elem_Lista"><rect codeLine="18" fill="#F1F1F1" height="118.4375" id="Lista" rx="2.5" ry="2.5" style="stroke:#181818;stroke-width:0.5;" width="270.3506" x="126" y="151"/><ellipse cx="242.1392" cy="167" fill="#ADD1B2" rx="11" ry="11" style="stroke:#181818;stroke-width:1;"/><path d="M244.9048,162.875 Q245.061,162.6563 245.2485,162.5469 Q245.436,162.4375 245.6548,162.4375 Q246.0298,162.4375 246.2642,162.7031 Q246.4985,162.9531 246.4985,163.5625 L246.4985,165.0156 Q246.4985,165.625 246.2642,165.8906 Q246.0298,166.1563 245.6548,166.1563 Q245.311,166.1563 245.1079,165.9531 Q244.9048,165.7656 244.7954,165.25 Q244.7485,164.8906 244.561,164.7031 Q244.2329,164.3281 243.6235,164.1094 Q243.0142,163.8906 242.3892,163.8906 Q241.6235,163.8906 240.9829,164.2188 Q240.3579,164.5469 239.8579,165.2969 Q239.3735,166.0469 239.3735,167.0781 L239.3735,168.1719 Q239.3735,169.4063 240.2642,170.2344 Q241.1548,171.0469 242.7485,171.0469 Q243.686,171.0469 244.3423,170.7969 Q244.7329,170.6406 245.1548,170.2031 Q245.4204,169.9375 245.561,169.8594 Q245.7173,169.7813 245.9204,169.7813 Q246.2485,169.7813 246.4985,170.0469 Q246.7642,170.2969 246.7642,170.6406 Q246.7642,170.9844 246.4204,171.3906 Q245.9204,171.9688 245.1235,172.2969 Q244.0454,172.75 242.7485,172.75 Q241.2329,172.75 240.0298,172.125 Q239.0454,171.625 238.3579,170.5625 Q237.6704,169.4844 237.6704,168.2031 L237.6704,167.0469 Q237.6704,165.7188 238.2798,164.5781 Q238.9048,163.4219 239.9985,162.8125 Q241.0923,162.1875 242.3267,162.1875 Q243.061,162.1875 243.7017,162.3594 Q244.3579,162.5156 244.9048,162.875 Z " fill="#000000"/><text fill="#000000" font-family="sans-serif" font-size="14" lengthAdjust="spacing" textLength="29.5723" x="262.6392" y="172.7285">Lista</text><line style="stroke:#181818;stroke-width:0.5;" x1="127" x2="395.3506" y1="183" y2="183"/><rect fill="none" height="6" style="stroke:#C82930;stroke-width:1;" width="6" x="134" y="194.3047"/><text fill="#000000" font-family="sans-serif" font-size="14" lengthAdjust="spacing" textLength="82.5029" x="146" y="201.5332">Nodo cabeza</text><line style="stroke:#181818;stroke-width:0.5;" x1="127" x2="395.3506" y1="208.6094" y2="208.6094"/><ellipse cx="137" cy="222.9141" fill="#84BE84" rx="3" ry="3" style="stroke:#038048;stroke-width:1;"/><text fill="#000000" font-family="sans-serif" font-size="14" lengthAdjust="spacing" textLength="38.8965" x="146" y="227.1426">Lista()</text><ellipse cx="137" cy="240.5234" fill="#84BE84" rx="3" ry="3" style="stroke:#038048;stroke-width:1;"/><text fill="#000000" font-family="sans-serif" font-size="14" lengthAdjust="spacing" textLength="244.3506" x="146" y="244.752">void insertarPersona(Persona persona)</text><ellipse cx="137" cy="258.1328" fill="#84BE84" rx="3" ry="3" style="stroke:#038048;stroke-width:1;"/><text fill="#000000" font-family="sans-serif" font-size="14" lengthAdjust="spacing" textLength="145.4893" x="146" y="262.3613">void mostrarPersonas()</text></g><!--class Principal--><g id="elem_Principal"><rect codeLine="25" fill="#F1F1F1" height="65.6094" id="Principal" rx="2.5" ry="2.5" style="stroke:#181818;stroke-width:0.5;" width="141.1445" x="31.5" y="7"/><ellipse cx="71.4548" cy="23" fill="#ADD1B2" rx="11" ry="11" style="stroke:#181818;stroke-width:1;"/><path d="M74.2204,18.875 Q74.3767,18.6563 74.5642,18.5469 Q74.7517,18.4375 74.9704,18.4375 Q75.3454,18.4375 75.5798,18.7031 Q75.8142,18.9531 75.8142,19.5625 L75.8142,21.0156 Q75.8142,21.625 75.5798,21.8906 Q75.3454,22.1563 74.9704,22.1563 Q74.6267,22.1563 74.4235,21.9531 Q74.2204,21.7656 74.111,21.25 Q74.0642,20.8906 73.8767,20.7031 Q73.5485,20.3281 72.9392,20.1094 Q72.3298,19.8906 71.7048,19.8906 Q70.9392,19.8906 70.2985,20.2188 Q69.6735,20.5469 69.1735,21.2969 Q68.6892,22.0469 68.6892,23.0781 L68.6892,24.1719 Q68.6892,25.4063 69.5798,26.2344 Q70.4704,27.0469 72.0642,27.0469 Q73.0017,27.0469 73.6579,26.7969 Q74.0485,26.6406 74.4704,26.2031 Q74.736,25.9375 74.8767,25.8594 Q75.0329,25.7813 75.236,25.7813 Q75.5642,25.7813 75.8142,26.0469 Q76.0798,26.2969 76.0798,26.6406 Q76.0798,26.9844 75.736,27.3906 Q75.236,27.9688 74.4392,28.2969 Q73.361,28.75 72.0642,28.75 Q70.5485,28.75 69.3454,28.125 Q68.361,27.625 67.6735,26.5625 Q66.986,25.4844 66.986,24.2031 L66.986,23.0469 Q66.986,21.7188 67.5954,20.5781 Q68.2204,19.4219 69.3142,18.8125 Q70.4079,18.1875 71.6423,18.1875 Q72.3767,18.1875 73.0173,18.3594 Q73.6735,18.5156 74.2204,18.875 Z " fill="#000000"/><text fill="#000000" font-family="sans-serif" font-size="14" lengthAdjust="spacing" textLength="53.6895" x="91.0003" y="28.7285">Principal</text><line style="stroke:#181818;stroke-width:0.5;" x1="32.5" x2="171.6445" y1="39" y2="39"/><line style="stroke:#181818;stroke-width:0.5;" x1="32.5" x2="171.6445" y1="47" y2="47"/><ellipse cx="42.5" cy="61.3047" fill="#84BE84" rx="3" ry="3" style="stroke:#038048;stroke-width:1;"/><text fill="#000000" font-family="sans-serif" font-size="14" lengthAdjust="spacing" textLength="115.1445" x="51.5" y="65.5332">main(String[] args)</text></g><!--link Principal to Lista--><g id="link_Principal_Lista"><path codeLine="29" d="M132.66,73.39 C153.41,95.32 177.2948,120.563 201.8548,146.503 " fill="none" id="Principal-to-Lista" style="stroke:#181818;stroke-width:1;"/><polygon fill="#181818" points="205.98,150.86,202.6969,141.5745,202.5424,147.2292,196.8876,147.0747,205.98,150.86" style="stroke:#181818;stroke-width:1;"/><text fill="#000000" font-family="sans-serif" font-size="13" lengthAdjust="spacing" textLength="20.96" x="177" y="117.4951">usa</text></g><!--link Lista to Nodo--><g id="link_Lista_Nodo"><path codeLine="30" d="M253.47,269.18 C250.24,294.15 247.2808,317.0697 244.1808,340.9997 " fill="none" id="Lista-to-Nodo" style="stroke:#181818;stroke-width:1;"/><polygon fill="#181818" points="243.41,346.95,248.5331,338.5385,244.0524,341.9914,240.5994,337.5107,243.41,346.95" style="stroke:#181818;stroke-width:1;"/><text fill="#000000" font-family="sans-serif" font-size="13" lengthAdjust="spacing" textLength="49.1499" x="250" y="313.4951">contiene</text></g><!--link Nodo to Persona--><g id="link_Nodo_Persona"><path codeLine="31" d="M212.54,448.1 C201.24,471 190.0942,493.609 176.9442,520.269 " fill="none" id="Nodo-to-Persona" style="stroke:#181818;stroke-width:1;"/><polygon fill="#181818" points="174.29,525.65,181.8586,519.3479,176.5018,521.1658,174.6839,515.809,174.29,525.65" style="stroke:#181818;stroke-width:1;"/><text fill="#000000" font-family="sans-serif" font-size="13" lengthAdjust="spacing" textLength="49.1499" x="196" y="492.4951">contiene</text></g><!--link Principal to Persona--><g id="link_Principal_Persona"><path codeLine="32" d="M102.53,73.11 C103.34,117.25 105.09,199.17 108,269 C111.63,356.08 117.0641,449.2518 121.4941,519.8318 " fill="none" id="Principal-to-Persona" style="stroke:#181818;stroke-width:1;"/><polygon fill="#181818" points="121.87,525.82,125.2984,516.5871,121.5568,520.8298,117.3141,517.0882,121.87,525.82" style="stroke:#181818;stroke-width:1;"/><text fill="#000000" font-family="sans-serif" font-size="13" lengthAdjust="spacing" textLength="25.2891" x="112" y="313.4951">crea</text></g><!--SRC=[ZP2nRiCm34HtVONWAK7Z7-ZGgMCH1CXOT61amY0GKu6eT6ZHVwz2IxALBF4Y-_XykgCxWuWzO13FO7-DJKzlZp4GZvRzT0hOQWEJ2Y_bfqq3xrRSzWuijrpciuo_FGrMCExLeBKhJ1R7IZqEtfdkrUZdbwJ_6UEqwjuFFlUioKgYh2eYD5u9EU9AV6nGRJz8uh8_TN1mmf_YgVDDKvbOC4G8pwndyX93HMLTw90QEhh0kRQQW3YlyVFBGXX5yGNi-xSS-DLsLu7Ep5ytNQCdsNcEgJzsHfNRg0HifgthWhY0OFu1]--></g></svg>