<svg xmlns="http://www.w3.org/2000/svg" xmlns:xlink="http://www.w3.org/1999/xlink" contentStyleType="text/css" height="704px" preserveAspectRatio="none" style="width:374px;height:704px;background:#FFFFFF;" version="1.1" viewBox="0 0 374 704" width="374px" zoomAndPan="magnify"><defs/><g><!--class Lista--><g id="elem_Lista"><rect codeLine="1" fill="#F1F1F1" height="118.4375" id="Lista" rx="2.5" ry="2.5" style="stroke:#181818;stroke-width:0.5;" width="240.7783" x="7" y="151"/><ellipse cx="108.353" cy="167" fill="#ADD1B2" rx="11" ry="11" style="stroke:#181818;stroke-width:1;"/><path d="M111.1187,162.875 Q111.2749,162.6563 111.4624,162.5469 Q111.6499,162.4375 111.8687,162.4375 Q112.2437,162.4375 112.478,162.7031 Q112.7124,162.9531 112.7124,163.5625 L112.7124,165.0156 Q112.7124,165.625 112.478,165.8906 Q112.2437,166.1563 111.8687,166.1563 Q111.5249,166.1563 111.3218,165.9531 Q111.1187,165.7656 111.0093,165.25 Q110.9624,164.8906 110.7749,164.7031 Q110.4468,164.3281 109.8374,164.1094 Q109.228,163.8906 108.603,163.8906 Q107.8374,163.8906 107.1968,164.2188 Q106.5718,164.5469 106.0718,165.2969 Q105.5874,166.0469 105.5874,167.0781 L105.5874,168.1719 Q105.5874,169.4063 106.478,170.2344 Q107.3687,171.0469 108.9624,171.0469 Q109.8999,171.0469 110.5562,170.7969 Q110.9468,170.6406 111.3687,170.2031 Q111.6343,169.9375 111.7749,169.8594 Q111.9312,169.7813 112.1343,169.7813 Q112.4624,169.7813 112.7124,170.0469 Q112.978,170.2969 112.978,170.6406 Q112.978,170.9844 112.6343,171.3906 Q112.1343,171.9688 111.3374,172.2969 Q110.2593,172.75 108.9624,172.75 Q107.4468,172.75 106.2437,172.125 Q105.2593,171.625 104.5718,170.5625 Q103.8843,169.4844 103.8843,168.2031 L103.8843,167.0469 Q103.8843,165.7188 104.4937,164.5781 Q105.1187,163.4219 106.2124,162.8125 Q107.3062,162.1875 108.5405,162.1875 Q109.2749,162.1875 109.9155,162.3594 Q110.5718,162.5156 111.1187,162.875 Z " fill="#000000"/><text fill="#000000" font-family="sans-serif" font-size="14" lengthAdjust="spacing" textLength="29.5723" x="128.853" y="172.7285">Lista</text><line style="stroke:#181818;stroke-width:0.5;" x1="8" x2="246.7783" y1="183" y2="183"/><rect fill="none" height="6" style="stroke:#C82930;stroke-width:1;" width="6" x="15" y="194.3047"/><text fill="#000000" font-family="sans-serif" font-size="14" lengthAdjust="spacing" textLength="82.5029" x="27" y="201.5332">Nodo cabeza</text><line style="stroke:#181818;stroke-width:0.5;" x1="8" x2="246.7783" y1="208.6094" y2="208.6094"/><ellipse cx="18" cy="222.9141" fill="#84BE84" rx="3" ry="3" style="stroke:#038048;stroke-width:1;"/><text fill="#000000" font-family="sans-serif" font-size="14" lengthAdjust="spacing" textLength="38.8965" x="27" y="227.1426">Lista()</text><ellipse cx="18" cy="240.5234" fill="#84BE84" rx="3" ry="3" style="stroke:#038048;stroke-width:1;"/><text fill="#000000" font-family="sans-serif" font-size="14" lengthAdjust="spacing" textLength="214.7783" x="27" y="244.752">insertarPersona(Persona persona)</text><ellipse cx="18" cy="258.1328" fill="#84BE84" rx="3" ry="3" style="stroke:#038048;stroke-width:1;"/><text fill="#000000" font-family="sans-serif" font-size="14" lengthAdjust="spacing" textLength="115.917" x="27" y="262.3613">mostrarPersonas()</text></g><!--class Nodo--><g id="elem_Nodo"><rect codeLine="8" fill="#F1F1F1" height="100.8281" id="Nodo" rx="2.5" ry="2.5" style="stroke:#181818;stroke-width:0.5;" width="175.4199" x="65" y="347"/><ellipse cx="131.7256" cy="363" fill="#ADD1B2" rx="11" ry="11" style="stroke:#181818;stroke-width:1;"/><path d="M134.4912,358.875 Q134.6475,358.6563 134.835,358.5469 Q135.0225,358.4375 135.2412,358.4375 Q135.6162,358.4375 135.8506,358.7031 Q136.085,358.9531 136.085,359.5625 L136.085,361.0156 Q136.085,361.625 135.8506,361.8906 Q135.6162,362.1563 135.2412,362.1563 Q134.8975,362.1563 134.6943,361.9531 Q134.4912,361.7656 134.3818,361.25 Q134.335,360.8906 134.1475,360.7031 Q133.8193,360.3281 133.21,360.1094 Q132.6006,359.8906 131.9756,359.8906 Q131.21,359.8906 130.5693,360.2188 Q129.9443,360.5469 129.4443,361.2969 Q128.96,362.0469 128.96,363.0781 L128.96,364.1719 Q128.96,365.4063 129.8506,366.2344 Q130.7412,367.0469 132.335,367.0469 Q133.2725,367.0469 133.9287,366.7969 Q134.3193,366.6406 134.7412,366.2031 Q135.0068,365.9375 135.1475,365.8594 Q135.3037,365.7813 135.5068,365.7813 Q135.835,365.7813 136.085,366.0469 Q136.3506,366.2969 136.3506,366.6406 Q136.3506,366.9844 136.0068,367.3906 Q135.5068,367.9688 134.71,368.2969 Q133.6318,368.75 132.335,368.75 Q130.8193,368.75 129.6162,368.125 Q128.6318,367.625 127.9443,366.5625 Q127.2568,365.4844 127.2568,364.2031 L127.2568,363.0469 Q127.2568,361.7188 127.8662,360.5781 Q128.4912,359.4219 129.585,358.8125 Q130.6787,358.1875 131.9131,358.1875 Q132.6475,358.1875 133.2881,358.3594 Q133.9443,358.5156 134.4912,358.875 Z " fill="#000000"/><text fill="#000000" font-family="sans-serif" font-size="14" lengthAdjust="spacing" textLength="33.4688" x="152.2256" y="368.7285">Nodo</text><line style="stroke:#181818;stroke-width:0.5;" x1="66" x2="239.4199" y1="379" y2="379"/><ellipse cx="76" cy="393.3047" fill="none" rx="3" ry="3" style="stroke:#038048;stroke-width:1;"/><text fill="#000000" font-family="sans-serif" font-size="14" lengthAdjust="spacing" textLength="106.627" x="85" y="397.5332">Persona persona</text><ellipse cx="76" cy="410.9141" fill="none" rx="3" ry="3" style="stroke:#038048;stroke-width:1;"/><text fill="#000000" font-family="sans-serif" font-size="14" lengthAdjust="spacing" textLength="93.3994" x="85" y="415.1426">Nodo siguiente</text><line style="stroke:#181818;stroke-width:0.5;" x1="66" x2="239.4199" y1="422.2188" y2="422.2188"/><ellipse cx="76" cy="436.5234" fill="#84BE84" rx="3" ry="3" style="stroke:#038048;stroke-width:1;"/><text fill="#000000" font-family="sans-serif" font-size="14" lengthAdjust="spacing" textLength="149.4199" x="85" y="440.752">Nodo(Persona persona)</text></g><!--class Persona--><g id="elem_Persona"><rect codeLine="14" fill="#F1F1F1" height="171.2656" id="Persona" rx="2.5" ry="2.5" style="stroke:#181818;stroke-width:0.5;" width="242.3232" x="110.5" y="526"/><ellipse cx="201.3394" cy="542" fill="#ADD1B2" rx="11" ry="11" style="stroke:#181818;stroke-width:1;"/><path d="M204.105,537.875 Q204.2612,537.6563 204.4487,537.5469 Q204.6362,537.4375 204.855,537.4375 Q205.23,537.4375 205.4644,537.7031 Q205.6987,537.9531 205.6987,538.5625 L205.6987,540.0156 Q205.6987,540.625 205.4644,540.8906 Q205.23,541.1563 204.855,541.1563 Q204.5112,541.1563 204.3081,540.9531 Q204.105,540.7656 203.9956,540.25 Q203.9487,539.8906 203.7612,539.7031 Q203.4331,539.3281 202.8237,539.1094 Q202.2144,538.8906 201.5894,538.8906 Q200.8237,538.8906 200.1831,539.2188 Q199.5581,539.5469 199.0581,540.2969 Q198.5737,541.0469 198.5737,542.0781 L198.5737,543.1719 Q198.5737,544.4063 199.4644,545.2344 Q200.355,546.0469 201.9487,546.0469 Q202.8862,546.0469 203.5425,545.7969 Q203.9331,545.6406 204.355,545.2031 Q204.6206,544.9375 204.7612,544.8594 Q204.9175,544.7813 205.1206,544.7813 Q205.4487,544.7813 205.6987,545.0469 Q205.9644,545.2969 205.9644,545.6406 Q205.9644,545.9844 205.6206,546.3906 Q205.1206,546.9688 204.3237,547.2969 Q203.2456,547.75 201.9487,547.75 Q200.4331,547.75 199.23,547.125 Q198.2456,546.625 197.5581,545.5625 Q196.8706,544.4844 196.8706,543.2031 L196.8706,542.0469 Q196.8706,540.7188 197.48,539.5781 Q198.105,538.4219 199.1987,537.8125 Q200.2925,537.1875 201.5269,537.1875 Q202.2612,537.1875 202.9019,537.3594 Q203.5581,537.5156 204.105,537.875 Z " fill="#000000"/><text fill="#000000" font-family="sans-serif" font-size="14" lengthAdjust="spacing" textLength="52.1445" x="221.8394" y="547.7285">Persona</text><line style="stroke:#181818;stroke-width:0.5;" x1="111.5" x2="351.8232" y1="558" y2="558"/><rect fill="none" height="6" style="stroke:#C82930;stroke-width:1;" width="6" x="118.5" y="569.3047"/><text fill="#000000" font-family="sans-serif" font-size="14" lengthAdjust="spacing" textLength="87.9307" x="130.5" y="576.5332">String nombre</text><rect fill="none" height="6" style="stroke:#C82930;stroke-width:1;" width="6" x="118.5" y="586.9141"/><text fill="#000000" font-family="sans-serif" font-size="14" lengthAdjust="spacing" textLength="59.1445" x="130.5" y="594.1426">String dni</text><line style="stroke:#181818;stroke-width:0.5;" x1="111.5" x2="351.8232" y1="601.2188" y2="601.2188"/><ellipse cx="121.5" cy="615.5234" fill="#84BE84" rx="3" ry="3" style="stroke:#038048;stroke-width:1;"/><text fill="#000000" font-family="sans-serif" font-size="14" lengthAdjust="spacing" textLength="216.3232" x="130.5" y="619.752">Persona(String nombre, String dni)</text><ellipse cx="121.5" cy="633.1328" fill="#84BE84" rx="3" ry="3" style="stroke:#038048;stroke-width:1;"/><text fill="#000000" font-family="sans-serif" font-size="14" lengthAdjust="spacing" textLength="168.0957" x="130.5" y="637.3613">Persona(Persona persona)</text><ellipse cx="121.5" cy="650.7422" fill="#84BE84" rx="3" ry="3" style="stroke:#038048;stroke-width:1;"/><text fill="#000000" font-family="sans-serif" font-size="14" lengthAdjust="spacing" textLength="165.7236" x="130.5" y="654.9707">setNombre(String nombre)</text><ellipse cx="121.5" cy="668.3516" fill="#84BE84" rx="3" ry="3" style="stroke:#038048;stroke-width:1;"/><text fill="#000000" font-family="sans-serif" font-size="14" lengthAdjust="spacing" textLength="119.041" x="130.5" y="672.5801">String getNombre()</text><ellipse cx="121.5" cy="685.9609" fill="#84BE84" rx="3" ry="3" style="stroke:#038048;stroke-width:1;"/><text fill="#000000" font-family="sans-serif" font-size="14" lengthAdjust="spacing" textLength="98.0342" x="130.5" y="690.1895">String toString()</text></g><!--class Principal--><g id="elem_Principal"><rect codeLine="24" fill="#F1F1F1" height="65.6094" id="Principal" rx="2.5" ry="2.5" style="stroke:#181818;stroke-width:0.5;" width="141.1445" x="144" y="7"/><ellipse cx="183.9548" cy="23" fill="#ADD1B2" rx="11" ry="11" style="stroke:#181818;stroke-width:1;"/><path d="M186.7204,18.875 Q186.8767,18.6563 187.0642,18.5469 Q187.2517,18.4375 187.4704,18.4375 Q187.8454,18.4375 188.0798,18.7031 Q188.3142,18.9531 188.3142,19.5625 L188.3142,21.0156 Q188.3142,21.625 188.0798,21.8906 Q187.8454,22.1563 187.4704,22.1563 Q187.1267,22.1563 186.9235,21.9531 Q186.7204,21.7656 186.611,21.25 Q186.5642,20.8906 186.3767,20.7031 Q186.0485,20.3281 185.4392,20.1094 Q184.8298,19.8906 184.2048,19.8906 Q183.4392,19.8906 182.7985,20.2188 Q182.1735,20.5469 181.6735,21.2969 Q181.1892,22.0469 181.1892,23.0781 L181.1892,24.1719 Q181.1892,25.4063 182.0798,26.2344 Q182.9704,27.0469 184.5642,27.0469 Q185.5017,27.0469 186.1579,26.7969 Q186.5485,26.6406 186.9704,26.2031 Q187.236,25.9375 187.3767,25.8594 Q187.5329,25.7813 187.736,25.7813 Q188.0642,25.7813 188.3142,26.0469 Q188.5798,26.2969 188.5798,26.6406 Q188.5798,26.9844 188.236,27.3906 Q187.736,27.9688 186.9392,28.2969 Q185.861,28.75 184.5642,28.75 Q183.0485,28.75 181.8454,28.125 Q180.861,27.625 180.1735,26.5625 Q179.486,25.4844 179.486,24.2031 L179.486,23.0469 Q179.486,21.7188 180.0954,20.5781 Q180.7204,19.4219 181.8142,18.8125 Q182.9079,18.1875 184.1423,18.1875 Q184.8767,18.1875 185.5173,18.3594 Q186.1735,18.5156 186.7204,18.875 Z " fill="#000000"/><text fill="#000000" font-family="sans-serif" font-size="14" lengthAdjust="spacing" textLength="53.6895" x="203.5003" y="28.7285">Principal</text><line style="stroke:#181818;stroke-width:0.5;" x1="145" x2="284.1445" y1="39" y2="39"/><line style="stroke:#181818;stroke-width:0.5;" x1="145" x2="284.1445" y1="47" y2="47"/><ellipse cx="155" cy="61.3047" fill="#84BE84" rx="3" ry="3" style="stroke:#038048;stroke-width:1;"/><text fill="#000000" font-family="sans-serif" font-size="14" lengthAdjust="spacing" textLength="115.1445" x="164" y="65.5332">main(String[] args)</text></g><!--reverse link Lista to Nodo--><g id="link_Lista_Nodo"><path codeLine="28" d="M136.945,281.0722 C140.315,306.0422 142.6,323.02 145.82,346.95 " fill="none" id="Lista-backto-Nodo" style="stroke:#181818;stroke-width:1;"/><polygon fill="#181818" points="135.34,269.18,132.1784,275.6611,136.945,281.0722,140.1066,274.5911,135.34,269.18" style="stroke:#181818;stroke-width:1;"/><text fill="#000000" font-family="sans-serif" font-size="13" lengthAdjust="spacing" textLength="49.1499" x="142.5" y="313.4951">contiene</text><text fill="#000000" font-family="sans-serif" font-size="13" lengthAdjust="spacing" textLength="7.23" x="128.8965" y="290.8574">1</text><text fill="#000000" font-family="sans-serif" font-size="13" lengthAdjust="spacing" textLength="7.23" x="137.3751" y="336.2483">1</text></g><!--link Nodo to Persona--><g id="link_Nodo_Persona"><path codeLine="29" d="M171.02,448.2 C179.64,471.34 188.0459,493.8773 197.8559,520.2173 " fill="none" id="Nodo-to-Persona" style="stroke:#181818;stroke-width:1;"/><polygon fill="#181818" points="199.95,525.84,200.5573,516.0099,198.2049,521.1544,193.0604,518.802,199.95,525.84" style="stroke:#181818;stroke-width:1;"/><text fill="#000000" font-family="sans-serif" font-size="13" lengthAdjust="spacing" textLength="57.8081" x="187.5" y="492.4951">referencia</text><text fill="#000000" font-family="sans-serif" font-size="13" lengthAdjust="spacing" textLength="7.23" x="165.9323" y="469.2496">1</text><text fill="#000000" font-family="sans-serif" font-size="13" lengthAdjust="spacing" textLength="7.23" x="189.8242" y="514.9974">1</text></g><!--link Principal to Lista--><g id="link_Principal_Lista"><path codeLine="30" d="M197.73,73.39 C186.37,95.32 173.7986,119.5918 160.3686,145.5318 " fill="none" id="Principal-to-Lista" style="stroke:#181818;stroke-width:1;"/><polygon fill="#181818" points="157.61,150.86,165.3001,144.7067,159.9088,146.4198,158.1957,141.0286,157.61,150.86" style="stroke:#181818;stroke-width:1;"/><text fill="#000000" font-family="sans-serif" font-size="13" lengthAdjust="spacing" textLength="20.96" x="181.5" y="117.4951">usa</text></g><!--link Principal to Persona--><g id="link_Principal_Persona"><path codeLine="31" d="M234.07,73.37 C245.74,94.61 259.43,123.46 265.5,151 C293.84,279.5 272.9468,426.7168 253.5168,519.7368 " fill="none" id="Principal-to-Persona" style="stroke:#181818;stroke-width:1;"/><polygon fill="#181818" points="252.29,525.61,258.0457,517.618,253.3123,520.7156,250.2147,515.9823,252.29,525.61" style="stroke:#181818;stroke-width:1;"/><text fill="#000000" font-family="sans-serif" font-size="13" lengthAdjust="spacing" textLength="86.709" x="279.5" y="313.4951">crea instancias</text></g><!--SRC=[TL8nRiCm3Dpr2YAJqrP3LmzzGH44o5XqO1JM411B0Qai3VBts9Jas2xgXTRTyGwavCue0fzU4iBDmF1PsCLJ18T7-aL5NZFVRCl91o5Eo7jYYG6RKk6IQvNrKH9FAXdQxyOupTE4Mz6jsWkg4l7TrLD8D0F_nassbQc371Bxq468_P5fYPs2NyOt2_7RJBTT2VyPLoZjj7VfLEa2TfDgHQIOV-PhsW-0ynSyJxlgqOVY__KDo9seFD_Vvdq3BzPgrVMru698mmB9w7aahFtGMgTeWUc7c8OWDC_0KPPTMxZAcdasEoOS7qJ2qK3C0m00]--></g></svg>