<svg xmlns="http://www.w3.org/2000/svg" xmlns:xlink="http://www.w3.org/1999/xlink" contentStyleType="text/css" height="604px" preserveAspectRatio="none" style="width:491px;height:604px;background:#FFFFFF;" version="1.1" viewBox="0 0 491 604" width="491px" zoomAndPan="magnify"><defs/><g><!--class Main--><g id="elem_Main"><rect codeLine="1" fill="#F1F1F1" height="129.4844" id="Main" rx="2.5" ry="2.5" style="stroke:#181818;stroke-width:0.5;" width="203.085" x="89.5" y="7"/><ellipse cx="170.082" cy="23" fill="#ADD1B2" rx="11" ry="11" style="stroke:#181818;stroke-width:1;"/><path d="M173.0508,28.6406 Q172.4727,28.9375 171.832,29.0781 Q171.1914,29.2344 170.4883,29.2344 Q167.9883,29.2344 166.6602,27.5938 Q165.3477,25.9375 165.3477,22.8125 Q165.3477,19.6875 166.6602,18.0313 Q167.9883,16.375 170.4883,16.375 Q171.1914,16.375 171.832,16.5313 Q172.4883,16.6875 173.0508,16.9844 L173.0508,19.7031 Q172.4258,19.125 171.832,18.8594 Q171.2383,18.5781 170.6133,18.5781 Q169.2695,18.5781 168.582,19.6563 Q167.8945,20.7188 167.8945,22.8125 Q167.8945,24.9063 168.582,25.9844 Q169.2695,27.0469 170.6133,27.0469 Q171.2383,27.0469 171.832,26.7813 Q172.4258,26.5 173.0508,25.9219 L173.0508,28.6406 Z " fill="#000000"/><text fill="#000000" font-family="sans-serif" font-size="14" lengthAdjust="spacing" textLength="33.4209" x="190.582" y="27.8467">Main</text><line style="stroke:#181818;stroke-width:0.5;" x1="90.5" x2="291.585" y1="39" y2="39"/><rect fill="none" height="6" style="stroke:#C82930;stroke-width:1;" width="6" x="97.5" y="49.6484"/><text fill="#000000" font-family="sans-serif" font-size="14" lengthAdjust="spacing" textLength="117.7559" x="109.5" y="55.9951">manuel: Persona</text><rect fill="none" height="6" style="stroke:#C82930;stroke-width:1;" width="6" x="97.5" y="65.9453"/><text fill="#000000" font-family="sans-serif" font-size="14" lengthAdjust="spacing" textLength="102.9082" x="109.5" y="72.292">copia: Persona</text><rect fill="none" height="6" style="stroke:#C82930;stroke-width:1;" width="6" x="97.5" y="82.2422"/><text fill="#000000" font-family="sans-serif" font-size="14" lengthAdjust="spacing" textLength="136.6094" x="109.5" y="88.5889">referencia: Persona</text><rect fill="none" height="6" style="stroke:#C82930;stroke-width:1;" width="6" x="97.5" y="98.5391"/><text fill="#000000" font-family="sans-serif" font-size="14" lengthAdjust="spacing" textLength="71.3604" x="109.5" y="104.8857">lista: Lista</text><line style="stroke:#181818;stroke-width:0.5;" x1="90.5" x2="291.585" y1="112.1875" y2="112.1875"/><ellipse cx="100.5" cy="125.8359" fill="#84BE84" rx="3" ry="3" style="stroke:#038048;stroke-width:1;"/><text fill="#000000" font-family="sans-serif" font-size="14" lengthAdjust="spacing" textLength="177.085" x="109.5" y="129.1826">main(args: String[]): void</text></g><!--class Persona--><g id="elem_Persona"><rect codeLine="9" fill="#F1F1F1" height="178.375" id="Persona" rx="2.5" ry="2.5" style="stroke:#181818;stroke-width:0.5;" width="279.8252" x="7" y="419"/><ellipse cx="114.6011" cy="435" fill="#ADD1B2" rx="11" ry="11" style="stroke:#181818;stroke-width:1;"/><path d="M117.5698,440.6406 Q116.9917,440.9375 116.3511,441.0781 Q115.7104,441.2344 115.0073,441.2344 Q112.5073,441.2344 111.1792,439.5938 Q109.8667,437.9375 109.8667,434.8125 Q109.8667,431.6875 111.1792,430.0313 Q112.5073,428.375 115.0073,428.375 Q115.7104,428.375 116.3511,428.5313 Q117.0073,428.6875 117.5698,428.9844 L117.5698,431.7031 Q116.9448,431.125 116.3511,430.8594 Q115.7573,430.5781 115.1323,430.5781 Q113.7886,430.5781 113.1011,431.6563 Q112.4136,432.7188 112.4136,434.8125 Q112.4136,436.9063 113.1011,437.9844 Q113.7886,439.0469 115.1323,439.0469 Q115.7573,439.0469 116.3511,438.7813 Q116.9448,438.5 117.5698,437.9219 L117.5698,440.6406 Z " fill="#000000"/><text fill="#000000" font-family="sans-serif" font-size="14" lengthAdjust="spacing" textLength="56.123" x="135.1011" y="439.8467">Persona</text><line style="stroke:#181818;stroke-width:0.5;" x1="8" x2="285.8252" y1="451" y2="451"/><rect fill="none" height="6" style="stroke:#C82930;stroke-width:1;" width="6" x="15" y="461.6484"/><text fill="#000000" font-family="sans-serif" font-size="14" lengthAdjust="spacing" textLength="105.2803" x="27" y="467.9951">nombre: String</text><rect fill="none" height="6" style="stroke:#C82930;stroke-width:1;" width="6" x="15" y="477.9453"/><text fill="#000000" font-family="sans-serif" font-size="14" lengthAdjust="spacing" textLength="72.5977" x="27" y="484.292">dni: String</text><line style="stroke:#181818;stroke-width:0.5;" x1="8" x2="285.8252" y1="491.5938" y2="491.5938"/><ellipse cx="18" cy="505.2422" fill="#84BE84" rx="3" ry="3" style="stroke:#038048;stroke-width:1;"/><text fill="#000000" font-family="sans-serif" font-size="14" lengthAdjust="spacing" textLength="253.8252" x="27" y="508.5889">Persona(nombre: String, dni: String)</text><ellipse cx="18" cy="521.5391" fill="#84BE84" rx="3" ry="3" style="stroke:#038048;stroke-width:1;"/><text fill="#000000" font-family="sans-serif" font-size="14" lengthAdjust="spacing" textLength="188.9043" x="27" y="524.8857">Persona(persona: Persona)</text><ellipse cx="18" cy="537.8359" fill="#84BE84" rx="3" ry="3" style="stroke:#038048;stroke-width:1;"/><text fill="#000000" font-family="sans-serif" font-size="14" lengthAdjust="spacing" textLength="140.793" x="27" y="541.1826">getNombre(): String</text><ellipse cx="18" cy="554.1328" fill="#84BE84" rx="3" ry="3" style="stroke:#038048;stroke-width:1;"/><text fill="#000000" font-family="sans-serif" font-size="14" lengthAdjust="spacing" textLength="232.3262" x="27" y="557.4795">setNombre(nombre: String): void</text><ellipse cx="18" cy="570.4297" fill="#84BE84" rx="3" ry="3" style="stroke:#038048;stroke-width:1;"/><text fill="#000000" font-family="sans-serif" font-size="14" lengthAdjust="spacing" textLength="108.4043" x="27" y="573.7764">getDni(): String</text><ellipse cx="18" cy="586.7266" fill="#84BE84" rx="3" ry="3" style="stroke:#038048;stroke-width:1;"/><text fill="#000000" font-family="sans-serif" font-size="14" lengthAdjust="spacing" textLength="117.708" x="27" y="590.0732">toString(): String</text></g><!--class Lista--><g id="elem_Lista"><rect codeLine="20" fill="#F1F1F1" height="129.4844" id="Lista" rx="2.5" ry="2.5" style="stroke:#181818;stroke-width:0.5;" width="260.2676" x="224" y="213"/><ellipse cx="333.3579" cy="229" fill="#ADD1B2" rx="11" ry="11" style="stroke:#181818;stroke-width:1;"/><path d="M336.3267,234.6406 Q335.7485,234.9375 335.1079,235.0781 Q334.4673,235.2344 333.7642,235.2344 Q331.2642,235.2344 329.936,233.5938 Q328.6235,231.9375 328.6235,228.8125 Q328.6235,225.6875 329.936,224.0313 Q331.2642,222.375 333.7642,222.375 Q334.4673,222.375 335.1079,222.5313 Q335.7642,222.6875 336.3267,222.9844 L336.3267,225.7031 Q335.7017,225.125 335.1079,224.8594 Q334.5142,224.5781 333.8892,224.5781 Q332.5454,224.5781 331.8579,225.6563 Q331.1704,226.7188 331.1704,228.8125 Q331.1704,230.9063 331.8579,231.9844 Q332.5454,233.0469 333.8892,233.0469 Q334.5142,233.0469 335.1079,232.7813 Q335.7017,232.5 336.3267,231.9219 L336.3267,234.6406 Z " fill="#000000"/><text fill="#000000" font-family="sans-serif" font-size="14" lengthAdjust="spacing" textLength="33.0518" x="353.8579" y="233.8467">Lista</text><line style="stroke:#181818;stroke-width:0.5;" x1="225" x2="483.2676" y1="245" y2="245"/><rect fill="none" height="6" style="stroke:#C82930;stroke-width:1;" width="6" x="232" y="255.6484"/><text fill="#000000" font-family="sans-serif" font-size="14" lengthAdjust="spacing" textLength="140.0752" x="244" y="261.9951">personas: Persona[]</text><rect fill="none" height="6" style="stroke:#C82930;stroke-width:1;" width="6" x="232" y="271.9453"/><text fill="#000000" font-family="sans-serif" font-size="14" lengthAdjust="spacing" textLength="89.8311" x="244" y="278.292">contador: int</text><line style="stroke:#181818;stroke-width:0.5;" x1="225" x2="483.2676" y1="285.5938" y2="285.5938"/><ellipse cx="235" cy="299.2422" fill="#84BE84" rx="3" ry="3" style="stroke:#038048;stroke-width:1;"/><text fill="#000000" font-family="sans-serif" font-size="14" lengthAdjust="spacing" textLength="43.9756" x="244" y="302.5889">Lista()</text><ellipse cx="235" cy="315.5391" fill="#84BE84" rx="3" ry="3" style="stroke:#038048;stroke-width:1;"/><text fill="#000000" font-family="sans-serif" font-size="14" lengthAdjust="spacing" textLength="234.2676" x="244" y="318.8857">insertarPersona(p: Persona): void</text><ellipse cx="235" cy="331.8359" fill="#84BE84" rx="3" ry="3" style="stroke:#038048;stroke-width:1;"/><text fill="#000000" font-family="sans-serif" font-size="14" lengthAdjust="spacing" textLength="216.2412" x="244" y="335.1826">mostrarListaConHashes(): void</text></g><!--link Main to Persona--><g id="link_Main_Persona"><path codeLine="28" d="M159.77,136 C149.77,159.59 140,186.95 135,213 C121.9,281.23 125.4187,353.98 132.2387,412.78 " fill="none" id="Main-to-Persona" style="stroke:#181818;stroke-width:1;"/><polygon fill="#181818" points="132.93,418.74,135.8664,409.3391,132.3539,413.7733,127.9197,410.2608,132.93,418.74" style="stroke:#181818;stroke-width:1;"/><text fill="#000000" font-family="sans-serif" font-size="13" lengthAdjust="spacing" textLength="69.3228" x="136" y="282.0669">Crea y usa</text></g><!--link Main to Lista--><g id="link_Main_Lista"><path codeLine="29" d="M241.9,136.21 C261.43,160.64 279.9449,183.8124 299.4549,208.2324 " fill="none" id="Main-to-Lista" style="stroke:#181818;stroke-width:1;"/><polygon fill="#181818" points="303.2,212.92,300.7074,203.3918,300.0791,209.0136,294.4572,208.3853,303.2,212.92" style="stroke:#181818;stroke-width:1;"/><text fill="#000000" font-family="sans-serif" font-size="13" lengthAdjust="spacing" textLength="69.3228" x="278" y="179.0669">Crea y usa</text></g><!--link Lista to Persona--><g id="link_Lista_Persona"><path codeLine="30" d="M296.34,342.15 C274.81,365.92 253.9889,388.9039 230.8089,414.4839 " fill="none" id="Lista-to-Persona" style="stroke:#181818;stroke-width:1;"/><polygon fill="#181818" points="226.78,418.93,235.7875,414.9468,230.1374,415.2249,229.8594,409.5749,226.78,418.93" style="stroke:#181818;stroke-width:1;"/><text fill="#000000" font-family="sans-serif" font-size="13" lengthAdjust="spacing" textLength="127.918" x="270" y="385.0669">Almacena personas</text></g><!--SRC=[PL8zJyCm4DtpAsvCLF87CY2XCZ10XSHOTJYI8rXApjMTYuGG_ntZs6wSPd7yFkptBkadL8KND0m_5VXd1xFVr2YZTl3cnF1uF3KTV5ap147h1NoXgODN4hMC4UtjsU0M5FeW8UvlcScey-3p_rBzLbKVWaHDpD82s_bTA0M9uC2cG7R9LfVokxMosKZFovfZ9NuaTmYdrCtc4irCUSrwEC7_oER6xEooNH6vT9X1hXo3QKvsFEK9iyF1IWU6NJmtUEiKth2IE9HSybgl23bRTO8Ip7lBJwYVf7NI-63XXsZR-_n1EjWB8Np3HV7ABiaBRe5AwyCqOq_-DNNx0m00]--></g></svg>