<svg xmlns="http://www.w3.org/2000/svg" xmlns:xlink="http://www.w3.org/1999/xlink" contentStyleType="text/css" height="235px" preserveAspectRatio="none" style="width:874px;height:235px;background:#FFFFFF;" version="1.1" viewBox="0 0 874 235" width="874px" zoomAndPan="magnify"><defs/><g><!--class Persona--><g id="elem_Persona"><rect codeLine="1" fill="#F1F1F1" height="80.5938" id="Persona" rx="2.5" ry="2.5" style="stroke:#181818;stroke-width:0.5;" width="131.2803" x="7" y="148.3"/><ellipse cx="41.4208" cy="164.3" fill="#ADD1B2" rx="11" ry="11" style="stroke:#181818;stroke-width:1;"/><path d="M44.3895,169.9406 Q43.8114,170.2375 43.1708,170.3781 Q42.5301,170.5344 41.827,170.5344 Q39.327,170.5344 37.9989,168.8937 Q36.6864,167.2375 36.6864,164.1125 Q36.6864,160.9875 37.9989,159.3312 Q39.327,157.675 41.827,157.675 Q42.5301,157.675 43.1708,157.8312 Q43.827,157.9875 44.3895,158.2844 L44.3895,161.0031 Q43.7645,160.425 43.1708,160.1594 Q42.577,159.8781 41.952,159.8781 Q40.6083,159.8781 39.9208,160.9562 Q39.2333,162.0187 39.2333,164.1125 Q39.2333,166.2062 39.9208,167.2844 Q40.6083,168.3469 41.952,168.3469 Q42.577,168.3469 43.1708,168.0812 Q43.7645,167.8 44.3895,167.2219 L44.3895,169.9406 Z " fill="#000000"/><text fill="#000000" font-family="sans-serif" font-size="14" lengthAdjust="spacing" textLength="56.123" x="59.7365" y="169.1467">Persona</text><line style="stroke:#181818;stroke-width:0.5;" x1="8" x2="137.2803" y1="180.3" y2="180.3"/><rect fill="none" height="6" style="stroke:#C82930;stroke-width:1;" width="6" x="15" y="190.9484"/><text fill="#000000" font-family="sans-serif" font-size="14" lengthAdjust="spacing" textLength="105.2803" x="27" y="197.2951">nombre: String</text><rect fill="none" height="6" style="stroke:#C82930;stroke-width:1;" width="6" x="15" y="207.2453"/><text fill="#000000" font-family="sans-serif" font-size="14" lengthAdjust="spacing" textLength="72.5977" x="27" y="213.592">dni: String</text><line style="stroke:#181818;stroke-width:0.5;" x1="8" x2="137.2803" y1="220.8937" y2="220.8937"/></g><!--class Nodo--><g id="elem_Nodo"><rect codeLine="6" fill="#F1F1F1" height="80.5938" id="Nodo" rx="2.5" ry="2.5" style="stroke:#181818;stroke-width:0.5;" width="147.8574" x="230.71" y="148.3"/><ellipse cx="282.1436" cy="164.3" fill="#ADD1B2" rx="11" ry="11" style="stroke:#181818;stroke-width:1;"/><path d="M285.1123,169.9406 Q284.5342,170.2375 283.8936,170.3781 Q283.253,170.5344 282.5498,170.5344 Q280.0498,170.5344 278.7217,168.8937 Q277.4092,167.2375 277.4092,164.1125 Q277.4092,160.9875 278.7217,159.3312 Q280.0498,157.675 282.5498,157.675 Q283.253,157.675 283.8936,157.8312 Q284.5498,157.9875 285.1123,158.2844 L285.1123,161.0031 Q284.4873,160.425 283.8936,160.1594 Q283.2998,159.8781 282.6748,159.8781 Q281.3311,159.8781 280.6436,160.9562 Q279.9561,162.0187 279.9561,164.1125 Q279.9561,166.2062 280.6436,167.2844 Q281.3311,168.3469 282.6748,168.3469 Q283.2998,168.3469 283.8936,168.0812 Q284.4873,167.8 285.1123,167.2219 L285.1123,169.9406 Z " fill="#000000"/><text fill="#000000" font-family="sans-serif" font-size="14" lengthAdjust="spacing" textLength="36.4902" x="302.6436" y="169.1467">Nodo</text><line style="stroke:#181818;stroke-width:0.5;" x1="231.71" x2="377.5674" y1="180.3" y2="180.3"/><rect fill="none" height="6" style="stroke:#C82930;stroke-width:1;" width="6" x="238.71" y="190.9484"/><text fill="#000000" font-family="sans-serif" font-size="14" lengthAdjust="spacing" textLength="121.8574" x="250.71" y="197.2951">persona: Persona</text><rect fill="none" height="6" style="stroke:#C82930;stroke-width:1;" width="6" x="238.71" y="207.2453"/><text fill="#000000" font-family="sans-serif" font-size="14" lengthAdjust="spacing" textLength="110.0791" x="250.71" y="213.592">siguiente: Nodo</text><line style="stroke:#181818;stroke-width:0.5;" x1="231.71" x2="377.5674" y1="220.8937" y2="220.8937"/></g><!--class Lista--><g id="elem_Lista"><rect codeLine="11" fill="#F1F1F1" height="64.2969" id="Lista" rx="2.5" ry="2.5" style="stroke:#181818;stroke-width:0.5;" width="126.7617" x="321.26" y="7"/><ellipse cx="364.0295" cy="23" fill="#ADD1B2" rx="11" ry="11" style="stroke:#181818;stroke-width:1;"/><path d="M366.9982,28.6406 Q366.4201,28.9375 365.7795,29.0781 Q365.1389,29.2344 364.4357,29.2344 Q361.9357,29.2344 360.6076,27.5938 Q359.2951,25.9375 359.2951,22.8125 Q359.2951,19.6875 360.6076,18.0313 Q361.9357,16.375 364.4357,16.375 Q365.1389,16.375 365.7795,16.5313 Q366.4357,16.6875 366.9982,16.9844 L366.9982,19.7031 Q366.3732,19.125 365.7795,18.8594 Q365.1857,18.5781 364.5607,18.5781 Q363.217,18.5781 362.5295,19.6563 Q361.842,20.7188 361.842,22.8125 Q361.842,24.9063 362.5295,25.9844 Q363.217,27.0469 364.5607,27.0469 Q365.1857,27.0469 365.7795,26.7813 Q366.3732,26.5 366.9982,25.9219 L366.9982,28.6406 Z " fill="#000000"/><text fill="#000000" font-family="sans-serif" font-size="14" lengthAdjust="spacing" textLength="33.0518" x="384.2005" y="27.8467">Lista</text><line style="stroke:#181818;stroke-width:0.5;" x1="322.26" x2="447.0217" y1="39" y2="39"/><rect fill="none" height="6" style="stroke:#C82930;stroke-width:1;" width="6" x="329.26" y="49.6484"/><text fill="#000000" font-family="sans-serif" font-size="14" lengthAdjust="spacing" textLength="100.7617" x="341.26" y="55.9951">primero: Nodo</text><line style="stroke:#181818;stroke-width:0.5;" x1="322.26" x2="447.0217" y1="63.2969" y2="63.2969"/></g><g id="elem_Manuel"><rect fill="#F1F1F1" height="60.8906" style="stroke:#181818;stroke-width:0.5;" width="150.749" x="534.27" y="8.7"/><text fill="#000000" font-family="sans-serif" font-size="14" lengthAdjust="spacing" textLength="50.9072" x="584.1909" y="23.6951">Manuel</text><line style="stroke:#181818;stroke-width:0.5;" x1="535.27" x2="684.019" y1="28.9969" y2="28.9969"/><text fill="#000000" font-family="sans-serif" font-size="14" lengthAdjust="spacing" textLength="138.749" x="540.27" y="45.992">nombre = "Manuel"</text><text fill="#000000" font-family="sans-serif" font-size="14" lengthAdjust="spacing" textLength="90.7881" x="540.27" y="62.2889">dni = "1234"</text></g><g id="elem_Copia"><rect fill="#F1F1F1" height="60.8906" style="stroke:#181818;stroke-width:0.5;" width="150.749" x="530.27" y="158.15"/><text fill="#000000" font-family="sans-serif" font-size="14" lengthAdjust="spacing" textLength="39.6963" x="585.7964" y="173.1451">Copia</text><line style="stroke:#181818;stroke-width:0.5;" x1="531.27" x2="680.019" y1="178.4469" y2="178.4469"/><text fill="#000000" font-family="sans-serif" font-size="14" lengthAdjust="spacing" textLength="138.749" x="536.27" y="195.442">nombre = "Manuel"</text><text fill="#000000" font-family="sans-serif" font-size="14" lengthAdjust="spacing" textLength="90.7881" x="536.27" y="211.7389">dni = "1234"</text></g><g id="elem_Referencia"><rect fill="#F1F1F1" height="60.8906" style="stroke:#181818;stroke-width:0.5;" width="150.749" x="716.27" y="158.15"/><text fill="#000000" font-family="sans-serif" font-size="14" lengthAdjust="spacing" textLength="75.291" x="753.999" y="173.1451">Referencia</text><line style="stroke:#181818;stroke-width:0.5;" x1="717.27" x2="866.019" y1="178.4469" y2="178.4469"/><text fill="#000000" font-family="sans-serif" font-size="14" lengthAdjust="spacing" textLength="138.749" x="722.27" y="195.442">nombre = "Manuel"</text><text fill="#000000" font-family="sans-serif" font-size="14" lengthAdjust="spacing" textLength="90.7881" x="722.27" y="211.7389">dni = "1234"</text></g><!--link Persona to Nodo--><g id="link_Persona_Nodo"><path codeLine="15" d="M138.5,188.59 C167.17,188.59 194.9,188.59 224.45,188.59 " fill="none" id="Persona-to-Nodo" style="stroke:#181818;stroke-width:1;"/><polygon fill="#181818" points="230.45,188.59,221.45,184.59,225.45,188.59,221.45,192.59,230.45,188.59" style="stroke:#181818;stroke-width:1;"/><text fill="#000000" font-family="sans-serif" font-size="13" lengthAdjust="spacing" textLength="56.2847" x="156.5" y="181.6569">contiene</text><text fill="#000000" font-family="sans-serif" font-size="13" lengthAdjust="spacing" textLength="8.271" x="146.1557" y="184.8431">1</text><text fill="#000000" font-family="sans-serif" font-size="13" lengthAdjust="spacing" textLength="23.0356" x="199.5522" y="184.971">1..*</text></g><!--link Nodo to Persona--><g id="link_Nodo_Persona"><path codeLine="39" d="M230.25,206.29 C224.6,207.21 218.97,208 213.5,208.59 C187.87,211.37 181.09,211.64 155.5,208.59 C149.91,207.93 150.0606,208.1078 144.3106,207.0478 " fill="none" id="Nodo-to-Persona" style="stroke:#181818;stroke-width:1;"/><polygon fill="#181818" points="138.41,205.96,146.5357,211.5254,143.3271,206.8665,147.986,203.6579,138.41,205.96" style="stroke:#181818;stroke-width:1;"/><text fill="#000000" font-family="sans-serif" font-size="13" lengthAdjust="spacing" textLength="56.2847" x="156.5" y="204.6569">contiene</text></g><!--link Lista to Nodo--><g id="link_Lista_Nodo"><path codeLine="16" d="M321.05,67.34 C307.69,76.15 295.33,87.35 287.64,101.3 C279.82,115.47 279.6897,126.946 284.2197,142.276 " fill="none" id="Lista-to-Nodo" style="stroke:#181818;stroke-width:1;"/><polygon fill="#181818" points="285.92,148.03,287.2056,138.2654,284.5031,143.235,279.5335,140.5325,285.92,148.03" style="stroke:#181818;stroke-width:1;"/><text fill="#000000" font-family="sans-serif" font-size="13" lengthAdjust="spacing" textLength="66.2251" x="288.64" y="114.3669">referencia</text><text fill="#000000" font-family="sans-serif" font-size="13" lengthAdjust="spacing" textLength="8.271" x="304.8289" y="66.9368">1</text><text fill="#000000" font-family="sans-serif" font-size="13" lengthAdjust="spacing" textLength="8.271" x="274.1797" y="137.1468">1</text></g><!--link Lista to Nodo--><g id="link_Lista_Nodo"><path codeLine="37" d="M377.37,71.62 C373.28,86.31 367.42,103.72 359.64,118.3 C354.22,128.46 350.9063,133.8527 343.7663,143.1427 " fill="none" id="Lista-to-Nodo-1" style="stroke:#181818;stroke-width:1;"/><polygon fill="#181818" points="340.11,147.9,348.7659,143.2016,343.1569,143.9356,342.4229,138.3266,340.11,147.9" style="stroke:#181818;stroke-width:1;"/><text fill="#000000" font-family="sans-serif" font-size="13" lengthAdjust="spacing" textLength="32.9443" x="368.64" y="114.3669">tiene</text><text fill="#000000" font-family="sans-serif" font-size="13" lengthAdjust="spacing" textLength="8.271" x="367.2473" y="91.3191">1</text><text fill="#000000" font-family="sans-serif" font-size="13" lengthAdjust="spacing" textLength="23.0356" x="320.9333" y="137.2961">1..*</text></g><!--link Manuel to Copia--><!--link Manuel to Referencia--><!--link Nodo to Nodo--><g id="link_Nodo_Nodo"><path codeLine="40" d="M378.97,173.95 C398.66,174.79 413.57,179.67 413.57,188.59 C413.57,197.52 404.6545,202.1443 384.9645,202.9843 " fill="none" id="Nodo-to-Nodo" style="stroke:#181818;stroke-width:1;"/><polygon fill="#181818" points="378.97,203.24,388.1323,206.8528,383.9655,203.0269,387.7913,198.86,378.97,203.24" style="stroke:#181818;stroke-width:1;"/><text fill="#000000" font-family="sans-serif" font-size="13" lengthAdjust="spacing" textLength="59.8203" x="419.57" y="193.1569">siguiente</text></g><!--SRC=[bL7BIWGn4BpdAvfS5eHPsDNJW5wygiXu50_Pf1rxcUqUakn9_2e_mHypcSmByQ2dqDLLrKN5TYO4U4GVX0syAu0AM4u7ZpKyHK_S3f1ZckSFfUoWUX0dewGl1lNaD821sZCXnsILgOlmZaASZlMUJkXbeKnPz4v3LTsaTxkzqELO3LOu9azKnMCXpGoFh-YHBHcbDj1WPom9Om27q4a0EHmnffSu6MIQImCoO0VswzDHAofJR8Hxm-U4vfob4hW6NK2TiDH91dRxookTWu-gM-d9_5VKpA7_h1pJLSzlv1poIsfXEFtRebbryhEuTRkbMZLCQJbznQhsQJKAvY_-1W00]--></g></svg>