<svg xmlns="http://www.w3.org/2000/svg" xmlns:xlink="http://www.w3.org/1999/xlink" contentStyleType="text/css" height="681px" preserveAspectRatio="none" style="width:582px;height:681px;background:#FFFFFF;" version="1.1" viewBox="0 0 582 681" width="582px" zoomAndPan="magnify"><defs/><g><!--class Principal--><g id="elem_Principal"><rect codeLine="1" fill="#F1F1F1" height="64.2969" id="Principal" rx="2.5" ry="2.5" style="stroke:#181818;stroke-width:0.5;" width="159.5742" x="98.41" y="7"/><ellipse cx="143.9954" cy="23" fill="#ADD1B2" rx="11" ry="11" style="stroke:#181818;stroke-width:1;"/><path d="M146.9642,28.6406 Q146.3861,28.9375 145.7454,29.0781 Q145.1048,29.2344 144.4017,29.2344 Q141.9017,29.2344 140.5736,27.5938 Q139.2611,25.9375 139.2611,22.8125 Q139.2611,19.6875 140.5736,18.0313 Q141.9017,16.375 144.4017,16.375 Q145.1048,16.375 145.7454,16.5313 Q146.4017,16.6875 146.9642,16.9844 L146.9642,19.7031 Q146.3392,19.125 145.7454,18.8594 Q145.1517,18.5781 144.5267,18.5781 Q143.1829,18.5781 142.4954,19.6563 Q141.8079,20.7188 141.8079,22.8125 Q141.8079,24.9063 142.4954,25.9844 Q143.1829,27.0469 144.5267,27.0469 Q145.1517,27.0469 145.7454,26.7813 Q146.3392,26.5 146.9642,25.9219 L146.9642,28.6406 Z " fill="#000000"/><text fill="#000000" font-family="sans-serif" font-size="14" lengthAdjust="spacing" textLength="59.9033" x="164.4954" y="27.8467">Principal</text><line style="stroke:#181818;stroke-width:0.5;" x1="99.41" x2="256.9842" y1="39" y2="39"/><line style="stroke:#181818;stroke-width:0.5;" x1="99.41" x2="256.9842" y1="47" y2="47"/><ellipse cx="109.41" cy="60.6484" fill="#84BE84" rx="3" ry="3" style="stroke:#038048;stroke-width:1;"/><text fill="#000000" font-family="sans-serif" font-size="14" lengthAdjust="spacing" textLength="133.5742" x="118.41" y="63.9951">main(String[] args)</text></g><!--class Persona--><g id="elem_Persona"><rect codeLine="5" fill="#F1F1F1" height="145.7813" id="Persona" rx="2.5" ry="2.5" style="stroke:#181818;stroke-width:0.5;" width="270.3916" x="7" y="528.67"/><ellipse cx="109.8843" cy="544.67" fill="#ADD1B2" rx="11" ry="11" style="stroke:#181818;stroke-width:1;"/><path d="M112.853,550.3106 Q112.2749,550.6075 111.6343,550.7481 Q110.9937,550.9044 110.2905,550.9044 Q107.7905,550.9044 106.4624,549.2638 Q105.1499,547.6075 105.1499,544.4825 Q105.1499,541.3575 106.4624,539.7013 Q107.7905,538.045 110.2905,538.045 Q110.9937,538.045 111.6343,538.2013 Q112.2905,538.3575 112.853,538.6544 L112.853,541.3731 Q112.228,540.795 111.6343,540.5294 Q111.0405,540.2481 110.4155,540.2481 Q109.0718,540.2481 108.3843,541.3263 Q107.6968,542.3888 107.6968,544.4825 Q107.6968,546.5763 108.3843,547.6544 Q109.0718,548.7169 110.4155,548.7169 Q111.0405,548.7169 111.6343,548.4513 Q112.228,548.17 112.853,547.5919 L112.853,550.3106 Z " fill="#000000"/><text fill="#000000" font-family="sans-serif" font-size="14" lengthAdjust="spacing" textLength="56.123" x="130.3843" y="549.5167">Persona</text><line style="stroke:#181818;stroke-width:0.5;" x1="8" x2="276.3916" y1="560.67" y2="560.67"/><rect fill="none" height="6" style="stroke:#C82930;stroke-width:1;" width="6" x="15" y="571.3184"/><text fill="#000000" font-family="sans-serif" font-size="14" lengthAdjust="spacing" textLength="100.5635" x="27" y="577.6651">String nombre</text><rect fill="none" height="6" style="stroke:#C82930;stroke-width:1;" width="6" x="15" y="587.6153"/><text fill="#000000" font-family="sans-serif" font-size="14" lengthAdjust="spacing" textLength="67.8809" x="27" y="593.962">String dni</text><line style="stroke:#181818;stroke-width:0.5;" x1="8" x2="276.3916" y1="601.2638" y2="601.2638"/><ellipse cx="18" cy="614.9122" fill="#84BE84" rx="3" ry="3" style="stroke:#038048;stroke-width:1;"/><text fill="#000000" font-family="sans-serif" font-size="14" lengthAdjust="spacing" textLength="244.3916" x="27" y="618.2589">Persona(String nombre, String dni)</text><ellipse cx="18" cy="631.2091" fill="#84BE84" rx="3" ry="3" style="stroke:#038048;stroke-width:1;"/><text fill="#000000" font-family="sans-serif" font-size="14" lengthAdjust="spacing" textLength="184.1875" x="27" y="634.5557">Persona(Persona persona)</text><ellipse cx="18" cy="647.5059" fill="#84BE84" rx="3" ry="3" style="stroke:#038048;stroke-width:1;"/><text fill="#000000" font-family="sans-serif" font-size="14" lengthAdjust="spacing" textLength="103.6875" x="27" y="650.8526">String getDni()</text><ellipse cx="18" cy="663.8028" fill="#84BE84" rx="3" ry="3" style="stroke:#038048;stroke-width:1;"/><text fill="#000000" font-family="sans-serif" font-size="14" lengthAdjust="spacing" textLength="136.0762" x="27" y="667.1495">String getNombre()</text></g><!--class Nodo--><g id="elem_Nodo"><rect codeLine="14" fill="#F1F1F1" height="96.8906" id="Nodo" rx="2.5" ry="2.5" style="stroke:#181818;stroke-width:0.5;" width="304.8174" x="165.79" y="354.78"/><ellipse cx="295.7036" cy="370.78" fill="#ADD1B2" rx="11" ry="11" style="stroke:#181818;stroke-width:1;"/><path d="M298.6723,376.4206 Q298.0942,376.7175 297.4536,376.8581 Q296.8129,377.0144 296.1098,377.0144 Q293.6098,377.0144 292.2817,375.3738 Q290.9692,373.7175 290.9692,370.5925 Q290.9692,367.4675 292.2817,365.8113 Q293.6098,364.155 296.1098,364.155 Q296.8129,364.155 297.4536,364.3113 Q298.1098,364.4675 298.6723,364.7644 L298.6723,367.4831 Q298.0473,366.905 297.4536,366.6394 Q296.8598,366.3581 296.2348,366.3581 Q294.8911,366.3581 294.2036,367.4363 Q293.5161,368.4988 293.5161,370.5925 Q293.5161,372.6863 294.2036,373.7644 Q294.8911,374.8269 296.2348,374.8269 Q296.8598,374.8269 297.4536,374.5613 Q298.0473,374.28 298.6723,373.7019 L298.6723,376.4206 Z " fill="#000000"/><text fill="#000000" font-family="sans-serif" font-size="14" lengthAdjust="spacing" textLength="36.4902" x="316.2036" y="375.6267">Nodo</text><line style="stroke:#181818;stroke-width:0.5;" x1="166.79" x2="469.6074" y1="386.78" y2="386.78"/><rect fill="none" height="6" style="stroke:#C82930;stroke-width:1;" width="6" x="173.79" y="397.4284"/><text fill="#000000" font-family="sans-serif" font-size="14" lengthAdjust="spacing" textLength="117.1406" x="185.79" y="403.7751">Persona persona</text><rect fill="none" height="6" style="stroke:#C82930;stroke-width:1;" width="6" x="173.79" y="413.7253"/><text fill="#000000" font-family="sans-serif" font-size="14" lengthAdjust="spacing" textLength="105.3623" x="185.79" y="420.072">Nodo siguiente</text><line style="stroke:#181818;stroke-width:0.5;" x1="166.79" x2="469.6074" y1="427.3738" y2="427.3738"/><ellipse cx="176.79" cy="441.0222" fill="#84BE84" rx="3" ry="3" style="stroke:#038048;stroke-width:1;"/><text fill="#000000" font-family="sans-serif" font-size="14" lengthAdjust="spacing" textLength="278.8174" x="185.79" y="444.3689">Nodo(Persona persona, Nodo siguiente)</text></g><!--class Lista--><g id="elem_Lista"><rect codeLine="20" fill="#F1F1F1" height="129.4844" id="Lista" rx="2.5" ry="2.5" style="stroke:#181818;stroke-width:0.5;" width="298.5146" x="166.94" y="148.29"/><ellipse cx="295.4214" cy="164.29" fill="#ADD1B2" rx="11" ry="11" style="stroke:#181818;stroke-width:1;"/><path d="M298.3902,169.9306 Q297.8121,170.2275 297.1714,170.3681 Q296.5308,170.5244 295.8277,170.5244 Q293.3277,170.5244 291.9996,168.8838 Q290.6871,167.2275 290.6871,164.1025 Q290.6871,160.9775 291.9996,159.3213 Q293.3277,157.665 295.8277,157.665 Q296.5308,157.665 297.1714,157.8213 Q297.8277,157.9775 298.3902,158.2744 L298.3902,160.9931 Q297.7652,160.415 297.1714,160.1494 Q296.5777,159.8681 295.9527,159.8681 Q294.6089,159.8681 293.9214,160.9463 Q293.2339,162.0088 293.2339,164.1025 Q293.2339,166.1963 293.9214,167.2744 Q294.6089,168.3369 295.9527,168.3369 Q296.5777,168.3369 297.1714,168.0713 Q297.7652,167.79 298.3902,167.2119 L298.3902,169.9306 Z " fill="#000000"/><text fill="#000000" font-family="sans-serif" font-size="14" lengthAdjust="spacing" textLength="33.0518" x="315.9214" y="169.1367">Lista</text><line style="stroke:#181818;stroke-width:0.5;" x1="167.94" x2="464.4546" y1="180.29" y2="180.29"/><rect fill="none" height="6" style="stroke:#C82930;stroke-width:1;" width="6" x="174.94" y="190.9384"/><text fill="#000000" font-family="sans-serif" font-size="14" lengthAdjust="spacing" textLength="96.0449" x="186.94" y="197.2851">Nodo primero</text><line style="stroke:#181818;stroke-width:0.5;" x1="167.94" x2="464.4546" y1="204.5869" y2="204.5869"/><ellipse cx="177.94" cy="218.2353" fill="#84BE84" rx="3" ry="3" style="stroke:#038048;stroke-width:1;"/><text fill="#000000" font-family="sans-serif" font-size="14" lengthAdjust="spacing" textLength="43.9756" x="186.94" y="221.582">Lista()</text><ellipse cx="177.94" cy="234.5322" fill="#84BE84" rx="3" ry="3" style="stroke:#038048;stroke-width:1;"/><text fill="#000000" font-family="sans-serif" font-size="14" lengthAdjust="spacing" textLength="272.5146" x="186.94" y="237.8789">void insertarPersona(Persona persona)</text><ellipse cx="177.94" cy="250.8291" fill="#84BE84" rx="3" ry="3" style="stroke:#038048;stroke-width:1;"/><text fill="#000000" font-family="sans-serif" font-size="14" lengthAdjust="spacing" textLength="249.1016" x="186.94" y="254.1757">boolean contiene(Persona persona)</text><ellipse cx="177.94" cy="267.1259" fill="#84BE84" rx="3" ry="3" style="stroke:#038048;stroke-width:1;"/><text fill="#000000" font-family="sans-serif" font-size="14" lengthAdjust="spacing" textLength="250.2979" x="186.94" y="270.4726">Persona obtenerPersona(String dni)</text></g><!--link Principal to Persona--><g id="link_Principal_Persona"><path codeLine="29" d="M167.61,71.43 C160.93,92.8 152.88,121.92 149.2,148.29 C130.6,281.48 133.4744,432.8663 137.5944,522.4763 " fill="none" id="Principal-to-Persona" style="stroke:#181818;stroke-width:1;"/><polygon fill="#181818" points="137.87,528.47,141.4524,519.2958,137.6404,523.4753,133.4609,519.6632,137.87,528.47" style="stroke:#181818;stroke-width:1;"/><text fill="#000000" font-family="sans-serif" font-size="13" lengthAdjust="spacing" textLength="67.3931" x="137.2" y="320.8469">crea y usa</text></g><!--link Principal to Lista--><g id="link_Principal_Lista"><path codeLine="30" d="M203.51,71.67 C220.63,93 240.0833,117.2316 260.9933,143.2716 " fill="none" id="Principal-to-Lista" style="stroke:#181818;stroke-width:1;"/><polygon fill="#181818" points="264.75,147.95,262.2338,138.428,261.6194,144.0514,255.996,143.4369,264.75,147.95" style="stroke:#181818;stroke-width:1;"/><text fill="#000000" font-family="sans-serif" font-size="13" lengthAdjust="spacing" textLength="67.3931" x="239.2" y="114.3569">crea y usa</text></g><!--link Lista to Nodo--><g id="link_Lista_Nodo"><path codeLine="31" d="M316.88,278.27 C317.14,303.19 317.3751,325.2204 317.6251,348.3204 " fill="none" id="Lista-to-Nodo" style="stroke:#181818;stroke-width:1;"/><polygon fill="#181818" points="317.69,354.32,321.5924,345.2772,317.6359,349.3203,313.5928,345.3638,317.69,354.32" style="stroke:#181818;stroke-width:1;"/><text fill="#000000" font-family="sans-serif" font-size="13" lengthAdjust="spacing" textLength="56.2847" x="318.2" y="320.8469">contiene</text><text fill="#000000" font-family="sans-serif" font-size="13" lengthAdjust="spacing" textLength="8.271" x="308.5519" y="297.8448">1</text><text fill="#000000" font-family="sans-serif" font-size="13" lengthAdjust="spacing" textLength="23.0356" x="293.0787" y="343.8164">0..*</text></g><!--link Nodo to Persona--><g id="link_Nodo_Persona"><path codeLine="32" d="M275.37,452 C254.81,474.93 233.7555,498.4228 210.9355,523.8728 " fill="none" id="Nodo-to-Persona" style="stroke:#181818;stroke-width:1;"/><polygon fill="#181818" points="206.93,528.34,215.9164,524.3096,210.2679,524.6174,209.9602,518.9689,206.93,528.34" style="stroke:#181818;stroke-width:1;"/><text fill="#000000" font-family="sans-serif" font-size="13" lengthAdjust="spacing" textLength="56.2847" x="246.2" y="494.7369">contiene</text><text fill="#000000" font-family="sans-serif" font-size="13" lengthAdjust="spacing" textLength="8.271" x="261.0956" y="471.6377">1</text><text fill="#000000" font-family="sans-serif" font-size="13" lengthAdjust="spacing" textLength="8.271" x="204.7316" y="517.7195">1</text></g><!--link Nodo to Nodo--><g id="link_Nodo_Nodo"><path codeLine="33" d="M470.78,388.72 C491.67,391.13 505.6,395.96 505.6,403.22 C505.6,410.48 497.6305,414.6324 476.7405,417.0424 " fill="none" id="Nodo-to-Nodo" style="stroke:#181818;stroke-width:1;"/><polygon fill="#181818" points="470.78,417.73,480.1791,420.6722,475.7471,417.157,479.2623,412.7249,470.78,417.73" style="stroke:#181818;stroke-width:1;"/><text fill="#000000" font-family="sans-serif" font-size="13" lengthAdjust="spacing" textLength="57.8589" x="511.6" y="407.7869">apunta a</text><text fill="#000000" font-family="sans-serif" font-size="13" lengthAdjust="spacing" textLength="23.0356" x="478.7286" y="384.7242">0..*</text><text fill="#000000" font-family="sans-serif" font-size="13" lengthAdjust="spacing" textLength="8.271" x="478.371" y="415.1394">1</text></g><!--SRC=[XP51IyGm48Nl_HL3BdPrk-ZLWoUFieWUnSCq7Sf0Eob9AeZutyqcQRSR4NC9l7nvxsMY1tGEdYsBvWa7-AeWh1iOaQL-zK7ltzu1RUzsrNTLwOIJTKOmmmqa3iIChQLBhHFEZlbIVG7lDzok09UKAUtBSRxGatyKhd-hnsXSR-eUJMVMheLhLYFYk9-Pn5FsF8bbYts1RcAUsFdpJ28sMHx9ckmNWRNnX-4EM1nPZ_QVDxV638G2seWFiVGNjyYczO6onSZZZ4FTAtYX0JKR8LUTlxvf7bQ3Ur3Q4i8dp0vL0QM75aWIrPsAYBez7AvL6i89pBrL5PML2lisiQ2Inm8kNZZD4f9G_G00]--></g></svg>