<svg xmlns="http://www.w3.org/2000/svg" xmlns:xlink="http://www.w3.org/1999/xlink" contentStyleType="text/css" height="415px" preserveAspectRatio="none" style="width:875px;height:415px;background:#FFFFFF;" version="1.1" viewBox="0 0 875 415" width="875px" zoomAndPan="magnify"><defs/><g><!--class Persona--><g id="elem_Persona"><rect codeLine="2" fill="#F1F1F1" height="162.0781" id="Persona" rx="2.5" ry="2.5" style="stroke:#181818;stroke-width:0.5;" width="279.8252" x="7" y="7"/><ellipse cx="114.6011" cy="23" fill="#ADD1B2" rx="11" ry="11" style="stroke:#181818;stroke-width:1;"/><path d="M117.5698,28.6406 Q116.9917,28.9375 116.3511,29.0781 Q115.7104,29.2344 115.0073,29.2344 Q112.5073,29.2344 111.1792,27.5938 Q109.8667,25.9375 109.8667,22.8125 Q109.8667,19.6875 111.1792,18.0313 Q112.5073,16.375 115.0073,16.375 Q115.7104,16.375 116.3511,16.5313 Q117.0073,16.6875 117.5698,16.9844 L117.5698,19.7031 Q116.9448,19.125 116.3511,18.8594 Q115.7573,18.5781 115.1323,18.5781 Q113.7886,18.5781 113.1011,19.6563 Q112.4136,20.7188 112.4136,22.8125 Q112.4136,24.9063 113.1011,25.9844 Q113.7886,27.0469 115.1323,27.0469 Q115.7573,27.0469 116.3511,26.7813 Q116.9448,26.5 117.5698,25.9219 L117.5698,28.6406 Z " fill="#000000"/><text fill="#000000" font-family="sans-serif" font-size="14" lengthAdjust="spacing" textLength="56.123" x="135.1011" y="27.8467">Persona</text><line style="stroke:#181818;stroke-width:0.5;" x1="8" x2="285.8252" y1="39" y2="39"/><rect fill="none" height="6" style="stroke:#C82930;stroke-width:1;" width="6" x="15" y="49.6484"/><text fill="#000000" font-family="sans-serif" font-size="14" lengthAdjust="spacing" textLength="105.2803" x="27" y="55.9951">nombre: String</text><rect fill="none" height="6" style="stroke:#C82930;stroke-width:1;" width="6" x="15" y="65.9453"/><text fill="#000000" font-family="sans-serif" font-size="14" lengthAdjust="spacing" textLength="72.5977" x="27" y="72.292">dni: String</text><line style="stroke:#181818;stroke-width:0.5;" x1="8" x2="285.8252" y1="79.5938" y2="79.5938"/><ellipse cx="18" cy="93.2422" fill="#84BE84" rx="3" ry="3" style="stroke:#038048;stroke-width:1;"/><text fill="#000000" font-family="sans-serif" font-size="14" lengthAdjust="spacing" textLength="253.8252" x="27" y="96.5889">Persona(nombre: String, dni: String)</text><ellipse cx="18" cy="109.5391" fill="#84BE84" rx="3" ry="3" style="stroke:#038048;stroke-width:1;"/><text fill="#000000" font-family="sans-serif" font-size="14" lengthAdjust="spacing" textLength="188.9043" x="27" y="112.8857">Persona(persona: Persona)</text><ellipse cx="18" cy="125.8359" fill="#84BE84" rx="3" ry="3" style="stroke:#038048;stroke-width:1;"/><text fill="#000000" font-family="sans-serif" font-size="14" lengthAdjust="spacing" textLength="140.793" x="27" y="129.1826">getNombre(): String</text><ellipse cx="18" cy="142.1328" fill="#84BE84" rx="3" ry="3" style="stroke:#038048;stroke-width:1;"/><text fill="#000000" font-family="sans-serif" font-size="14" lengthAdjust="spacing" textLength="108.4043" x="27" y="145.4795">getDni(): String</text><ellipse cx="18" cy="158.4297" fill="#84BE84" rx="3" ry="3" style="stroke:#038048;stroke-width:1;"/><text fill="#000000" font-family="sans-serif" font-size="14" lengthAdjust="spacing" textLength="117.708" x="27" y="161.7764">toString(): String</text></g><!--class Nodo--><g id="elem_Nodo"><rect codeLine="13" fill="#F1F1F1" height="162.0781" id="Nodo" rx="2.5" ry="2.5" style="stroke:#181818;stroke-width:0.5;" width="275.0947" x="173.37" y="246.08"/><ellipse cx="288.4222" cy="262.08" fill="#ADD1B2" rx="11" ry="11" style="stroke:#181818;stroke-width:1;"/><path d="M291.391,267.7206 Q290.8129,268.0175 290.1722,268.1581 Q289.5316,268.3144 288.8285,268.3144 Q286.3285,268.3144 285.0004,266.6738 Q283.6879,265.0175 283.6879,261.8925 Q283.6879,258.7675 285.0004,257.1113 Q286.3285,255.455 288.8285,255.455 Q289.5316,255.455 290.1722,255.6113 Q290.8285,255.7675 291.391,256.0644 L291.391,258.7831 Q290.766,258.205 290.1722,257.9394 Q289.5785,257.6581 288.9535,257.6581 Q287.6097,257.6581 286.9222,258.7363 Q286.2347,259.7988 286.2347,261.8925 Q286.2347,263.9863 286.9222,265.0644 Q287.6097,266.1269 288.9535,266.1269 Q289.5785,266.1269 290.1722,265.8613 Q290.766,265.58 291.391,265.0019 L291.391,267.7206 Z " fill="#000000"/><text fill="#000000" font-family="sans-serif" font-size="14" lengthAdjust="spacing" textLength="36.4902" x="308.9222" y="266.9267">Nodo</text><line style="stroke:#181818;stroke-width:0.5;" x1="174.37" x2="447.4647" y1="278.08" y2="278.08"/><rect fill="none" height="6" style="stroke:#C82930;stroke-width:1;" width="6" x="181.37" y="288.7284"/><text fill="#000000" font-family="sans-serif" font-size="14" lengthAdjust="spacing" textLength="121.8574" x="193.37" y="295.0751">persona: Persona</text><rect fill="none" height="6" style="stroke:#C82930;stroke-width:1;" width="6" x="181.37" y="305.0253"/><text fill="#000000" font-family="sans-serif" font-size="14" lengthAdjust="spacing" textLength="110.0791" x="193.37" y="311.372">siguiente: Nodo</text><line style="stroke:#181818;stroke-width:0.5;" x1="174.37" x2="447.4647" y1="318.6738" y2="318.6738"/><ellipse cx="184.37" cy="332.3222" fill="#84BE84" rx="3" ry="3" style="stroke:#038048;stroke-width:1;"/><text fill="#000000" font-family="sans-serif" font-size="14" lengthAdjust="spacing" textLength="169.2715" x="193.37" y="335.6689">Nodo(persona: Persona)</text><ellipse cx="184.37" cy="348.6191" fill="#84BE84" rx="3" ry="3" style="stroke:#038048;stroke-width:1;"/><text fill="#000000" font-family="sans-serif" font-size="14" lengthAdjust="spacing" textLength="155.3262" x="193.37" y="351.9657">getPersona(): Persona</text><ellipse cx="184.37" cy="364.9159" fill="#84BE84" rx="3" ry="3" style="stroke:#038048;stroke-width:1;"/><text fill="#000000" font-family="sans-serif" font-size="14" lengthAdjust="spacing" textLength="249.0947" x="193.37" y="368.2626">setPersona(persona: Persona): void</text><ellipse cx="184.37" cy="381.2128" fill="#84BE84" rx="3" ry="3" style="stroke:#038048;stroke-width:1;"/><text fill="#000000" font-family="sans-serif" font-size="14" lengthAdjust="spacing" textLength="145.585" x="193.37" y="384.5595">getSiguiente(): Nodo</text><ellipse cx="184.37" cy="397.5097" fill="#84BE84" rx="3" ry="3" style="stroke:#038048;stroke-width:1;"/><text fill="#000000" font-family="sans-serif" font-size="14" lengthAdjust="spacing" textLength="247.208" x="193.37" y="400.8564">setSiguiente(siguiente: Nodo): void</text></g><!--class Lista--><g id="elem_Lista"><rect codeLine="24" fill="#F1F1F1" height="113.1875" id="Lista" rx="2.5" ry="2.5" style="stroke:#181818;stroke-width:0.5;" width="307.9482" x="321.94" y="31.45"/><ellipse cx="455.1382" cy="47.45" fill="#ADD1B2" rx="11" ry="11" style="stroke:#181818;stroke-width:1;"/><path d="M458.107,53.0906 Q457.5289,53.3875 456.8882,53.5281 Q456.2476,53.6844 455.5445,53.6844 Q453.0445,53.6844 451.7164,52.0438 Q450.4039,50.3875 450.4039,47.2625 Q450.4039,44.1375 451.7164,42.4813 Q453.0445,40.825 455.5445,40.825 Q456.2476,40.825 456.8882,40.9813 Q457.5445,41.1375 458.107,41.4344 L458.107,44.1531 Q457.482,43.575 456.8882,43.3094 Q456.2945,43.0281 455.6695,43.0281 Q454.3257,43.0281 453.6382,44.1063 Q452.9507,45.1688 452.9507,47.2625 Q452.9507,49.3563 453.6382,50.4344 Q454.3257,51.4969 455.6695,51.4969 Q456.2945,51.4969 456.8882,51.2313 Q457.482,50.95 458.107,50.3719 L458.107,53.0906 Z " fill="#000000"/><text fill="#000000" font-family="sans-serif" font-size="14" lengthAdjust="spacing" textLength="33.0518" x="475.6382" y="52.2967">Lista</text><line style="stroke:#181818;stroke-width:0.5;" x1="322.94" x2="628.8882" y1="63.45" y2="63.45"/><rect fill="none" height="6" style="stroke:#C82930;stroke-width:1;" width="6" x="329.94" y="74.0984"/><text fill="#000000" font-family="sans-serif" font-size="14" lengthAdjust="spacing" textLength="100.7617" x="341.94" y="80.4451">primero: Nodo</text><line style="stroke:#181818;stroke-width:0.5;" x1="322.94" x2="628.8882" y1="87.7469" y2="87.7469"/><ellipse cx="332.94" cy="101.3953" fill="#84BE84" rx="3" ry="3" style="stroke:#038048;stroke-width:1;"/><text fill="#000000" font-family="sans-serif" font-size="14" lengthAdjust="spacing" textLength="43.9756" x="341.94" y="104.742">Lista()</text><ellipse cx="332.94" cy="117.6922" fill="#84BE84" rx="3" ry="3" style="stroke:#038048;stroke-width:1;"/><text fill="#000000" font-family="sans-serif" font-size="14" lengthAdjust="spacing" textLength="281.9482" x="341.94" y="121.0389">insertarPersona(persona: Persona): void</text><ellipse cx="332.94" cy="133.9891" fill="#84BE84" rx="3" ry="3" style="stroke:#038048;stroke-width:1;"/><text fill="#000000" font-family="sans-serif" font-size="14" lengthAdjust="spacing" textLength="137.8467" x="341.94" y="137.3357">mostrarLista(): void</text></g><!--class Main--><g id="elem_Main"><rect codeLine="32" fill="#F1F1F1" height="64.2969" id="Main" rx="2.5" ry="2.5" style="stroke:#181818;stroke-width:0.5;" width="203.085" x="665.37" y="55.89"/><ellipse cx="745.952" cy="71.89" fill="#ADD1B2" rx="11" ry="11" style="stroke:#181818;stroke-width:1;"/><path d="M748.9208,77.5306 Q748.3427,77.8275 747.702,77.9681 Q747.0614,78.1244 746.3583,78.1244 Q743.8583,78.1244 742.5302,76.4838 Q741.2177,74.8275 741.2177,71.7025 Q741.2177,68.5775 742.5302,66.9213 Q743.8583,65.265 746.3583,65.265 Q747.0614,65.265 747.702,65.4213 Q748.3583,65.5775 748.9208,65.8744 L748.9208,68.5931 Q748.2958,68.015 747.702,67.7494 Q747.1083,67.4681 746.4833,67.4681 Q745.1395,67.4681 744.452,68.5463 Q743.7645,69.6088 743.7645,71.7025 Q743.7645,73.7963 744.452,74.8744 Q745.1395,75.9369 746.4833,75.9369 Q747.1083,75.9369 747.702,75.6713 Q748.2958,75.39 748.9208,74.8119 L748.9208,77.5306 Z " fill="#000000"/><text fill="#000000" font-family="sans-serif" font-size="14" lengthAdjust="spacing" textLength="33.4209" x="766.452" y="76.7367">Main</text><line style="stroke:#181818;stroke-width:0.5;" x1="666.37" x2="867.455" y1="87.89" y2="87.89"/><line style="stroke:#181818;stroke-width:0.5;" x1="666.37" x2="867.455" y1="95.89" y2="95.89"/><ellipse cx="676.37" cy="109.5384" fill="#84BE84" rx="3" ry="3" style="stroke:#038048;stroke-width:1;"/><text fill="#000000" font-family="sans-serif" font-size="14" lengthAdjust="spacing" textLength="177.085" x="685.37" y="112.8851">main(args: String[]): void</text></g><!--reverse link Persona to Nodo--><g id="link_Persona_Nodo"><path codeLine="37" d="M209.2659,179.1795 C226.3559,203.8895 238.35,221.23 255.45,245.94 " fill="none" id="Persona-backto-Nodo" style="stroke:#181818;stroke-width:1;"/><polygon fill="#181818" points="202.44,169.31,202.5632,176.5201,209.2659,179.1795,209.1428,171.9694,202.44,169.31" style="stroke:#181818;stroke-width:1;"/><text fill="#000000" font-family="sans-serif" font-size="13" lengthAdjust="spacing" textLength="32.9443" x="234.91" y="212.1469">tiene</text><text fill="#000000" font-family="sans-serif" font-size="13" lengthAdjust="spacing" textLength="8.271" x="198.8798" y="189.0114">1</text><text fill="#000000" font-family="sans-serif" font-size="13" lengthAdjust="spacing" textLength="8.271" x="242.1658" y="235.1148">1</text></g><!--reverse link Nodo to Nodo--><g id="link_Nodo_Nodo"><path codeLine="38" d="M460.5149,308.5355 C481.2649,311.6755 483.46,316.67 483.46,327.12 C483.46,337.57 469.4,344.36 448.65,347.51 " fill="none" id="Nodo-backto-Nodo" style="stroke:#181818;stroke-width:1;"/><polygon fill="#181818" points="448.65,306.74,453.984,311.5927,460.5149,308.5355,455.1809,303.6828,448.65,306.74" style="stroke:#181818;stroke-width:1;"/><text fill="#000000" font-family="sans-serif" font-size="13" lengthAdjust="spacing" textLength="59.8203" x="489.46" y="331.6869">siguiente</text><text fill="#000000" font-family="sans-serif" font-size="13" lengthAdjust="spacing" textLength="8.271" x="456.4084" y="302.2859">1</text><text fill="#000000" font-family="sans-serif" font-size="13" lengthAdjust="spacing" textLength="24.8066" x="456.3914" y="345.245">0..1</text></g><!--reverse link Lista to Nodo--><g id="link_Lista_Nodo"><path codeLine="39" d="M430.1642,154.7787 C409.2042,184.8887 389.83,212.73 366.73,245.93 " fill="none" id="Lista-backto-Nodo" style="stroke:#181818;stroke-width:1;"/><polygon fill="#181818" points="437.02,144.93,430.3092,147.5691,430.1642,154.7787,436.875,152.1396,437.02,144.93" style="stroke:#181818;stroke-width:1;"/><text fill="#000000" font-family="sans-serif" font-size="13" lengthAdjust="spacing" textLength="51.1685" x="399.91" y="212.1469">primero</text><text fill="#000000" font-family="sans-serif" font-size="13" lengthAdjust="spacing" textLength="8.271" x="423.8088" y="164.8521">1</text><text fill="#000000" font-family="sans-serif" font-size="13" lengthAdjust="spacing" textLength="8.271" x="363.3566" y="235.1039">1</text></g><!--SRC=[ZL9BJiCm4Dtx5ADkcj2cWctMNKA5w1AnCCaGZPJOoEEoGPoA8t0nRCVEhr0r6y_tpRmtMSCUtqXHHJ_V2cg4LaBLIaPuHCDQIU4zJXvy2d1V0KfthmPBE5f3ged1Mj4iiabjsRnyEwtC5wNl_LkcGCetQ0y19SiNGrnch-WiR7NlJX9VGgp_9NpGjOvilJbGNIuKmqpDYL1PnofqzaEzUOb2OfdFuJR0O-wilOGFJVK8SaoZFSnaE4zJY_qIo4K9xebjkdYmHn4CTMZqR5oeo18vKep6IdCTYqwpDT94Y6jsUv2auchUZ9iv9ETaqZIShlpyCiDxmbPMf1KoE3MCH-GUaaNwgrTtAxWfYl26svTWdNOeWZDaRtUxiM3GL_HA_O4HHVi5]--></g></svg>