<svg xmlns="http://www.w3.org/2000/svg" xmlns:xlink="http://www.w3.org/1999/xlink" contentStyleType="text/css" height="714px" preserveAspectRatio="none" style="width:582px;height:714px;background:#FFFFFF;" version="1.1" viewBox="0 0 582 714" width="582px" zoomAndPan="magnify"><defs/><g><!--class Principal--><g id="elem_Principal"><rect codeLine="1" fill="#F1F1F1" height="64.2969" id="Principal" rx="2.5" ry="2.5" style="stroke:#181818;stroke-width:0.5;" width="159.5742" x="98.41" y="7"/><ellipse cx="143.9954" cy="23" fill="#ADD1B2" rx="11" ry="11" style="stroke:#181818;stroke-width:1;"/><path d="M146.9642,28.6406 Q146.3861,28.9375 145.7454,29.0781 Q145.1048,29.2344 144.4017,29.2344 Q141.9017,29.2344 140.5736,27.5938 Q139.2611,25.9375 139.2611,22.8125 Q139.2611,19.6875 140.5736,18.0313 Q141.9017,16.375 144.4017,16.375 Q145.1048,16.375 145.7454,16.5313 Q146.4017,16.6875 146.9642,16.9844 L146.9642,19.7031 Q146.3392,19.125 145.7454,18.8594 Q145.1517,18.5781 144.5267,18.5781 Q143.1829,18.5781 142.4954,19.6563 Q141.8079,20.7188 141.8079,22.8125 Q141.8079,24.9063 142.4954,25.9844 Q143.1829,27.0469 144.5267,27.0469 Q145.1517,27.0469 145.7454,26.7813 Q146.3392,26.5 146.9642,25.9219 L146.9642,28.6406 Z " fill="#000000"/><text fill="#000000" font-family="sans-serif" font-size="14" lengthAdjust="spacing" textLength="59.9033" x="164.4954" y="27.8467">Principal</text><line style="stroke:#181818;stroke-width:0.5;" x1="99.41" x2="256.9842" y1="39" y2="39"/><line style="stroke:#181818;stroke-width:0.5;" x1="99.41" x2="256.9842" y1="47" y2="47"/><ellipse cx="109.41" cy="60.6484" fill="#84BE84" rx="3" ry="3" style="stroke:#038048;stroke-width:1;"/><text fill="#000000" font-family="sans-serif" font-size="14" lengthAdjust="spacing" textLength="133.5742" x="118.41" y="63.9951">main(String[] args)</text></g><!--class Persona--><g id="elem_Persona"><rect codeLine="5" fill="#F1F1F1" height="145.7813" id="Persona" rx="2.5" ry="2.5" style="stroke:#181818;stroke-width:0.5;" width="270.3916" x="7" y="561.27"/><ellipse cx="109.8843" cy="577.27" fill="#ADD1B2" rx="11" ry="11" style="stroke:#181818;stroke-width:1;"/><path d="M112.853,582.9106 Q112.2749,583.2075 111.6343,583.3481 Q110.9937,583.5044 110.2905,583.5044 Q107.7905,583.5044 106.4624,581.8638 Q105.1499,580.2075 105.1499,577.0825 Q105.1499,573.9575 106.4624,572.3013 Q107.7905,570.645 110.2905,570.645 Q110.9937,570.645 111.6343,570.8013 Q112.2905,570.9575 112.853,571.2544 L112.853,573.9731 Q112.228,573.395 111.6343,573.1294 Q111.0405,572.8481 110.4155,572.8481 Q109.0718,572.8481 108.3843,573.9263 Q107.6968,574.9888 107.6968,577.0825 Q107.6968,579.1763 108.3843,580.2544 Q109.0718,581.3169 110.4155,581.3169 Q111.0405,581.3169 111.6343,581.0513 Q112.228,580.77 112.853,580.1919 L112.853,582.9106 Z " fill="#000000"/><text fill="#000000" font-family="sans-serif" font-size="14" lengthAdjust="spacing" textLength="56.123" x="130.3843" y="582.1167">Persona</text><line style="stroke:#181818;stroke-width:0.5;" x1="8" x2="276.3916" y1="593.27" y2="593.27"/><rect fill="none" height="6" style="stroke:#C82930;stroke-width:1;" width="6" x="15" y="603.9184"/><text fill="#000000" font-family="sans-serif" font-size="14" lengthAdjust="spacing" textLength="100.5635" x="27" y="610.2651">String nombre</text><rect fill="none" height="6" style="stroke:#C82930;stroke-width:1;" width="6" x="15" y="620.2153"/><text fill="#000000" font-family="sans-serif" font-size="14" lengthAdjust="spacing" textLength="67.8809" x="27" y="626.562">String dni</text><line style="stroke:#181818;stroke-width:0.5;" x1="8" x2="276.3916" y1="633.8638" y2="633.8638"/><ellipse cx="18" cy="647.5122" fill="#84BE84" rx="3" ry="3" style="stroke:#038048;stroke-width:1;"/><text fill="#000000" font-family="sans-serif" font-size="14" lengthAdjust="spacing" textLength="244.3916" x="27" y="650.8589">Persona(String nombre, String dni)</text><ellipse cx="18" cy="663.8091" fill="#84BE84" rx="3" ry="3" style="stroke:#038048;stroke-width:1;"/><text fill="#000000" font-family="sans-serif" font-size="14" lengthAdjust="spacing" textLength="184.1875" x="27" y="667.1557">Persona(Persona persona)</text><ellipse cx="18" cy="680.1059" fill="#84BE84" rx="3" ry="3" style="stroke:#038048;stroke-width:1;"/><text fill="#000000" font-family="sans-serif" font-size="14" lengthAdjust="spacing" textLength="103.6875" x="27" y="683.4526">String getDni()</text><ellipse cx="18" cy="696.4028" fill="#84BE84" rx="3" ry="3" style="stroke:#038048;stroke-width:1;"/><text fill="#000000" font-family="sans-serif" font-size="14" lengthAdjust="spacing" textLength="136.0762" x="27" y="699.7495">String getNombre()</text></g><!--class Nodo--><g id="elem_Nodo"><rect codeLine="14" fill="#F1F1F1" height="129.4844" id="Nodo" rx="2.5" ry="2.5" style="stroke:#181818;stroke-width:0.5;" width="304.8174" x="165.79" y="354.78"/><ellipse cx="295.7036" cy="370.78" fill="#ADD1B2" rx="11" ry="11" style="stroke:#181818;stroke-width:1;"/><path d="M298.6723,376.4206 Q298.0942,376.7175 297.4536,376.8581 Q296.8129,377.0144 296.1098,377.0144 Q293.6098,377.0144 292.2817,375.3738 Q290.9692,373.7175 290.9692,370.5925 Q290.9692,367.4675 292.2817,365.8113 Q293.6098,364.155 296.1098,364.155 Q296.8129,364.155 297.4536,364.3113 Q298.1098,364.4675 298.6723,364.7644 L298.6723,367.4831 Q298.0473,366.905 297.4536,366.6394 Q296.8598,366.3581 296.2348,366.3581 Q294.8911,366.3581 294.2036,367.4363 Q293.5161,368.4988 293.5161,370.5925 Q293.5161,372.6863 294.2036,373.7644 Q294.8911,374.8269 296.2348,374.8269 Q296.8598,374.8269 297.4536,374.5613 Q298.0473,374.28 298.6723,373.7019 L298.6723,376.4206 Z " fill="#000000"/><text fill="#000000" font-family="sans-serif" font-size="14" lengthAdjust="spacing" textLength="36.4902" x="316.2036" y="375.6267">Nodo</text><line style="stroke:#181818;stroke-width:0.5;" x1="166.79" x2="469.6074" y1="386.78" y2="386.78"/><rect fill="none" height="6" style="stroke:#C82930;stroke-width:1;" width="6" x="173.79" y="397.4284"/><text fill="#000000" font-family="sans-serif" font-size="14" lengthAdjust="spacing" textLength="117.1406" x="185.79" y="403.7751">Persona persona</text><rect fill="none" height="6" style="stroke:#C82930;stroke-width:1;" width="6" x="173.79" y="413.7253"/><text fill="#000000" font-family="sans-serif" font-size="14" lengthAdjust="spacing" textLength="105.3623" x="185.79" y="420.072">Nodo siguiente</text><line style="stroke:#181818;stroke-width:0.5;" x1="166.79" x2="469.6074" y1="427.3738" y2="427.3738"/><ellipse cx="176.79" cy="441.0222" fill="#84BE84" rx="3" ry="3" style="stroke:#038048;stroke-width:1;"/><text fill="#000000" font-family="sans-serif" font-size="14" lengthAdjust="spacing" textLength="278.8174" x="185.79" y="444.3689">Nodo(Persona persona, Nodo siguiente)</text><ellipse cx="176.79" cy="457.3191" fill="#84BE84" rx="3" ry="3" style="stroke:#038048;stroke-width:1;"/><text fill="#000000" font-family="sans-serif" font-size="14" lengthAdjust="spacing" textLength="150.6094" x="185.79" y="460.6657">Persona getPersona()</text><ellipse cx="176.79" cy="473.6159" fill="#84BE84" rx="3" ry="3" style="stroke:#038048;stroke-width:1;"/><text fill="#000000" font-family="sans-serif" font-size="14" lengthAdjust="spacing" textLength="140.8682" x="185.79" y="476.9626">Nodo getSiguiente()</text></g><!--class Lista--><g id="elem_Lista"><rect codeLine="22" fill="#F1F1F1" height="129.4844" id="Lista" rx="2.5" ry="2.5" style="stroke:#181818;stroke-width:0.5;" width="298.5146" x="166.94" y="148.3"/><ellipse cx="295.4214" cy="164.3" fill="#ADD1B2" rx="11" ry="11" style="stroke:#181818;stroke-width:1;"/><path d="M298.3902,169.9406 Q297.8121,170.2375 297.1714,170.3781 Q296.5308,170.5344 295.8277,170.5344 Q293.3277,170.5344 291.9996,168.8937 Q290.6871,167.2375 290.6871,164.1125 Q290.6871,160.9875 291.9996,159.3312 Q293.3277,157.675 295.8277,157.675 Q296.5308,157.675 297.1714,157.8312 Q297.8277,157.9875 298.3902,158.2844 L298.3902,161.0031 Q297.7652,160.425 297.1714,160.1594 Q296.5777,159.8781 295.9527,159.8781 Q294.6089,159.8781 293.9214,160.9562 Q293.2339,162.0187 293.2339,164.1125 Q293.2339,166.2062 293.9214,167.2844 Q294.6089,168.3469 295.9527,168.3469 Q296.5777,168.3469 297.1714,168.0812 Q297.7652,167.8 298.3902,167.2219 L298.3902,169.9406 Z " fill="#000000"/><text fill="#000000" font-family="sans-serif" font-size="14" lengthAdjust="spacing" textLength="33.0518" x="315.9214" y="169.1467">Lista</text><line style="stroke:#181818;stroke-width:0.5;" x1="167.94" x2="464.4546" y1="180.3" y2="180.3"/><rect fill="none" height="6" style="stroke:#C82930;stroke-width:1;" width="6" x="174.94" y="190.9484"/><text fill="#000000" font-family="sans-serif" font-size="14" lengthAdjust="spacing" textLength="96.0449" x="186.94" y="197.2951">Nodo primero</text><line style="stroke:#181818;stroke-width:0.5;" x1="167.94" x2="464.4546" y1="204.5969" y2="204.5969"/><ellipse cx="177.94" cy="218.2453" fill="#84BE84" rx="3" ry="3" style="stroke:#038048;stroke-width:1;"/><text fill="#000000" font-family="sans-serif" font-size="14" lengthAdjust="spacing" textLength="43.9756" x="186.94" y="221.592">Lista()</text><ellipse cx="177.94" cy="234.5422" fill="#84BE84" rx="3" ry="3" style="stroke:#038048;stroke-width:1;"/><text fill="#000000" font-family="sans-serif" font-size="14" lengthAdjust="spacing" textLength="272.5146" x="186.94" y="237.8889">void insertarPersona(Persona persona)</text><ellipse cx="177.94" cy="250.8391" fill="#84BE84" rx="3" ry="3" style="stroke:#038048;stroke-width:1;"/><text fill="#000000" font-family="sans-serif" font-size="14" lengthAdjust="spacing" textLength="249.1016" x="186.94" y="254.1857">boolean contiene(Persona persona)</text><ellipse cx="177.94" cy="267.1359" fill="#84BE84" rx="3" ry="3" style="stroke:#038048;stroke-width:1;"/><text fill="#000000" font-family="sans-serif" font-size="14" lengthAdjust="spacing" textLength="250.2979" x="186.94" y="270.4826">Persona obtenerPersona(String dni)</text></g><!--link Principal to Persona--><g id="link_Principal_Persona"><path codeLine="31" d="M167.6,71.43 C160.91,92.8 152.86,121.92 149.2,148.3 C128.99,293.59 132.7464,459.7372 137.4064,554.8672 " fill="none" id="Principal-to-Persona" style="stroke:#181818;stroke-width:1;"/><polygon fill="#181818" points="137.7,560.86,141.2549,551.6751,137.4554,555.866,133.2644,552.0665,137.7,560.86" style="stroke:#181818;stroke-width:1;"/><text fill="#000000" font-family="sans-serif" font-size="13" lengthAdjust="spacing" textLength="67.3931" x="137.2" y="320.8469">crea y usa</text></g><!--link Principal to Lista--><g id="link_Principal_Lista"><path codeLine="32" d="M203.51,71.68 C220.63,93 240.0833,117.2416 260.9933,143.2816 " fill="none" id="Principal-to-Lista" style="stroke:#181818;stroke-width:1;"/><polygon fill="#181818" points="264.75,147.96,262.2338,138.438,261.6194,144.0614,255.996,143.4469,264.75,147.96" style="stroke:#181818;stroke-width:1;"/><text fill="#000000" font-family="sans-serif" font-size="13" lengthAdjust="spacing" textLength="67.3931" x="239.2" y="114.3669">crea y usa</text></g><!--link Lista to Nodo--><g id="link_Lista_Nodo"><path codeLine="33" d="M316.82,278.18 C317.06,302.54 317.2709,324.2703 317.5109,348.6203 " fill="none" id="Lista-to-Nodo" style="stroke:#181818;stroke-width:1;"/><polygon fill="#181818" points="317.57,354.62,321.4811,345.581,317.5207,349.6202,313.4815,345.6599,317.57,354.62" style="stroke:#181818;stroke-width:1;"/><text fill="#000000" font-family="sans-serif" font-size="13" lengthAdjust="spacing" textLength="56.2847" x="318.2" y="320.8469">contiene</text><text fill="#000000" font-family="sans-serif" font-size="13" lengthAdjust="spacing" textLength="8.271" x="308.4857" y="297.7445">1</text><text fill="#000000" font-family="sans-serif" font-size="13" lengthAdjust="spacing" textLength="23.0356" x="293.2454" y="343.7752">0..*</text></g><!--link Nodo to Persona--><g id="link_Nodo_Persona"><path codeLine="34" d="M265.15,484.61 C245.21,508.7 226.2346,531.6169 205.7346,556.3969 " fill="none" id="Nodo-to-Persona" style="stroke:#181818;stroke-width:1;"/><polygon fill="#181818" points="201.91,561.02,210.7289,556.6351,205.0971,557.1674,204.5648,551.5357,201.91,561.02" style="stroke:#181818;stroke-width:1;"/><text fill="#000000" font-family="sans-serif" font-size="13" lengthAdjust="spacing" textLength="56.2847" x="236.2" y="527.3369">contiene</text><text fill="#000000" font-family="sans-serif" font-size="13" lengthAdjust="spacing" textLength="8.271" x="251.2808" y="504.1694">1</text><text fill="#000000" font-family="sans-serif" font-size="13" lengthAdjust="spacing" textLength="8.271" x="199.4077" y="550.1554">1</text></g><!--link Nodo to Nodo--><g id="link_Nodo_Nodo"><path codeLine="35" d="M470.78,402.3 C491.67,405.16 505.6,410.91 505.6,419.53 C505.6,428.15 497.6145,433.0761 476.7245,435.9361 " fill="none" id="Nodo-to-Nodo" style="stroke:#181818;stroke-width:1;"/><polygon fill="#181818" points="470.78,436.75,480.2394,439.4923,475.7338,436.0718,479.1543,431.5662,470.78,436.75" style="stroke:#181818;stroke-width:1;"/><text fill="#000000" font-family="sans-serif" font-size="13" lengthAdjust="spacing" textLength="57.8589" x="511.6" y="424.0969">apunta a</text><text fill="#000000" font-family="sans-serif" font-size="13" lengthAdjust="spacing" textLength="23.0356" x="478.7286" y="398.1726">0..*</text><text fill="#000000" font-family="sans-serif" font-size="13" lengthAdjust="spacing" textLength="8.271" x="478.371" y="434.2913">1</text></g><!--SRC=[XP9FIyGm4CNl_HH3BdPrk-ZLWwSzoYBkKJoawL06sab9Ka74xswQFzrkHCmbyFARDo-Jg45Q2o-6MD4a1_YgmAyx62LnVNPUxz_UGPhUxghlgb8HHsCromGt43bWFRO6hxMEAJcceleAtc-uNG7cBbFSyt4gwD4TcUhVwYaOrvku9ztfDMlXcjI0MEfdGdQOF1UnJB4lq2Bq4Y3dtsri5lsSQxRPdicwoo03EXaQqUXK7O3LwqDJ1yGMZPFcdq6rMWye6PHcv_lYNroMTUiyPOft2W_Zuzx0AmvIaMQqrUM_DCtJQl08GXcKy0cpbQA0uaKB98hYGGH4t1yEjo8EOG5JRb45PQNylkrOKD4ZWzbBJZFxJbBy0000]--></g></svg>